%TF.GenerationSoftware,Altium Limited,Altium Designer,22.8.2 (66)*%
G04 Layer_Color=16711935*
%FSLAX45Y45*%
%MOMM*%
%TF.SameCoordinates,FB7AEFDD-F9D1-43F8-8D2B-1616BFC5D0C0*%
%TF.FilePolarity,Positive*%
%TF.FileFunction,Other,Mechanical_13*%
%TF.Part,Single*%
G01*
G75*
%TA.AperFunction,NonConductor*%
%ADD41C,0.12700*%
%ADD42C,0.20000*%
%ADD43C,0.00000*%
D41*
X10850500Y3235000D02*
G03*
X10850500Y3235000I-175500J0D01*
G01*
X7943400Y3370000D02*
G03*
X8256600Y3370000I156600J-250612D01*
G01*
X13437003Y4123000D02*
Y6155000D01*
Y4123000D02*
Y6155000D01*
X13203003D02*
X13437003D01*
X13203003Y4123000D02*
Y6155000D01*
Y4123000D02*
X13437003D01*
X7798103Y4184800D02*
Y6216800D01*
Y4184800D02*
Y6216800D01*
X7564102D02*
X7798103D01*
X7564102Y4184800D02*
Y6216800D01*
Y4184800D02*
X7798103D01*
X13417003Y8057000D02*
Y10089000D01*
Y8057000D02*
Y10089000D01*
X13183003D02*
X13417003D01*
X13183003Y8057000D02*
Y10089000D01*
Y8057000D02*
X13417003D01*
X7653002Y8071000D02*
Y10103000D01*
Y8071000D02*
Y10103000D01*
Y8071000D02*
X7887003D01*
Y10103000D01*
X7653002D02*
X7887003D01*
X10974500Y2935500D02*
Y3534498D01*
X10375502Y2935500D02*
X10974500D01*
X10375502D02*
Y3534498D01*
X10974500D01*
X7943399Y3370002D02*
X8256601D01*
D42*
X13330000Y4058000D02*
G03*
X13330000Y4058000I-10000J0D01*
G01*
X7691100Y4119800D02*
G03*
X7691100Y4119800I-10000J0D01*
G01*
X13310001Y7992000D02*
G03*
X13310001Y7992000I-10000J0D01*
G01*
X7780000Y10168000D02*
G03*
X7780000Y10168000I-10000J0D01*
G01*
X8110000Y3440000D02*
G03*
X8110000Y3440000I-10000J0D01*
G01*
D43*
X10368480Y4958100D02*
G03*
X10307520Y4958100I-30480J0D01*
G01*
X11036500D02*
Y10215900D01*
X10368480Y4958100D02*
X11036500D01*
X10307520D02*
X10368480D01*
X9639500D02*
X10307520D01*
X9639500D02*
Y10215900D01*
X11036500D01*
X9520120Y5118120D02*
X9639500D01*
X9520120D02*
Y5229880D01*
X9639500D01*
Y5118120D02*
Y5229880D01*
X9520120Y5372120D02*
X9639500D01*
X9520120D02*
Y5483880D01*
X9639500D01*
Y5372120D02*
Y5483880D01*
X9520120Y5626120D02*
X9639500D01*
X9520120D02*
Y5737880D01*
X9639500D01*
Y5626120D02*
Y5737880D01*
X9520120Y5880120D02*
X9639500D01*
X9520120D02*
Y5991880D01*
X9639500D01*
Y5880120D02*
Y5991880D01*
X9520120Y6134120D02*
X9639500D01*
X9520120D02*
Y6245880D01*
X9639500D01*
Y6134120D02*
Y6245880D01*
X9520120Y6388120D02*
X9639500D01*
X9520120D02*
Y6499880D01*
X9639500D01*
Y6388120D02*
Y6499880D01*
X9520120Y6642120D02*
X9639500D01*
X9520120D02*
Y6753880D01*
X9639500D01*
Y6642120D02*
Y6753880D01*
X9520120Y6896120D02*
X9639500D01*
X9520120D02*
Y7007880D01*
X9639500D01*
Y6896120D02*
Y7007880D01*
X9520120Y7150120D02*
X9639500D01*
X9520120D02*
Y7261880D01*
X9639500D01*
Y7150120D02*
Y7261880D01*
X9520120Y7404120D02*
X9639500D01*
X9520120D02*
Y7515880D01*
X9639500D01*
Y7404120D02*
Y7515880D01*
X9520120Y7658120D02*
X9639500D01*
X9520120D02*
Y7769880D01*
X9639500D01*
Y7658120D02*
Y7769880D01*
X9520120Y7912120D02*
X9639500D01*
X9520120D02*
Y8023880D01*
X9639500D01*
Y7912120D02*
Y8023880D01*
X9520120Y8166120D02*
X9639500D01*
X9520120D02*
Y8277880D01*
X9639500D01*
Y8166120D02*
Y8277880D01*
X9520120Y8420120D02*
X9639500D01*
X9520120D02*
Y8531880D01*
X9639500D01*
Y8420120D02*
Y8531880D01*
X9520120Y8674120D02*
X9639500D01*
X9520120D02*
Y8785880D01*
X9639500D01*
Y8674120D02*
Y8785880D01*
X9520120Y8928120D02*
X9639500D01*
X9520120D02*
Y9039880D01*
X9639500D01*
Y8928120D02*
Y9039880D01*
X9520120Y9182120D02*
X9639500D01*
X9520120D02*
Y9293880D01*
X9639500D01*
Y9182120D02*
Y9293880D01*
X9520120Y9436120D02*
X9639500D01*
X9520120D02*
Y9547880D01*
X9639500D01*
Y9436120D02*
Y9547880D01*
X9520120Y9690120D02*
X9639500D01*
X9520120D02*
Y9801880D01*
X9639500D01*
Y9690120D02*
Y9801880D01*
X9520120Y9944120D02*
X9639500D01*
X9520120D02*
Y10055880D01*
X9639500D01*
Y9944120D02*
Y10055880D01*
X11036500D02*
X11155880D01*
Y9944120D02*
Y10055880D01*
X11036500Y9944120D02*
X11155880D01*
X11036500D02*
Y10055880D01*
Y9801880D02*
X11155880D01*
Y9690120D02*
Y9801880D01*
X11036500Y9690120D02*
X11155880D01*
X11036500D02*
Y9801880D01*
Y9547880D02*
X11155880D01*
Y9436120D02*
Y9547880D01*
X11036500Y9436120D02*
X11155880D01*
X11036500D02*
Y9547880D01*
Y9293880D02*
X11155880D01*
Y9182120D02*
Y9293880D01*
X11036500Y9182120D02*
X11155880D01*
X11036500D02*
Y9293880D01*
Y9039880D02*
X11155880D01*
Y8928120D02*
Y9039880D01*
X11036500Y8928120D02*
X11155880D01*
X11036500D02*
Y9039880D01*
Y8785880D02*
X11155880D01*
Y8674120D02*
Y8785880D01*
X11036500Y8674120D02*
X11155880D01*
X11036500D02*
Y8785880D01*
Y8531880D02*
X11155880D01*
Y8420120D02*
Y8531880D01*
X11036500Y8420120D02*
X11155880D01*
X11036500D02*
Y8531880D01*
Y8277880D02*
X11155880D01*
Y8166120D02*
Y8277880D01*
X11036500Y8166120D02*
X11155880D01*
X11036500D02*
Y8277880D01*
Y8023880D02*
X11155880D01*
Y7912120D02*
Y8023880D01*
X11036500Y7912120D02*
X11155880D01*
X11036500D02*
Y8023880D01*
Y7769880D02*
X11155880D01*
Y7658120D02*
Y7769880D01*
X11036500Y7658120D02*
X11155880D01*
X11036500D02*
Y7769880D01*
Y7515880D02*
X11155880D01*
Y7404120D02*
Y7515880D01*
X11036500Y7404120D02*
X11155880D01*
X11036500D02*
Y7515880D01*
Y7261880D02*
X11155880D01*
Y7150120D02*
Y7261880D01*
X11036500Y7150120D02*
X11155880D01*
X11036500D02*
Y7261880D01*
Y7007880D02*
X11155880D01*
Y6896120D02*
Y7007880D01*
X11036500Y6896120D02*
X11155880D01*
X11036500D02*
Y7007880D01*
Y6753880D02*
X11155880D01*
Y6642120D02*
Y6753880D01*
X11036500Y6642120D02*
X11155880D01*
X11036500D02*
Y6753880D01*
Y6499880D02*
X11155880D01*
Y6388120D02*
Y6499880D01*
X11036500Y6388120D02*
X11155880D01*
X11036500D02*
Y6499880D01*
Y6245880D02*
X11155880D01*
Y6134120D02*
Y6245880D01*
X11036500Y6134120D02*
X11155880D01*
X11036500D02*
Y6245880D01*
Y5991880D02*
X11155880D01*
Y5880120D02*
Y5991880D01*
X11036500Y5880120D02*
X11155880D01*
X11036500D02*
Y5991880D01*
Y5737880D02*
X11155880D01*
Y5626120D02*
Y5737880D01*
X11036500Y5626120D02*
X11155880D01*
X11036500D02*
Y5737880D01*
Y5483880D02*
X11155880D01*
Y5372120D02*
Y5483880D01*
X11036500Y5372120D02*
X11155880D01*
X11036500D02*
Y5483880D01*
Y5229880D02*
X11155880D01*
Y5118120D02*
Y5229880D01*
X11036500Y5118120D02*
X11155880D01*
X11036500D02*
Y5229880D01*
%TF.MD5,fdfe2e675cffcc78628e6cc0d1474ae6*%
M02*
