G04*
G04 #@! TF.GenerationSoftware,Altium Limited,Altium Designer,22.8.2 (66)*
G04*
G04 Layer_Color=65535*
%FSLAX44Y44*%
%MOMM*%
G71*
G04*
G04 #@! TF.SameCoordinates,239B72BE-1975-44D0-A8EA-8DBFC20476F2*
G04*
G04*
G04 #@! TF.FilePolarity,Positive*
G04*
G01*
G75*
%ADD10C,0.1524*%
%ADD11C,0.2540*%
%ADD12C,0.1270*%
%ADD13C,0.2000*%
D10*
X1036848Y495810D02*
G03*
X1030752Y495810I-3048J0D01*
G01*
X1103650Y1011430D02*
Y1021590D01*
Y495810D02*
Y504192D01*
X1036848Y495810D02*
X1103650D01*
X1030752D02*
X1036848D01*
X963950D02*
X1030752D01*
X963950Y1011430D02*
Y1021590D01*
X1103650D01*
X963950Y495810D02*
Y505970D01*
D11*
X1180000Y321000D02*
G03*
X1180000Y321000I-20000J0D01*
G01*
X918100Y417070D02*
X1148100D01*
X1149370D02*
Y1066040D01*
X918230D02*
X1149370D01*
X918100Y417070D02*
Y1065910D01*
X918230Y1066040D01*
X954620Y1219230D02*
X1024620D01*
X954620Y1144230D02*
X1024620D01*
X954620D02*
Y1219230D01*
X1024620Y1144230D02*
Y1219230D01*
X1460387Y574140D02*
X1511388D01*
X1460387Y442140D02*
Y574140D01*
Y442140D02*
X1511388D01*
Y574140D01*
X1309770Y763990D02*
X1359770D01*
X1309770Y649990D02*
Y763990D01*
Y649990D02*
X1359770D01*
Y763990D01*
X702305Y1198883D02*
Y1203961D01*
X699766Y1206500D01*
X689609D01*
X687070Y1203961D01*
Y1198883D01*
X689609Y1196343D01*
X699766D01*
X702305Y1198883D01*
X687070Y1191265D02*
Y1183647D01*
X689609Y1181108D01*
X692148Y1183647D01*
Y1188726D01*
X694688Y1191265D01*
X697227Y1188726D01*
Y1181108D01*
Y1173491D02*
Y1168412D01*
X694688Y1165873D01*
X687070D01*
Y1173491D01*
X689609Y1176030D01*
X692148Y1173491D01*
Y1165873D01*
X687070Y1160795D02*
X697227D01*
Y1158256D01*
X694688Y1155716D01*
X687070D01*
X694688D01*
X697227Y1153177D01*
X694688Y1150638D01*
X687070D01*
X697227Y1143020D02*
Y1137942D01*
X694688Y1135403D01*
X687070D01*
Y1143020D01*
X689609Y1145560D01*
X692148Y1143020D01*
Y1135403D01*
X695953Y1089660D02*
X680718D01*
X688336D01*
Y1079503D01*
X695953D01*
X680718D01*
X690875Y1071886D02*
Y1066807D01*
X688336Y1064268D01*
X680718D01*
Y1071886D01*
X683258Y1074425D01*
X685797Y1071886D01*
Y1064268D01*
X675640Y1054111D02*
Y1051572D01*
X678179Y1049033D01*
X690875D01*
Y1056651D01*
X688336Y1059190D01*
X683258D01*
X680718Y1056651D01*
Y1049033D01*
Y1036337D02*
Y1041416D01*
X683258Y1043955D01*
X688336D01*
X690875Y1041416D01*
Y1036337D01*
X688336Y1033798D01*
X685797D01*
Y1043955D01*
X690875Y1028720D02*
X680718D01*
X685797D01*
X688336Y1026180D01*
X690875Y1023641D01*
Y1021102D01*
X675640Y980440D02*
X685797D01*
X690875Y975362D01*
X685797Y970283D01*
X675640D01*
X683258D01*
Y980440D01*
X675640Y965205D02*
Y960127D01*
Y962666D01*
X690875D01*
Y965205D01*
X675640Y952509D02*
Y947431D01*
Y949970D01*
X685797D01*
Y952509D01*
Y937274D02*
Y932196D01*
X683258Y929656D01*
X675640D01*
Y937274D01*
X678179Y939813D01*
X680718Y937274D01*
Y929656D01*
X685797Y922039D02*
Y916961D01*
X683258Y914421D01*
X675640D01*
Y922039D01*
X678179Y924578D01*
X680718Y922039D01*
Y914421D01*
X684525Y875030D02*
X669290D01*
Y867412D01*
X671829Y864873D01*
X681986D01*
X684525Y867412D01*
Y875030D01*
X669290Y857256D02*
Y852177D01*
X671829Y849638D01*
X676908D01*
X679447Y852177D01*
Y857256D01*
X676908Y859795D01*
X671829D01*
X669290Y857256D01*
X679447Y842021D02*
Y836942D01*
X676908Y834403D01*
X669290D01*
Y842021D01*
X671829Y844560D01*
X674368Y842021D01*
Y834403D01*
X679447Y826786D02*
Y821707D01*
X676908Y819168D01*
X669290D01*
Y826786D01*
X671829Y829325D01*
X674368Y826786D01*
Y819168D01*
X684523Y783590D02*
X669288D01*
X676906D01*
Y773433D01*
X684523D01*
X669288D01*
X679445Y765816D02*
Y760737D01*
X676906Y758198D01*
X669288D01*
Y765816D01*
X671827Y768355D01*
X674367Y765816D01*
Y758198D01*
X684523Y742963D02*
X669288D01*
Y750581D01*
X671827Y753120D01*
X676906D01*
X679445Y750581D01*
Y742963D01*
Y737885D02*
X671827D01*
X669288Y735346D01*
Y727728D01*
X666749D01*
X664210Y730267D01*
Y732806D01*
X669288Y727728D02*
X679445D01*
X683255Y575310D02*
X668020D01*
Y567692D01*
X670559Y565153D01*
X680716D01*
X683255Y567692D01*
Y575310D01*
Y549918D02*
Y560075D01*
X668020D01*
Y549918D01*
X675638Y560075D02*
Y554997D01*
X683255Y544840D02*
Y539762D01*
Y542301D01*
X668020D01*
Y544840D01*
Y539762D01*
X683255Y521987D02*
Y532144D01*
X675638D01*
Y527066D01*
Y532144D01*
X668020D01*
X683255Y685800D02*
X668020D01*
X673098D01*
X683255Y675643D01*
X675638Y683261D01*
X668020Y675643D01*
Y670565D02*
X678177D01*
X683255Y665487D01*
X678177Y660408D01*
X668020D01*
X675638D01*
Y670565D01*
X668020Y655330D02*
X683255D01*
Y647712D01*
X680716Y645173D01*
X675638D01*
X673098Y647712D01*
Y655330D01*
Y650251D02*
X668020Y645173D01*
X683255Y640095D02*
Y635016D01*
Y637556D01*
X668020D01*
Y640095D01*
Y635016D01*
Y627399D02*
X683255D01*
X678177Y622321D01*
X683255Y617242D01*
X668020D01*
X1543558Y589783D02*
Y574548D01*
X1551176D01*
X1553715Y577087D01*
Y579626D01*
X1551176Y582165D01*
X1543558D01*
X1551176D01*
X1553715Y584705D01*
Y587244D01*
X1551176Y589783D01*
X1543558D01*
X1558793Y574548D02*
X1563871D01*
X1561332D01*
Y589783D01*
X1558793Y587244D01*
X1104646Y1276604D02*
Y1291839D01*
X1112263D01*
X1114803Y1289300D01*
Y1284221D01*
X1112263Y1281682D01*
X1104646D01*
X1119881Y1276604D02*
X1124959D01*
X1122420D01*
Y1291839D01*
X1119881Y1289300D01*
X965959Y1240786D02*
X963419Y1243325D01*
X958341D01*
X955802Y1240786D01*
Y1238247D01*
X958341Y1235707D01*
X963419D01*
X965959Y1233168D01*
Y1230629D01*
X963419Y1228090D01*
X958341D01*
X955802Y1230629D01*
X971037Y1238247D02*
Y1230629D01*
X973576Y1228090D01*
X976115Y1230629D01*
X978655Y1228090D01*
X981194Y1230629D01*
Y1238247D01*
X986272Y1228090D02*
X991350D01*
X988811D01*
Y1238247D01*
X986272D01*
X1001507Y1240786D02*
Y1238247D01*
X998968D01*
X1004046D01*
X1001507D01*
Y1230629D01*
X1004046Y1228090D01*
X1021821Y1238247D02*
X1014203D01*
X1011664Y1235707D01*
Y1230629D01*
X1014203Y1228090D01*
X1021821D01*
X1026899Y1243325D02*
Y1228090D01*
Y1235707D01*
X1029438Y1238247D01*
X1034517D01*
X1037056Y1235707D01*
Y1228090D01*
X1042134D02*
X1047212D01*
X1044673D01*
Y1243325D01*
X1042134Y1240786D01*
X1441450Y572765D02*
Y560069D01*
X1443989Y557530D01*
X1449068D01*
X1451607Y560069D01*
Y572765D01*
X1047493Y390140D02*
X1044954Y392679D01*
X1039875D01*
X1037336Y390140D01*
Y387601D01*
X1039875Y385061D01*
X1044954D01*
X1047493Y382522D01*
Y379983D01*
X1044954Y377444D01*
X1039875D01*
X1037336Y379983D01*
X1052571Y392679D02*
Y377444D01*
X1057649Y382522D01*
X1062728Y377444D01*
Y392679D01*
X1067806Y377444D02*
X1072885D01*
X1070345D01*
Y392679D01*
X1067806Y390140D01*
X854456Y360680D02*
Y375915D01*
X862074D01*
X864613Y373376D01*
Y368298D01*
X862074Y365758D01*
X854456D01*
X859534D02*
X864613Y360680D01*
X879848D02*
X869691D01*
X879848Y370837D01*
Y373376D01*
X877309Y375915D01*
X872230D01*
X869691Y373376D01*
X1226566Y356616D02*
Y371851D01*
X1234184D01*
X1236723Y369312D01*
Y364234D01*
X1234184Y361694D01*
X1226566D01*
X1231644D02*
X1236723Y356616D01*
X1241801D02*
X1246879D01*
X1244340D01*
Y371851D01*
X1241801Y369312D01*
X775205Y1041649D02*
X770126D01*
X772665D01*
Y1028953D01*
X770126Y1026414D01*
X767587D01*
X765048Y1028953D01*
X790440Y1041649D02*
X780283D01*
Y1034032D01*
X785361Y1036571D01*
X787901D01*
X790440Y1034032D01*
Y1028953D01*
X787901Y1026414D01*
X782822D01*
X780283Y1028953D01*
X1327655Y1034537D02*
X1322576D01*
X1325116D01*
Y1021841D01*
X1322576Y1019302D01*
X1320037D01*
X1317498Y1021841D01*
X1340351Y1019302D02*
Y1034537D01*
X1332733Y1026919D01*
X1342890D01*
X765807Y647187D02*
X760728D01*
X763268D01*
Y634491D01*
X760728Y631952D01*
X758189D01*
X755650Y634491D01*
X770885Y644648D02*
X773424Y647187D01*
X778503D01*
X781042Y644648D01*
Y642109D01*
X778503Y639570D01*
X775963D01*
X778503D01*
X781042Y637030D01*
Y634491D01*
X778503Y631952D01*
X773424D01*
X770885Y634491D01*
X1329687Y641091D02*
X1324608D01*
X1327148D01*
Y628395D01*
X1324608Y625856D01*
X1322069D01*
X1319530Y628395D01*
X1344922Y625856D02*
X1334765D01*
X1344922Y636013D01*
Y638552D01*
X1342383Y641091D01*
X1337304D01*
X1334765Y638552D01*
X769109Y1209035D02*
X764030D01*
X766570D01*
Y1196339D01*
X764030Y1193800D01*
X761491D01*
X758952Y1196339D01*
X774187Y1193800D02*
X779265D01*
X776726D01*
Y1209035D01*
X774187Y1206496D01*
X919480Y1091941D02*
X924558D01*
X922019D01*
Y1076706D01*
X919480D01*
X924558D01*
X942333Y1089402D02*
X939793Y1091941D01*
X934715D01*
X932176Y1089402D01*
Y1079245D01*
X934715Y1076706D01*
X939793D01*
X942333Y1079245D01*
X947411Y1076706D02*
X952489D01*
X949950D01*
Y1091941D01*
X947411Y1089402D01*
X780288Y368803D02*
Y353568D01*
X787906D01*
X790445Y356107D01*
Y366264D01*
X787906Y368803D01*
X780288D01*
X795523Y353568D02*
X800601D01*
X798062D01*
Y368803D01*
X795523Y366264D01*
X1321305Y785618D02*
X1318766Y788157D01*
X1313687D01*
X1311148Y785618D01*
Y775461D01*
X1313687Y772922D01*
X1318766D01*
X1321305Y775461D01*
X1326383Y772922D02*
Y788157D01*
X1334001D01*
X1336540Y785618D01*
Y780539D01*
X1334001Y778000D01*
X1326383D01*
X1331461D02*
X1336540Y772922D01*
X1341618D02*
X1346696D01*
X1344157D01*
Y788157D01*
X1341618Y785618D01*
X1147823Y366264D02*
X1145284Y368803D01*
X1140205D01*
X1137666Y366264D01*
Y356107D01*
X1140205Y353568D01*
X1145284D01*
X1147823Y356107D01*
X1160519Y353568D02*
Y368803D01*
X1152901Y361185D01*
X1163058D01*
X1427223Y716530D02*
X1424684Y719069D01*
X1419605D01*
X1417066Y716530D01*
Y706373D01*
X1419605Y703834D01*
X1424684D01*
X1427223Y706373D01*
X1432301Y716530D02*
X1434840Y719069D01*
X1439919D01*
X1442458Y716530D01*
Y713991D01*
X1439919Y711451D01*
X1437379D01*
X1439919D01*
X1442458Y708912D01*
Y706373D01*
X1439919Y703834D01*
X1434840D01*
X1432301Y706373D01*
X1429255Y779014D02*
X1426716Y781553D01*
X1421637D01*
X1419098Y779014D01*
Y768857D01*
X1421637Y766318D01*
X1426716D01*
X1429255Y768857D01*
X1444490Y766318D02*
X1434333D01*
X1444490Y776475D01*
Y779014D01*
X1441951Y781553D01*
X1436872D01*
X1434333Y779014D01*
X759965Y796540D02*
X757426Y799079D01*
X752347D01*
X749808Y796540D01*
Y786383D01*
X752347Y783844D01*
X757426D01*
X759965Y786383D01*
X765043Y783844D02*
X770121D01*
X767582D01*
Y799079D01*
X765043Y796540D01*
D12*
X763300Y1180300D02*
G03*
X763300Y1180300I-1000J0D01*
G01*
X1085050Y323500D02*
G03*
X1085050Y323500I-17550J0D01*
G01*
X794340Y337000D02*
G03*
X825660Y337000I15660J-25061D01*
G01*
X809700Y1056700D02*
Y1183700D01*
X758900D02*
X809700D01*
X758900Y1056700D02*
Y1183700D01*
Y1056700D02*
X809700D01*
X1343700Y412300D02*
Y615500D01*
X1320300Y412300D02*
Y615500D01*
X1343700D01*
X1320300Y412300D02*
X1343700D01*
X779810Y418480D02*
Y621680D01*
X756410Y418480D02*
Y621680D01*
X779810D01*
X756410Y418480D02*
X779810D01*
X1341700Y805700D02*
Y1008900D01*
X1318300Y805700D02*
Y1008900D01*
X1341700D01*
X1318300Y805700D02*
X1341700D01*
X765300Y807100D02*
Y1010300D01*
X788700Y807100D02*
Y1010300D01*
X765300Y807100D02*
X788700D01*
X765300Y1010300D02*
X788700D01*
X1056000Y353450D02*
X1079000D01*
X1037550Y300500D02*
Y346500D01*
X1056000Y293500D02*
X1079000D01*
X1097450Y300500D02*
Y345500D01*
X794340Y337000D02*
X825660D01*
D13*
X1333000Y405800D02*
G03*
X1333000Y405800I-1000J0D01*
G01*
X769110Y411980D02*
G03*
X769110Y411980I-1000J0D01*
G01*
X1331000Y799200D02*
G03*
X1331000Y799200I-1000J0D01*
G01*
X778000Y1016800D02*
G03*
X778000Y1016800I-1000J0D01*
G01*
X1091000Y367950D02*
G03*
X1091000Y367950I-1000J0D01*
G01*
X811000Y344000D02*
G03*
X811000Y344000I-1000J0D01*
G01*
X652000Y253000D02*
X1685000D01*
X652000Y1269000D02*
X1685000D01*
Y253000D02*
Y1269000D01*
X652000Y253000D02*
Y1269000D01*
X1103000Y1078000D02*
Y1268000D01*
X1223000Y1078000D02*
Y1268000D01*
X1103000Y1078000D02*
X1223000D01*
X1103000Y1268000D02*
X1223000D01*
X1267750Y308250D02*
Y321000D01*
Y308250D02*
X1280000D01*
X1326000D01*
X1344250D01*
Y334750D01*
X1267750D02*
X1279000D01*
X1292500D01*
X1319500D01*
X1344250D01*
X1267750Y321000D02*
Y334750D01*
X1344250Y321000D02*
X1370000D01*
X1242000D02*
X1267750D01*
X748190Y651210D02*
X798190D01*
X748190Y760210D02*
Y775210D01*
X798190D01*
Y760210D02*
Y775210D01*
X748190Y651210D02*
Y768210D01*
X798190Y651210D02*
Y761210D01*
X1541460Y707790D02*
Y757790D01*
X1417460Y707790D02*
X1432460D01*
X1417460D02*
Y757790D01*
X1432460D01*
X1424460Y707790D02*
X1541460D01*
X1431460Y757790D02*
X1541460D01*
X1539590Y645290D02*
Y695290D01*
X1415590Y645290D02*
X1430590D01*
X1415590D02*
Y695290D01*
X1430590D01*
X1422590Y645290D02*
X1539590D01*
X1429590Y695290D02*
X1539590D01*
X1186920Y327000D02*
X1197080D01*
X1192000Y321920D02*
Y332080D01*
X895750Y312250D02*
Y325000D01*
Y312250D02*
X908000D01*
X954000D01*
X972250D01*
Y338750D01*
X895750D02*
X907000D01*
X920500D01*
X947500D01*
X972250D01*
X895750Y325000D02*
Y338750D01*
X972250Y325000D02*
X998000D01*
X870000D02*
X895750D01*
M02*
