%TF.GenerationSoftware,Altium Limited,Altium Designer,22.8.2 (66)*%
G04 Layer_Color=65535*
%FSLAX45Y45*%
%MOMM*%
%TF.SameCoordinates,FB7AEFDD-F9D1-43F8-8D2B-1616BFC5D0C0*%
%TF.FilePolarity,Positive*%
%TF.FileFunction,Legend,Top*%
%TF.Part,Single*%
G01*
G75*
%TA.AperFunction,NonConductor*%
%ADD39C,0.15240*%
%ADD40C,0.25400*%
%ADD41C,0.12700*%
%ADD42C,0.20000*%
D39*
X10368480Y4958100D02*
G03*
X10307520Y4958100I-30480J0D01*
G01*
X11036500Y10114300D02*
Y10215900D01*
Y4958100D02*
Y5041920D01*
X10368480Y4958100D02*
X11036500D01*
X10307520D02*
X10368480D01*
X9639500D02*
X10307520D01*
X9639500Y10114300D02*
Y10215900D01*
X11036500D01*
X9639500Y4958100D02*
Y5059700D01*
D40*
X11800000Y3210000D02*
G03*
X11800000Y3210000I-200000J0D01*
G01*
X9180999Y4170700D02*
X11481000D01*
X11493700D02*
Y10660400D01*
X9182300D02*
X11493700D01*
X9180999Y4170700D02*
Y10659100D01*
X9182300Y10660400D01*
X9546198Y12192302D02*
X10246202D01*
X9546198Y11442301D02*
X10246202D01*
X9546198D02*
Y12192302D01*
X10246202Y11442301D02*
Y12192302D01*
X14603874Y5741398D02*
X15113876D01*
X14603874Y4421401D02*
Y5741398D01*
Y4421401D02*
X15113876D01*
Y5741398D01*
X13097697Y7639898D02*
X13597702D01*
X13097697Y6499901D02*
Y7639898D01*
Y6499901D02*
X13597702D01*
Y7639898D01*
X7023051Y11988825D02*
Y12039608D01*
X6997659Y12065000D01*
X6896092D01*
X6870700Y12039608D01*
Y11988825D01*
X6896092Y11963433D01*
X6997659D01*
X7023051Y11988825D01*
X6870700Y11912649D02*
Y11836474D01*
X6896092Y11811082D01*
X6921483Y11836474D01*
Y11887257D01*
X6946875Y11912649D01*
X6972267Y11887257D01*
Y11811082D01*
Y11734907D02*
Y11684123D01*
X6946875Y11658731D01*
X6870700D01*
Y11734907D01*
X6896092Y11760299D01*
X6921483Y11734907D01*
Y11658731D01*
X6870700Y11607948D02*
X6972267D01*
Y11582556D01*
X6946875Y11557164D01*
X6870700D01*
X6946875D01*
X6972267Y11531772D01*
X6946875Y11506381D01*
X6870700D01*
X6972267Y11430205D02*
Y11379422D01*
X6946875Y11354030D01*
X6870700D01*
Y11430205D01*
X6896092Y11455597D01*
X6921483Y11430205D01*
Y11354030D01*
X6959534Y10896600D02*
X6807183D01*
X6883359D01*
Y10795033D01*
X6959534D01*
X6807183D01*
X6908751Y10718857D02*
Y10668074D01*
X6883359Y10642682D01*
X6807183D01*
Y10718857D01*
X6832575Y10744249D01*
X6857967Y10718857D01*
Y10642682D01*
X6756400Y10541115D02*
Y10515723D01*
X6781792Y10490331D01*
X6908751D01*
Y10566507D01*
X6883359Y10591899D01*
X6832575D01*
X6807183Y10566507D01*
Y10490331D01*
Y10363372D02*
Y10414156D01*
X6832575Y10439548D01*
X6883359D01*
X6908751Y10414156D01*
Y10363372D01*
X6883359Y10337981D01*
X6857967D01*
Y10439548D01*
X6908751Y10287197D02*
X6807183D01*
X6857967D01*
X6883359Y10261805D01*
X6908751Y10236414D01*
Y10211022D01*
X6756400Y9804400D02*
X6857967D01*
X6908751Y9753617D01*
X6857967Y9702833D01*
X6756400D01*
X6832575D01*
Y9804400D01*
X6756400Y9652049D02*
Y9601266D01*
Y9626657D01*
X6908751D01*
Y9652049D01*
X6756400Y9525090D02*
Y9474307D01*
Y9499699D01*
X6857967D01*
Y9525090D01*
Y9372740D02*
Y9321956D01*
X6832575Y9296564D01*
X6756400D01*
Y9372740D01*
X6781792Y9398132D01*
X6807183Y9372740D01*
Y9296564D01*
X6857967Y9220389D02*
Y9169605D01*
X6832575Y9144214D01*
X6756400D01*
Y9220389D01*
X6781792Y9245781D01*
X6807183Y9220389D01*
Y9144214D01*
X6845251Y8750300D02*
X6692900D01*
Y8674125D01*
X6718292Y8648733D01*
X6819859D01*
X6845251Y8674125D01*
Y8750300D01*
X6692900Y8572557D02*
Y8521774D01*
X6718292Y8496382D01*
X6769075D01*
X6794467Y8521774D01*
Y8572557D01*
X6769075Y8597949D01*
X6718292D01*
X6692900Y8572557D01*
X6794467Y8420207D02*
Y8369423D01*
X6769075Y8344031D01*
X6692900D01*
Y8420207D01*
X6718292Y8445599D01*
X6743683Y8420207D01*
Y8344031D01*
X6794467Y8267856D02*
Y8217072D01*
X6769075Y8191681D01*
X6692900D01*
Y8267856D01*
X6718292Y8293248D01*
X6743683Y8267856D01*
Y8191681D01*
X6845234Y7835900D02*
X6692883D01*
X6769059D01*
Y7734333D01*
X6845234D01*
X6692883D01*
X6794451Y7658157D02*
Y7607374D01*
X6769059Y7581982D01*
X6692883D01*
Y7658157D01*
X6718275Y7683549D01*
X6743667Y7658157D01*
Y7581982D01*
X6845234Y7429631D02*
X6692883D01*
Y7505807D01*
X6718275Y7531199D01*
X6769059D01*
X6794451Y7505807D01*
Y7429631D01*
Y7378848D02*
X6718275D01*
X6692883Y7353456D01*
Y7277281D01*
X6667492D01*
X6642100Y7302672D01*
Y7328064D01*
X6692883Y7277281D02*
X6794451D01*
X6832551Y5753100D02*
X6680200D01*
Y5676925D01*
X6705592Y5651533D01*
X6807159D01*
X6832551Y5676925D01*
Y5753100D01*
Y5499182D02*
Y5600749D01*
X6680200D01*
Y5499182D01*
X6756375Y5600749D02*
Y5549966D01*
X6832551Y5448399D02*
Y5397615D01*
Y5423007D01*
X6680200D01*
Y5448399D01*
Y5397615D01*
X6832551Y5219872D02*
Y5321440D01*
X6756375D01*
Y5270656D01*
Y5321440D01*
X6680200D01*
X6832551Y6858000D02*
X6680200D01*
X6730983D01*
X6832551Y6756433D01*
X6756375Y6832608D01*
X6680200Y6756433D01*
Y6705649D02*
X6781767D01*
X6832551Y6654866D01*
X6781767Y6604082D01*
X6680200D01*
X6756375D01*
Y6705649D01*
X6680200Y6553299D02*
X6832551D01*
Y6477123D01*
X6807159Y6451731D01*
X6756375D01*
X6730983Y6477123D01*
Y6553299D01*
Y6502515D02*
X6680200Y6451731D01*
X6832551Y6400948D02*
Y6350164D01*
Y6375556D01*
X6680200D01*
Y6400948D01*
Y6350164D01*
Y6273989D02*
X6832551D01*
X6781767Y6223205D01*
X6832551Y6172422D01*
X6680200D01*
X15435580Y5897831D02*
Y5745480D01*
X15511755D01*
X15537148Y5770872D01*
Y5796263D01*
X15511755Y5821655D01*
X15435580D01*
X15511755D01*
X15537148Y5847047D01*
Y5872439D01*
X15511755Y5897831D01*
X15435580D01*
X15587930Y5745480D02*
X15638715D01*
X15613322D01*
Y5897831D01*
X15587930Y5872439D01*
X11046460Y12766040D02*
Y12918391D01*
X11122635D01*
X11148027Y12892999D01*
Y12842215D01*
X11122635Y12816823D01*
X11046460D01*
X11198811Y12766040D02*
X11249594D01*
X11224203D01*
Y12918391D01*
X11198811Y12892999D01*
X9659587Y12407859D02*
X9634195Y12433251D01*
X9583412D01*
X9558020Y12407859D01*
Y12382467D01*
X9583412Y12357075D01*
X9634195D01*
X9659587Y12331683D01*
Y12306292D01*
X9634195Y12280900D01*
X9583412D01*
X9558020Y12306292D01*
X9710371Y12382467D02*
Y12306292D01*
X9735763Y12280900D01*
X9761154Y12306292D01*
X9786546Y12280900D01*
X9811938Y12306292D01*
Y12382467D01*
X9862721Y12280900D02*
X9913505D01*
X9888113D01*
Y12382467D01*
X9862721D01*
X10015072Y12407859D02*
Y12382467D01*
X9989680D01*
X10040464D01*
X10015072D01*
Y12306292D01*
X10040464Y12280900D01*
X10218206Y12382467D02*
X10142031D01*
X10116639Y12357075D01*
Y12306292D01*
X10142031Y12280900D01*
X10218206D01*
X10268990Y12433251D02*
Y12280900D01*
Y12357075D01*
X10294382Y12382467D01*
X10345165D01*
X10370557Y12357075D01*
Y12280900D01*
X10421341D02*
X10472124D01*
X10446732D01*
Y12433251D01*
X10421341Y12407859D01*
X14414500Y5727651D02*
Y5600692D01*
X14439893Y5575300D01*
X14490675D01*
X14516068Y5600692D01*
Y5727651D01*
X10474927Y3901399D02*
X10449535Y3926791D01*
X10398752D01*
X10373360Y3901399D01*
Y3876007D01*
X10398752Y3850615D01*
X10449535D01*
X10474927Y3825223D01*
Y3799832D01*
X10449535Y3774440D01*
X10398752D01*
X10373360Y3799832D01*
X10525711Y3926791D02*
Y3774440D01*
X10576494Y3825223D01*
X10627278Y3774440D01*
Y3926791D01*
X10678061Y3774440D02*
X10728845D01*
X10703453D01*
Y3926791D01*
X10678061Y3901399D01*
X8544560Y3606800D02*
Y3759151D01*
X8620735D01*
X8646127Y3733759D01*
Y3682975D01*
X8620735Y3657583D01*
X8544560D01*
X8595343D02*
X8646127Y3606800D01*
X8798478D02*
X8696911D01*
X8798478Y3708367D01*
Y3733759D01*
X8773086Y3759151D01*
X8722303D01*
X8696911Y3733759D01*
X12265660Y3566160D02*
Y3718511D01*
X12341835D01*
X12367227Y3693119D01*
Y3642335D01*
X12341835Y3616943D01*
X12265660D01*
X12316443D02*
X12367227Y3566160D01*
X12418011D02*
X12468794D01*
X12443403D01*
Y3718511D01*
X12418011Y3693119D01*
X7752047Y10416491D02*
X7701263D01*
X7726655D01*
Y10289532D01*
X7701263Y10264140D01*
X7675872D01*
X7650480Y10289532D01*
X7904398Y10416491D02*
X7802831D01*
Y10340315D01*
X7853614Y10365707D01*
X7879006D01*
X7904398Y10340315D01*
Y10289532D01*
X7879006Y10264140D01*
X7828223D01*
X7802831Y10289532D01*
X13276547Y10345371D02*
X13225763D01*
X13251155D01*
Y10218412D01*
X13225763Y10193020D01*
X13200372D01*
X13174980Y10218412D01*
X13403506Y10193020D02*
Y10345371D01*
X13327332Y10269195D01*
X13428899D01*
X7658067Y6471871D02*
X7607283D01*
X7632675D01*
Y6344912D01*
X7607283Y6319520D01*
X7581892D01*
X7556500Y6344912D01*
X7708851Y6446479D02*
X7734243Y6471871D01*
X7785026D01*
X7810418Y6446479D01*
Y6421087D01*
X7785026Y6395695D01*
X7759634D01*
X7785026D01*
X7810418Y6370303D01*
Y6344912D01*
X7785026Y6319520D01*
X7734243D01*
X7708851Y6344912D01*
X13296867Y6410911D02*
X13246083D01*
X13271475D01*
Y6283952D01*
X13246083Y6258560D01*
X13220692D01*
X13195300Y6283952D01*
X13449219Y6258560D02*
X13347652D01*
X13449219Y6360127D01*
Y6385519D01*
X13423827Y6410911D01*
X13373042D01*
X13347652Y6385519D01*
X7691087Y12090351D02*
X7640303D01*
X7665695D01*
Y11963392D01*
X7640303Y11938000D01*
X7614912D01*
X7589520Y11963392D01*
X7741871Y11938000D02*
X7792654D01*
X7767263D01*
Y12090351D01*
X7741871Y12064959D01*
X9194800Y10919411D02*
X9245583D01*
X9220192D01*
Y10767060D01*
X9194800D01*
X9245583D01*
X9423326Y10894019D02*
X9397934Y10919411D01*
X9347151D01*
X9321759Y10894019D01*
Y10792452D01*
X9347151Y10767060D01*
X9397934D01*
X9423326Y10792452D01*
X9474110Y10767060D02*
X9524893D01*
X9499501D01*
Y10919411D01*
X9474110Y10894019D01*
X7802880Y3688031D02*
Y3535680D01*
X7879055D01*
X7904447Y3561072D01*
Y3662639D01*
X7879055Y3688031D01*
X7802880D01*
X7955231Y3535680D02*
X8006014D01*
X7980623D01*
Y3688031D01*
X7955231Y3662639D01*
X13213046Y7856179D02*
X13187656Y7881571D01*
X13136871D01*
X13111481Y7856179D01*
Y7754612D01*
X13136871Y7729220D01*
X13187656D01*
X13213046Y7754612D01*
X13263831Y7729220D02*
Y7881571D01*
X13340005D01*
X13365398Y7856179D01*
Y7805395D01*
X13340005Y7780003D01*
X13263831D01*
X13314613D02*
X13365398Y7729220D01*
X13416180D02*
X13466965D01*
X13441573D01*
Y7881571D01*
X13416180Y7856179D01*
X11478227Y3662639D02*
X11452835Y3688031D01*
X11402052D01*
X11376660Y3662639D01*
Y3561072D01*
X11402052Y3535680D01*
X11452835D01*
X11478227Y3561072D01*
X11605186Y3535680D02*
Y3688031D01*
X11529011Y3611855D01*
X11630578D01*
X14272227Y7165299D02*
X14246835Y7190691D01*
X14196053D01*
X14170660Y7165299D01*
Y7063732D01*
X14196053Y7038340D01*
X14246835D01*
X14272227Y7063732D01*
X14323010Y7165299D02*
X14348402Y7190691D01*
X14399187D01*
X14424577Y7165299D01*
Y7139907D01*
X14399187Y7114515D01*
X14373795D01*
X14399187D01*
X14424577Y7089123D01*
Y7063732D01*
X14399187Y7038340D01*
X14348402D01*
X14323010Y7063732D01*
X14292548Y7790139D02*
X14267155Y7815531D01*
X14216373D01*
X14190981Y7790139D01*
Y7688572D01*
X14216373Y7663180D01*
X14267155D01*
X14292548Y7688572D01*
X14444897Y7663180D02*
X14343330D01*
X14444897Y7764747D01*
Y7790139D01*
X14419505Y7815531D01*
X14368723D01*
X14343330Y7790139D01*
X7599647Y7965399D02*
X7574255Y7990791D01*
X7523472D01*
X7498080Y7965399D01*
Y7863832D01*
X7523472Y7838440D01*
X7574255D01*
X7599647Y7863832D01*
X7650431Y7838440D02*
X7701214D01*
X7675823D01*
Y7990791D01*
X7650431Y7965399D01*
D41*
X7633000Y11803000D02*
G03*
X7633000Y11803000I-10000J0D01*
G01*
X10850500Y3235000D02*
G03*
X10850500Y3235000I-175500J0D01*
G01*
X7943400Y3370000D02*
G03*
X8256600Y3370000I156600J-250612D01*
G01*
X8097000Y10567000D02*
Y11837000D01*
X7589000D02*
X8097000D01*
X7589000Y10567000D02*
Y11837000D01*
Y10567000D02*
X8097000D01*
X13437003Y4123000D02*
Y6155000D01*
X13203003Y4123000D02*
Y6155000D01*
X13437003D01*
X13203003Y4123000D02*
X13437003D01*
X7798103Y4184800D02*
Y6216800D01*
X7564102Y4184800D02*
Y6216800D01*
X7798103D01*
X7564102Y4184800D02*
X7798103D01*
X13417003Y8057000D02*
Y10089000D01*
X13183003Y8057000D02*
Y10089000D01*
X13417003D01*
X13183003Y8057000D02*
X13417003D01*
X7653002Y8071000D02*
Y10103000D01*
X7887003Y8071000D02*
Y10103000D01*
X7653002Y8071000D02*
X7887003D01*
X7653002Y10103000D02*
X7887003D01*
X10560002Y3534498D02*
X10789999D01*
X10375502Y3005000D02*
Y3464999D01*
X10560002Y2935003D02*
X10789999D01*
X10974500Y3005000D02*
Y3455001D01*
X7943399Y3370002D02*
X8256601D01*
D42*
X13330000Y4058000D02*
G03*
X13330000Y4058000I-10000J0D01*
G01*
X7691100Y4119800D02*
G03*
X7691100Y4119800I-10000J0D01*
G01*
X13310001Y7992000D02*
G03*
X13310001Y7992000I-10000J0D01*
G01*
X7780000Y10168000D02*
G03*
X7780000Y10168000I-10000J0D01*
G01*
X10910000Y3679500D02*
G03*
X10910000Y3679500I-10000J0D01*
G01*
X8110000Y3440000D02*
G03*
X8110000Y3440000I-10000J0D01*
G01*
X6520000Y2530000D02*
X16850000D01*
X6520000Y12690000D02*
X16850000D01*
Y2530000D02*
Y12690000D01*
X6520000Y2530000D02*
Y12690000D01*
X11030001Y10779999D02*
Y12680001D01*
X12229999Y10779999D02*
Y12680001D01*
X11030001Y10779999D02*
X12229999D01*
X11030001Y12680001D02*
X12229999D01*
X12677497Y3082502D02*
Y3210000D01*
Y3082502D02*
X12800002D01*
X13260001D01*
X13442500D01*
Y3347500D01*
X12677497D02*
X12789999D01*
X12925000D01*
X13195003D01*
X13442500D01*
X12677497Y3210000D02*
Y3347500D01*
X13442500Y3210000D02*
X13700000D01*
X12419997D02*
X12677497D01*
X7481898Y6512101D02*
X7981902D01*
X7481898Y7602101D02*
Y7752098D01*
X7981902D01*
Y7602101D02*
Y7752098D01*
X7481898Y6512101D02*
Y7682101D01*
X7981902Y6512101D02*
Y7612098D01*
X15414600Y7077898D02*
Y7577902D01*
X14174602Y7077898D02*
X14324599D01*
X14174602D02*
Y7577902D01*
X14324599D01*
X14244598Y7077898D02*
X15414600D01*
X14314603Y7577902D02*
X15414600D01*
X15395900Y6452900D02*
Y6952899D01*
X14155898Y6452900D02*
X14305901D01*
X14155898D02*
Y6952899D01*
X14305901D01*
X14225900Y6452900D02*
X15395900D01*
X14295901Y6952899D02*
X15395900D01*
X11869199Y3270000D02*
X11970799D01*
X11919999Y3219200D02*
Y3320800D01*
X8957503Y3122502D02*
Y3250000D01*
Y3122502D02*
X9080002D01*
X9540001D01*
X9722500D01*
Y3387500D01*
X8957503D02*
X9069999D01*
X9205000D01*
X9475002D01*
X9722500D01*
X8957503Y3250000D02*
Y3387500D01*
X9722500Y3250000D02*
X9980000D01*
X8700002D02*
X8957503D01*
%TF.MD5,dfc46433831c7db5bf459ae699ac9f8b*%
M02*
