G04*
G04 #@! TF.GenerationSoftware,Altium Limited,Altium Designer,22.8.2 (66)*
G04*
G04 Layer_Color=128*
%FSLAX44Y44*%
%MOMM*%
G71*
G04*
G04 #@! TF.SameCoordinates,239B72BE-1975-44D0-A8EA-8DBFC20476F2*
G04*
G04*
G04 #@! TF.FilePolarity,Positive*
G04*
G01*
G75*
%ADD43C,0.0508*%
D43*
X1545000Y560000D02*
X1551000D01*
X1548000Y557000D02*
Y563000D01*
X1615000Y560000D02*
X1621000D01*
X1618000Y557000D02*
Y563000D01*
X1496788Y482740D02*
X1504788D01*
X1500788Y478740D02*
Y486740D01*
X1162000Y1169000D02*
X1172000D01*
X1167000Y1164000D02*
Y1174000D01*
X1162000Y1109000D02*
X1172000D01*
X1167000Y1104000D02*
Y1114000D01*
X1114000Y1134000D02*
X1124000D01*
X1119000Y1129000D02*
Y1139000D01*
X952012Y517400D02*
X963188D01*
X957600Y511812D02*
Y522988D01*
X952012Y542800D02*
X963188D01*
X957600Y537212D02*
Y548388D01*
X952012Y568200D02*
X963188D01*
X957600Y562612D02*
Y573788D01*
X952012Y593600D02*
X963188D01*
X957600Y588012D02*
Y599188D01*
X952012Y619000D02*
X963188D01*
X957600Y613412D02*
Y624588D01*
X952012Y644400D02*
X963188D01*
X957600Y638812D02*
Y649988D01*
X952012Y669800D02*
X963188D01*
X957600Y664212D02*
Y675388D01*
X952012Y695200D02*
X963188D01*
X957600Y689612D02*
Y700788D01*
X952012Y720600D02*
X963188D01*
X957600Y715012D02*
Y726188D01*
X952012Y746000D02*
X963188D01*
X957600Y740412D02*
Y751588D01*
X952012Y771400D02*
X963188D01*
X957600Y765812D02*
Y776988D01*
X952012Y796800D02*
X963188D01*
X957600Y791212D02*
Y802388D01*
X952012Y822200D02*
X963188D01*
X957600Y816612D02*
Y827788D01*
X952012Y847600D02*
X963188D01*
X957600Y842012D02*
Y853188D01*
X952012Y873000D02*
X963188D01*
X957600Y867412D02*
Y878588D01*
X952012Y898400D02*
X963188D01*
X957600Y892812D02*
Y903988D01*
X952012Y923800D02*
X963188D01*
X957600Y918212D02*
Y929388D01*
X952012Y949200D02*
X963188D01*
X957600Y943612D02*
Y954788D01*
X952012Y974600D02*
X963188D01*
X957600Y969012D02*
Y980188D01*
X952012Y1000000D02*
X963188D01*
X957600Y994412D02*
Y1005588D01*
X1104412Y1000000D02*
X1115588D01*
X1110000Y994412D02*
Y1005588D01*
X1104412Y974600D02*
X1115588D01*
X1110000Y969012D02*
Y980188D01*
X1104412Y949200D02*
X1115588D01*
X1110000Y943612D02*
Y954788D01*
X1104412Y923800D02*
X1115588D01*
X1110000Y918212D02*
Y929388D01*
X1104412Y898400D02*
X1115588D01*
X1110000Y892812D02*
Y903988D01*
X1104412Y873000D02*
X1115588D01*
X1110000Y867412D02*
Y878588D01*
X1104412Y847600D02*
X1115588D01*
X1110000Y842012D02*
Y853188D01*
X1104412Y822200D02*
X1115588D01*
X1110000Y816612D02*
Y827788D01*
X1104412Y796800D02*
X1115588D01*
X1110000Y791212D02*
Y802388D01*
X1104412Y771400D02*
X1115588D01*
X1110000Y765812D02*
Y776988D01*
X1104412Y746000D02*
X1115588D01*
X1110000Y740412D02*
Y751588D01*
X1104412Y720600D02*
X1115588D01*
X1110000Y715012D02*
Y726188D01*
X1104412Y695200D02*
X1115588D01*
X1110000Y689612D02*
Y700788D01*
X1104412Y669800D02*
X1115588D01*
X1110000Y664212D02*
Y675388D01*
X1104412Y644400D02*
X1115588D01*
X1110000Y638812D02*
Y649988D01*
X1104412Y619000D02*
X1115588D01*
X1110000Y613412D02*
Y624588D01*
X1104412Y593600D02*
X1115588D01*
X1110000Y588012D02*
Y599188D01*
X1104412Y568200D02*
X1115588D01*
X1110000Y562612D02*
Y573788D01*
X1104412Y542800D02*
X1115588D01*
X1110000Y537212D02*
Y548388D01*
X1104412Y517400D02*
X1115588D01*
X1110000Y511812D02*
Y522988D01*
X1228000Y321000D02*
X1234000D01*
X1231000Y318000D02*
Y324000D01*
X1379000Y321000D02*
X1385000D01*
X1382000Y318000D02*
Y324000D01*
X769690Y662210D02*
X776690D01*
X773190Y658710D02*
Y665710D01*
X768690Y763210D02*
X775690D01*
X772190Y759710D02*
Y766710D01*
X1526960Y732790D02*
X1533960D01*
X1530460Y729290D02*
Y736290D01*
X1425960Y731790D02*
X1432960D01*
X1429460Y728290D02*
Y735290D01*
X1525090Y670290D02*
X1532090D01*
X1528590Y666790D02*
Y673790D01*
X1424090Y669290D02*
X1431090D01*
X1427590Y665790D02*
Y672790D01*
X1166500Y321000D02*
X1173500D01*
X1170000Y317500D02*
Y324500D01*
X1146500Y321000D02*
X1153500D01*
X1150000Y317500D02*
Y324500D01*
X856000Y325000D02*
X862000D01*
X859000Y322000D02*
Y328000D01*
X1007000Y325000D02*
X1013000D01*
X1010000Y322000D02*
Y328000D01*
X986120Y1204230D02*
X993120D01*
X989620Y1200730D02*
Y1207730D01*
X966120Y1204230D02*
X973120D01*
X969620Y1200730D02*
Y1207730D01*
X1006120Y1204230D02*
X1013120D01*
X1009620Y1200730D02*
Y1207730D01*
X1006120Y1159230D02*
X1013120D01*
X1009620Y1155730D02*
Y1162730D01*
X986120Y1159230D02*
X993120D01*
X989620Y1155730D02*
Y1162730D01*
X966120Y1159230D02*
X973120D01*
X969620Y1155730D02*
Y1162730D01*
X791500Y1069400D02*
X802500D01*
X797000Y1063900D02*
Y1074900D01*
X766100Y1069400D02*
X777100D01*
X771600Y1063900D02*
Y1074900D01*
X791500Y1094800D02*
X802500D01*
X797000Y1089300D02*
Y1100300D01*
X766100Y1094800D02*
X777100D01*
X771600Y1089300D02*
Y1100300D01*
X791500Y1120200D02*
X802500D01*
X797000Y1114700D02*
Y1125700D01*
X766100Y1120200D02*
X777100D01*
X771600Y1114700D02*
Y1125700D01*
X766100Y1145600D02*
X777100D01*
X771600Y1140100D02*
Y1151100D01*
X791500Y1171000D02*
X802500D01*
X797000Y1165500D02*
Y1176500D01*
X766100Y1171000D02*
X777100D01*
X771600Y1165500D02*
Y1176500D01*
X791500Y1145600D02*
X802500D01*
X797000Y1140100D02*
Y1151100D01*
X1496788Y457340D02*
X1504788D01*
X1500788Y453340D02*
Y461340D01*
X1496788Y508140D02*
X1504788D01*
X1500788Y504140D02*
Y512140D01*
X1496788Y533540D02*
X1504788D01*
X1500788Y529540D02*
Y537540D01*
X1496788Y558940D02*
X1504788D01*
X1500788Y554940D02*
Y562940D01*
X1471388Y457340D02*
X1479388D01*
X1475388Y453340D02*
Y461340D01*
X1471388Y482740D02*
X1479388D01*
X1475388Y478740D02*
Y486740D01*
X1471388Y508140D02*
X1479388D01*
X1475388Y504140D02*
Y512140D01*
X1471388Y533540D02*
X1479388D01*
X1475388Y529540D02*
Y537540D01*
X1471388Y558940D02*
X1479388D01*
X1475388Y554940D02*
Y562940D01*
X1328000Y577400D02*
X1336000D01*
X1332000Y573400D02*
Y581400D01*
X1328000Y552000D02*
X1336000D01*
X1332000Y548000D02*
Y556000D01*
X1328000Y526600D02*
X1336000D01*
X1332000Y522600D02*
Y530600D01*
X1328000Y501200D02*
X1336000D01*
X1332000Y497200D02*
Y505200D01*
X1328000Y475800D02*
X1336000D01*
X1332000Y471800D02*
Y479800D01*
X1328000Y450400D02*
X1336000D01*
X1332000Y446400D02*
Y454400D01*
X1328000Y425000D02*
X1336000D01*
X1332000Y421000D02*
Y429000D01*
X1328000Y602800D02*
X1336000D01*
X1332000Y598800D02*
Y606800D01*
X764110Y583580D02*
X772110D01*
X768110Y579580D02*
Y587580D01*
X764110Y558180D02*
X772110D01*
X768110Y554180D02*
Y562180D01*
X764110Y532780D02*
X772110D01*
X768110Y528780D02*
Y536780D01*
X764110Y507380D02*
X772110D01*
X768110Y503380D02*
Y511380D01*
X764110Y481980D02*
X772110D01*
X768110Y477980D02*
Y485980D01*
X764110Y456580D02*
X772110D01*
X768110Y452580D02*
Y460580D01*
X764110Y431180D02*
X772110D01*
X768110Y427180D02*
Y435180D01*
X764110Y608980D02*
X772110D01*
X768110Y604980D02*
Y612980D01*
X1331770Y681990D02*
X1337770D01*
X1334770Y678990D02*
Y684990D01*
X1331770Y731990D02*
X1337770D01*
X1334770Y728990D02*
Y734990D01*
X1326000Y970800D02*
X1334000D01*
X1330000Y966800D02*
Y974800D01*
X1326000Y945400D02*
X1334000D01*
X1330000Y941400D02*
Y949400D01*
X1326000Y920000D02*
X1334000D01*
X1330000Y916000D02*
Y924000D01*
X1326000Y894600D02*
X1334000D01*
X1330000Y890600D02*
Y898600D01*
X1326000Y869200D02*
X1334000D01*
X1330000Y865200D02*
Y873200D01*
X1326000Y843800D02*
X1334000D01*
X1330000Y839800D02*
Y847800D01*
X1326000Y818400D02*
X1334000D01*
X1330000Y814400D02*
Y822400D01*
X1326000Y996200D02*
X1334000D01*
X1330000Y992200D02*
Y1000200D01*
X773000Y845200D02*
X781000D01*
X777000Y841200D02*
Y849200D01*
X773000Y870600D02*
X781000D01*
X777000Y866600D02*
Y874600D01*
X773000Y896000D02*
X781000D01*
X777000Y892000D02*
Y900000D01*
X773000Y921400D02*
X781000D01*
X777000Y917400D02*
Y925400D01*
X773000Y946800D02*
X781000D01*
X777000Y942800D02*
Y950800D01*
X773000Y972200D02*
X781000D01*
X777000Y968200D02*
Y976200D01*
X773000Y997600D02*
X781000D01*
X777000Y993600D02*
Y1001600D01*
X773000Y819800D02*
X781000D01*
X777000Y815800D02*
Y823800D01*
X1085050Y291000D02*
X1094950D01*
X1090000Y286050D02*
Y295950D01*
X1040050Y291000D02*
X1049950D01*
X1045000Y286050D02*
Y295950D01*
X1085050Y356000D02*
X1094950D01*
X1090000Y351050D02*
Y360950D01*
X1040050Y356000D02*
X1049950D01*
X1045000Y351050D02*
Y360950D01*
X803950Y299300D02*
X816050D01*
X810000Y293250D02*
Y305350D01*
X803950Y324700D02*
X816050D01*
X810000Y318650D02*
Y330750D01*
M02*
