M48
;Layer_Color=9474304
;FILE_FORMAT=4:4
METRIC
;TYPE=PLATED
T1F00S00C0.6000
T2F00S00C0.7000
T3F00S00C0.8000
T4F00S00C0.9900
T6F00S00C1.1000
T7F00S00C1.1176
T8F00S00C1.2100
%
T01
X00859000Y00325000
X01010000
X01231000Y00321000
X01382000
X01618000Y00560000
X01548000
X01334770Y00681990
Y00731990
T02
X01150000Y00321000
X01170000
X01427590Y00669290
X01429460Y00731790
X01530460Y00732790
X01528590Y00670290
X00773190Y00662210
X00772190Y00763210
X00969620Y01159230
X00989620
X01009620
Y01204230
X00989620
X00969620
T03
X01332000Y00425000
Y00450400
Y00475800
Y00501200
Y00526600
Y00552000
Y00577400
Y00602800
X01475388Y00558940
X01500788
Y00533540
Y00508140
Y00482740
Y00457340
X01475388
Y00482740
Y00508140
Y00533540
X00768110Y00532780
Y00558180
Y00583580
Y00608980
Y00507380
Y00481980
Y00456580
Y00431180
X00777000Y00819800
Y00845200
Y00870600
Y00896000
Y00921400
Y00946800
Y00972200
Y00997600
X01330000Y00996200
Y00970800
Y00945400
Y00920000
Y00894600
Y00869200
Y00843800
Y00818400
T04
X01045000Y00291000
X01090000
Y00356000
X01045000
T06
X00771600Y01069400
Y01094800
Y01120200
Y01145600
Y01171000
X00797000
Y01145600
Y01120200
Y01094800
Y01069400
T07
X00957600Y00517400
Y00542800
Y00568200
Y00593600
Y00619000
Y00644400
Y00669800
Y00695200
Y00720600
Y00746000
Y00771400
X01110000
Y00746000
Y00720600
Y00695200
Y00669800
Y00644400
Y00619000
Y00593600
Y00568200
Y00542800
Y00517400
Y00796800
Y00822200
Y00847600
Y00873000
Y00898400
Y00923800
Y00949200
Y00974600
Y01000000
X00957600
Y00974600
Y00949200
Y00923800
Y00898400
Y00873000
Y00847600
Y00822200
Y00796800
T08
X00810000Y00299300
Y00324700
M30
