%TF.GenerationSoftware,Altium Limited,Altium Designer,22.8.2 (66)*%
G04 Layer_Physical_Order=2*
G04 Layer_Color=16711680*
%FSLAX45Y45*%
%MOMM*%
%TF.SameCoordinates,FB7AEFDD-F9D1-43F8-8D2B-1616BFC5D0C0*%
%TF.FilePolarity,Positive*%
%TF.FileFunction,Copper,L2,Bot,Signal*%
%TF.Part,Single*%
G01*
G75*
%TA.AperFunction,Conductor*%
%ADD10C,0.60000*%
%TA.AperFunction,ComponentPad*%
%ADD11C,1.20000*%
%ADD12C,1.60000*%
%ADD13O,4.00000X2.00000*%
%ADD14O,2.00000X3.50000*%
%ADD15C,1.67640*%
%ADD16R,1.67640X1.67640*%
%ADD17C,1.52400*%
%ADD18R,1.40000X1.40000*%
%ADD19C,1.40000*%
%ADD20C,1.65000*%
%ADD21C,1.49800*%
%ADD22R,1.49800X1.49800*%
%ADD23C,1.81500*%
%ADD24R,1.81500X1.81500*%
G36*
X16850000Y2530000D02*
X6520000D01*
Y12690000D01*
X16850000D01*
Y2530000D01*
D02*
G37*
%LPC*%
G36*
X8830000Y12346486D02*
X8829999Y12346485D01*
X7235149D01*
X7235147Y12346486D01*
X7213531Y12342186D01*
X7195206Y12329941D01*
X7195206Y12329941D01*
X7160059Y12294794D01*
X7147815Y12276469D01*
X7143515Y12254853D01*
X7143515Y12254852D01*
Y7678990D01*
X7143515Y7678989D01*
X7143515Y7678988D01*
X7143515Y3220000D01*
X7143515Y3219999D01*
Y2709999D01*
X7147815Y2688383D01*
X7160059Y2670058D01*
X7178384Y2657814D01*
X7200000Y2653514D01*
X9320000D01*
X9920000Y2653514D01*
X13784851D01*
X13784853Y2653514D01*
X13806468Y2657814D01*
X13824794Y2670058D01*
X13859940Y2705205D01*
X13859941Y2705206D01*
X13872185Y2723531D01*
X13876485Y2745147D01*
X13876485Y2745148D01*
Y3145712D01*
X13884288Y3153515D01*
X16304852D01*
X16304852Y3153514D01*
X16326469Y3157814D01*
X16344794Y3170059D01*
X16379941Y3205205D01*
X16379941Y3205206D01*
X16392186Y3223531D01*
X16396486Y3245147D01*
X16396484Y3245148D01*
Y5559999D01*
X16396486Y5560000D01*
X16392186Y5581616D01*
X16379941Y5599941D01*
X16379941Y5599942D01*
X16339941Y5639941D01*
X16321616Y5652186D01*
X16300000Y5656486D01*
X16299998Y5656485D01*
X16244289D01*
X16232437Y5668337D01*
X16212962Y5679580D01*
X16191243Y5685400D01*
X16168758D01*
X16147037Y5679580D01*
X16127563Y5668337D01*
X16111662Y5652437D01*
X16100420Y5632963D01*
X16094600Y5611243D01*
Y5588757D01*
X16100420Y5567037D01*
X16111662Y5547563D01*
X16127563Y5531663D01*
X16147037Y5520420D01*
X16168758Y5514600D01*
X16191243D01*
X16212962Y5520420D01*
X16232437Y5531663D01*
X16244289Y5543515D01*
X16276604D01*
X16283514Y5536603D01*
Y3268544D01*
X16281456Y3266485D01*
X13884288D01*
X13872437Y3278337D01*
X13852963Y3289580D01*
X13831242Y3295400D01*
X13808755D01*
X13787036Y3289580D01*
X13767563Y3278337D01*
X13751663Y3262437D01*
X13740421Y3242963D01*
X13734599Y3221243D01*
Y3198757D01*
X13740421Y3177037D01*
X13751663Y3157563D01*
X13763515Y3145712D01*
Y2768544D01*
X13761455Y2766485D01*
X9920000D01*
X9320000Y2766485D01*
X8156485D01*
Y2891494D01*
X8171318Y2900057D01*
X8192943Y2921682D01*
X8208235Y2948168D01*
X8216150Y2977709D01*
Y3008291D01*
X8208235Y3037832D01*
X8192943Y3064318D01*
X8171318Y3085943D01*
X8144832Y3101235D01*
X8115291Y3109150D01*
X8084709D01*
X8055168Y3101235D01*
X8028682Y3085943D01*
X8007057Y3064318D01*
X7991766Y3037832D01*
X7983850Y3008291D01*
Y2977709D01*
X7991766Y2948168D01*
X8007057Y2921682D01*
X8028682Y2900057D01*
X8043515Y2891494D01*
Y2766485D01*
X7256485D01*
Y3248247D01*
X7256485Y3248249D01*
X7256485Y7655592D01*
X7258544Y7657651D01*
X7629906D01*
X7637637Y7647576D01*
X7636503Y7643341D01*
Y7620855D01*
X7642323Y7599135D01*
X7653566Y7579661D01*
X7669466Y7563761D01*
X7688939Y7552518D01*
X7710659Y7546698D01*
X7733146D01*
X7754866Y7552518D01*
X7774339Y7563761D01*
X7790239Y7579661D01*
X7801482Y7599135D01*
X7807302Y7620855D01*
Y7643341D01*
X7806168Y7647576D01*
X7813899Y7657651D01*
X9482417D01*
X9488602Y7646937D01*
X9508937Y7626602D01*
X9533843Y7612223D01*
X9561621Y7604780D01*
X9590379D01*
X9618157Y7612223D01*
X9643063Y7626602D01*
X9663397Y7646937D01*
X9669504Y7657515D01*
X10042603D01*
X10240118Y7460000D01*
X10042603Y7262485D01*
X9669504D01*
X9663397Y7273063D01*
X9643063Y7293398D01*
X9618157Y7307777D01*
X9590379Y7315220D01*
X9561621D01*
X9533843Y7307777D01*
X9508937Y7293398D01*
X9488602Y7273063D01*
X9474223Y7248157D01*
X9466780Y7220379D01*
Y7191621D01*
X9474223Y7163843D01*
X9488602Y7138937D01*
X9508937Y7118602D01*
X9533843Y7104223D01*
X9561621Y7096780D01*
X9590379D01*
X9618157Y7104223D01*
X9643063Y7118602D01*
X9663397Y7138937D01*
X9669504Y7149515D01*
X10065999D01*
X10066000Y7149515D01*
X10087616Y7153814D01*
X10105941Y7166059D01*
X10343397Y7403515D01*
X11006495D01*
X11012602Y7392937D01*
X11032937Y7372602D01*
X11057843Y7358223D01*
X11085621Y7350780D01*
X11114379D01*
X11142157Y7358223D01*
X11167063Y7372602D01*
X11187397Y7392937D01*
X11201777Y7417843D01*
X11209220Y7445621D01*
Y7474379D01*
X11201777Y7502157D01*
X11187397Y7527063D01*
X11167063Y7547398D01*
X11142157Y7561777D01*
X11114379Y7569220D01*
X11085621D01*
X11057843Y7561777D01*
X11032937Y7547398D01*
X11012602Y7527063D01*
X11006495Y7516485D01*
X10343397D01*
X10105941Y7753941D01*
X10087616Y7766186D01*
X10066000Y7770486D01*
X10065999Y7770485D01*
X9669504D01*
X9663397Y7781063D01*
X9643063Y7801398D01*
X9618157Y7815777D01*
X9590379Y7823220D01*
X9561621D01*
X9533843Y7815777D01*
X9508937Y7801398D01*
X9488602Y7781063D01*
X9482574Y7770622D01*
X7256485D01*
Y12231456D01*
X7258544Y12233515D01*
X7659515D01*
Y11801980D01*
X7649748Y11796341D01*
X7629659Y11776252D01*
X7615453Y11751648D01*
X7608100Y11724205D01*
Y11695795D01*
X7615453Y11668352D01*
X7629659Y11643748D01*
X7649748Y11623658D01*
X7659515Y11618019D01*
Y11547980D01*
X7649748Y11542341D01*
X7629659Y11522252D01*
X7615453Y11497648D01*
X7608100Y11470205D01*
Y11441795D01*
X7615453Y11414352D01*
X7629659Y11389748D01*
X7649748Y11369658D01*
X7659515Y11364019D01*
Y11293980D01*
X7649748Y11288341D01*
X7629659Y11268252D01*
X7615453Y11243648D01*
X7608100Y11216205D01*
Y11187795D01*
X7615453Y11160352D01*
X7629659Y11135748D01*
X7649748Y11115658D01*
X7659515Y11110019D01*
Y11039980D01*
X7649748Y11034341D01*
X7629659Y11014252D01*
X7615453Y10989648D01*
X7608100Y10962205D01*
Y10933795D01*
X7615453Y10906352D01*
X7629659Y10881748D01*
X7649748Y10861658D01*
X7659515Y10856019D01*
Y10785980D01*
X7649748Y10780341D01*
X7629659Y10760252D01*
X7615453Y10735648D01*
X7608100Y10708205D01*
Y10679795D01*
X7615453Y10652352D01*
X7629659Y10627748D01*
X7649748Y10607658D01*
X7674352Y10593453D01*
X7701795Y10586100D01*
X7730205D01*
X7757648Y10593453D01*
X7782252Y10607658D01*
X7802342Y10627748D01*
X7816547Y10652352D01*
X7823900Y10679795D01*
Y10708205D01*
X7816547Y10735648D01*
X7802342Y10760252D01*
X7782252Y10780341D01*
X7772485Y10785980D01*
Y10856019D01*
X7782252Y10861658D01*
X7802342Y10881748D01*
X7816547Y10906352D01*
X7823900Y10933795D01*
Y10962205D01*
X7816547Y10989648D01*
X7802342Y11014252D01*
X7782252Y11034341D01*
X7772485Y11039980D01*
Y11110019D01*
X7782252Y11115658D01*
X7802342Y11135748D01*
X7816547Y11160352D01*
X7823900Y11187795D01*
Y11216205D01*
X7816547Y11243648D01*
X7802342Y11268252D01*
X7782252Y11288341D01*
X7772485Y11293980D01*
Y11364019D01*
X7782252Y11369658D01*
X7802342Y11389748D01*
X7816547Y11414352D01*
X7823900Y11441795D01*
Y11470205D01*
X7816547Y11497648D01*
X7802342Y11522252D01*
X7782252Y11542341D01*
X7772485Y11547980D01*
Y11618019D01*
X7782252Y11623658D01*
X7802342Y11643748D01*
X7816547Y11668352D01*
X7823900Y11695795D01*
Y11724205D01*
X7816547Y11751648D01*
X7802342Y11776252D01*
X7782252Y11796341D01*
X7772485Y11801980D01*
Y12233515D01*
X8806603D01*
X9270058Y11770059D01*
X9270059Y11770059D01*
X9288384Y11757814D01*
X9310000Y11753514D01*
X10037655D01*
X10039714Y11751456D01*
Y11669845D01*
X10037622Y11668637D01*
X10019860Y11650875D01*
X10007301Y11629121D01*
X10002773Y11612225D01*
X9989625D01*
X9985098Y11629121D01*
X9972539Y11650875D01*
X9954777Y11668637D01*
X9933023Y11681197D01*
X9908759Y11687698D01*
X9883640D01*
X9859377Y11681197D01*
X9837623Y11668637D01*
X9819861Y11650875D01*
X9807301Y11629121D01*
X9802774Y11612225D01*
X9789626D01*
X9785099Y11629121D01*
X9772539Y11650875D01*
X9754777Y11668637D01*
X9733023Y11681197D01*
X9708760Y11687698D01*
X9683641D01*
X9659377Y11681197D01*
X9637623Y11668637D01*
X9619861Y11650875D01*
X9607302Y11629121D01*
X9600800Y11604858D01*
Y11579739D01*
X9607302Y11555475D01*
X9619861Y11533721D01*
X9637623Y11515959D01*
X9659377Y11503400D01*
X9683641Y11496898D01*
X9708760D01*
X9733023Y11503400D01*
X9754777Y11515959D01*
X9772539Y11533721D01*
X9785099Y11555475D01*
X9789626Y11572371D01*
X9802774D01*
X9807301Y11555475D01*
X9819861Y11533721D01*
X9837623Y11515959D01*
X9859377Y11503400D01*
X9883640Y11496898D01*
X9908759D01*
X9933023Y11503400D01*
X9954777Y11515959D01*
X9972539Y11533721D01*
X9985098Y11555475D01*
X9989625Y11572371D01*
X10002773D01*
X10007301Y11555475D01*
X10019860Y11533721D01*
X10037622Y11515959D01*
X10039714Y11514752D01*
Y11383802D01*
X10039714Y11383801D01*
X10044014Y11362185D01*
X10056258Y11343859D01*
X10350057Y11050061D01*
X10350058Y11050060D01*
X10368383Y11037816D01*
X10389999Y11033516D01*
X10390000Y11033516D01*
X11457665D01*
X11460463Y11026760D01*
X11480564Y11000565D01*
X11506759Y10980464D01*
X11537264Y10967829D01*
X11570000Y10963519D01*
X11770000D01*
X11802736Y10967829D01*
X11833241Y10980464D01*
X11859436Y11000565D01*
X11879537Y11026760D01*
X11892172Y11057265D01*
X11896482Y11090001D01*
X11892172Y11122737D01*
X11879537Y11153242D01*
X11859436Y11179438D01*
X11833241Y11199538D01*
X11802736Y11212173D01*
X11770000Y11216483D01*
X11570000D01*
X11537264Y11212173D01*
X11506759Y11199538D01*
X11480564Y11179438D01*
X11460463Y11153242D01*
X11457665Y11146486D01*
X11262407D01*
X11258097Y11159186D01*
X11279437Y11175562D01*
X11299538Y11201757D01*
X11312173Y11232262D01*
X11316483Y11264998D01*
Y11327298D01*
X11063519D01*
Y11264998D01*
X11067829Y11232262D01*
X11080464Y11201757D01*
X11100565Y11175562D01*
X11121905Y11159186D01*
X11117594Y11146486D01*
X10413396D01*
X10152685Y11407198D01*
Y11514752D01*
X10154776Y11515959D01*
X10172538Y11533721D01*
X10185098Y11555475D01*
X10191599Y11579739D01*
Y11604858D01*
X10185098Y11629121D01*
X10172538Y11650875D01*
X10154776Y11668637D01*
X10152685Y11669845D01*
Y11774851D01*
X10152685Y11774852D01*
X10148385Y11796468D01*
X10136141Y11814794D01*
X10136140Y11814794D01*
X10100993Y11849941D01*
X10082668Y11862185D01*
X10061052Y11866485D01*
X10061051Y11866485D01*
X9333397D01*
X8869941Y12329941D01*
X8851616Y12342186D01*
X8830000Y12346486D01*
D02*
G37*
G36*
X9909576Y12143900D02*
X9882824D01*
X9856984Y12136976D01*
X9833816Y12123600D01*
X9814899Y12104684D01*
X9803232Y12084474D01*
X9797870Y12083191D01*
X9794530D01*
X9789168Y12084474D01*
X9777500Y12104684D01*
X9758584Y12123600D01*
X9735416Y12136976D01*
X9709576Y12143900D01*
X9682824D01*
X9656984Y12136976D01*
X9633816Y12123600D01*
X9614900Y12104684D01*
X9601524Y12081516D01*
X9594600Y12055676D01*
Y12028924D01*
X9601524Y12003084D01*
X9614900Y11979916D01*
X9633816Y11960999D01*
X9656984Y11947624D01*
X9682824Y11940700D01*
X9709576D01*
X9735416Y11947624D01*
X9758584Y11960999D01*
X9777500Y11979916D01*
X9789168Y12000125D01*
X9794530Y12001409D01*
X9797870D01*
X9803232Y12000125D01*
X9814899Y11979916D01*
X9833816Y11960999D01*
X9856984Y11947624D01*
X9882824Y11940700D01*
X9909576D01*
X9935416Y11947624D01*
X9958584Y11960999D01*
X9977500Y11979916D01*
X9988099Y11998274D01*
X10000799Y11994872D01*
Y11946900D01*
X10083499D01*
Y12042299D01*
Y12137700D01*
X10000799D01*
Y12089728D01*
X9988099Y12086325D01*
X9977500Y12104684D01*
X9958584Y12123600D01*
X9935416Y12136976D01*
X9909576Y12143900D01*
D02*
G37*
G36*
X10191599Y12137700D02*
X10108899D01*
Y12054999D01*
X10191599D01*
Y12137700D01*
D02*
G37*
G36*
Y12029599D02*
X10108899D01*
Y11946900D01*
X10191599D01*
Y12029599D01*
D02*
G37*
G36*
X7984205Y11817900D02*
X7982700D01*
Y11722699D01*
X8077900D01*
Y11724205D01*
X8070547Y11751648D01*
X8056342Y11776252D01*
X8036252Y11796341D01*
X8011648Y11810547D01*
X7984205Y11817900D01*
D02*
G37*
G36*
X7957300D02*
X7955795D01*
X7928352Y11810547D01*
X7903748Y11796341D01*
X7883659Y11776252D01*
X7869453Y11751648D01*
X7862100Y11724205D01*
Y11722699D01*
X7957300D01*
Y11817900D01*
D02*
G37*
G36*
X11770000Y11816482D02*
X11682700D01*
Y11702701D01*
X11894810D01*
X11892172Y11722736D01*
X11879537Y11753241D01*
X11859436Y11779436D01*
X11833241Y11799537D01*
X11802736Y11812172D01*
X11770000Y11816482D01*
D02*
G37*
G36*
X11657300D02*
X11570000D01*
X11537264Y11812172D01*
X11506759Y11799537D01*
X11480564Y11779436D01*
X11460463Y11753241D01*
X11447828Y11722736D01*
X11445190Y11702701D01*
X11657300D01*
Y11816482D01*
D02*
G37*
G36*
X8077900Y11697299D02*
X7982700D01*
Y11602100D01*
X7984205D01*
X8011648Y11609453D01*
X8036252Y11623658D01*
X8056342Y11643748D01*
X8070547Y11668352D01*
X8077900Y11695795D01*
Y11697299D01*
D02*
G37*
G36*
X7957300D02*
X7862100D01*
Y11695795D01*
X7869453Y11668352D01*
X7883659Y11643748D01*
X7903748Y11623658D01*
X7928352Y11609453D01*
X7955795Y11602100D01*
X7957300D01*
Y11697299D01*
D02*
G37*
G36*
X11894810Y11677301D02*
X11682700D01*
Y11563518D01*
X11770000D01*
X11802736Y11567828D01*
X11833241Y11580463D01*
X11859436Y11600564D01*
X11879537Y11626759D01*
X11892172Y11657264D01*
X11894810Y11677301D01*
D02*
G37*
G36*
X11657300D02*
X11445190D01*
X11447828Y11657264D01*
X11460463Y11626759D01*
X11480564Y11600564D01*
X11506759Y11580463D01*
X11537264Y11567828D01*
X11570000Y11563518D01*
X11657300D01*
Y11677301D01*
D02*
G37*
G36*
X7984205Y11563900D02*
X7982700D01*
Y11468699D01*
X8077900D01*
Y11470205D01*
X8070547Y11497648D01*
X8056342Y11522252D01*
X8036252Y11542341D01*
X8011648Y11556547D01*
X7984205Y11563900D01*
D02*
G37*
G36*
X7957300D02*
X7955795D01*
X7928352Y11556547D01*
X7903748Y11542341D01*
X7883659Y11522252D01*
X7869453Y11497648D01*
X7862100Y11470205D01*
Y11468699D01*
X7957300D01*
Y11563900D01*
D02*
G37*
G36*
X11202701Y11539808D02*
Y11352698D01*
X11316483D01*
Y11414998D01*
X11312173Y11447734D01*
X11299538Y11478239D01*
X11279437Y11504434D01*
X11253242Y11524535D01*
X11222737Y11537170D01*
X11202701Y11539808D01*
D02*
G37*
G36*
X11177301D02*
X11157265Y11537170D01*
X11126760Y11524535D01*
X11100565Y11504434D01*
X11080464Y11478239D01*
X11067829Y11447734D01*
X11063519Y11414998D01*
Y11352698D01*
X11177301D01*
Y11539808D01*
D02*
G37*
G36*
X8077900Y11443299D02*
X7982700D01*
Y11348100D01*
X7984205D01*
X8011648Y11355453D01*
X8036252Y11369658D01*
X8056342Y11389748D01*
X8070547Y11414352D01*
X8077900Y11441795D01*
Y11443299D01*
D02*
G37*
G36*
X7957300D02*
X7862100D01*
Y11441795D01*
X7869453Y11414352D01*
X7883659Y11389748D01*
X7903748Y11369658D01*
X7928352Y11355453D01*
X7955795Y11348100D01*
X7957300D01*
Y11443299D01*
D02*
G37*
G36*
X7984205Y11309900D02*
X7982700D01*
Y11214699D01*
X8077900D01*
Y11216205D01*
X8070547Y11243648D01*
X8056342Y11268252D01*
X8036252Y11288341D01*
X8011648Y11302547D01*
X7984205Y11309900D01*
D02*
G37*
G36*
X7957300D02*
X7955795D01*
X7928352Y11302547D01*
X7903748Y11288341D01*
X7883659Y11268252D01*
X7869453Y11243648D01*
X7862100Y11216205D01*
Y11214699D01*
X7957300D01*
Y11309900D01*
D02*
G37*
G36*
X8077900Y11189299D02*
X7982700D01*
Y11094100D01*
X7984205D01*
X8011648Y11101453D01*
X8036252Y11115658D01*
X8056342Y11135748D01*
X8070547Y11160352D01*
X8077900Y11187795D01*
Y11189299D01*
D02*
G37*
G36*
X7957300D02*
X7862100D01*
Y11187795D01*
X7869453Y11160352D01*
X7883659Y11135748D01*
X7903748Y11115658D01*
X7928352Y11101453D01*
X7955795Y11094100D01*
X7957300D01*
Y11189299D01*
D02*
G37*
G36*
X7984205Y11055900D02*
X7982700D01*
Y10960699D01*
X8077900D01*
Y10962205D01*
X8070547Y10989648D01*
X8056342Y11014252D01*
X8036252Y11034341D01*
X8011648Y11048547D01*
X7984205Y11055900D01*
D02*
G37*
G36*
X7957300D02*
X7955795D01*
X7928352Y11048547D01*
X7903748Y11034341D01*
X7883659Y11014252D01*
X7869453Y10989648D01*
X7862100Y10962205D01*
Y10960699D01*
X7957300D01*
Y11055900D01*
D02*
G37*
G36*
X8077900Y10935299D02*
X7982700D01*
Y10840100D01*
X7984205D01*
X8011648Y10847453D01*
X8036252Y10861658D01*
X8056342Y10881748D01*
X8070547Y10906352D01*
X8077900Y10933795D01*
Y10935299D01*
D02*
G37*
G36*
X7957300D02*
X7862100D01*
Y10933795D01*
X7869453Y10906352D01*
X7883659Y10881748D01*
X7903748Y10861658D01*
X7928352Y10847453D01*
X7955795Y10840100D01*
X7957300D01*
Y10935299D01*
D02*
G37*
G36*
X7984205Y10801900D02*
X7982700D01*
Y10706699D01*
X8077900D01*
Y10708205D01*
X8070547Y10735648D01*
X8056342Y10760252D01*
X8036252Y10780341D01*
X8011648Y10794547D01*
X7984205Y10801900D01*
D02*
G37*
G36*
X7957300D02*
X7955795D01*
X7928352Y10794547D01*
X7903748Y10780341D01*
X7883659Y10760252D01*
X7869453Y10735648D01*
X7862100Y10708205D01*
Y10706699D01*
X7957300D01*
Y10801900D01*
D02*
G37*
G36*
X8077900Y10681299D02*
X7982700D01*
Y10586100D01*
X7984205D01*
X8011648Y10593453D01*
X8036252Y10607658D01*
X8056342Y10627748D01*
X8070547Y10652352D01*
X8077900Y10679795D01*
Y10681299D01*
D02*
G37*
G36*
X7957300D02*
X7862100D01*
Y10679795D01*
X7869453Y10652352D01*
X7883659Y10627748D01*
X7903748Y10607658D01*
X7928352Y10593453D01*
X7955795Y10586100D01*
X7957300D01*
Y10681299D01*
D02*
G37*
G36*
X9930000Y10276485D02*
X9929999Y10276485D01*
X9796000D01*
X9774384Y10272185D01*
X9756058Y10259941D01*
X9756058Y10259940D01*
X9602176Y10106059D01*
X9590379Y10109220D01*
X9561621D01*
X9533843Y10101777D01*
X9508937Y10087398D01*
X9488602Y10067063D01*
X9474223Y10042157D01*
X9466780Y10014379D01*
Y9985621D01*
X9474223Y9957843D01*
X9488602Y9932937D01*
X9508937Y9912602D01*
X9533843Y9898223D01*
X9561621Y9890780D01*
X9590379D01*
X9618157Y9898223D01*
X9643063Y9912602D01*
X9663397Y9932937D01*
X9677777Y9957843D01*
X9685220Y9985621D01*
Y10014379D01*
X9682059Y10026177D01*
X9819397Y10163515D01*
X9909853D01*
X9918384Y10157814D01*
X9940000Y10153514D01*
X9940001Y10153515D01*
X11741456D01*
X11758341Y10136629D01*
X11760059Y10134058D01*
X11972058Y9922059D01*
X11972059Y9922059D01*
X11990384Y9909814D01*
X12012000Y9905515D01*
X13210907D01*
X13215659Y9897283D01*
X13235283Y9877659D01*
X13259317Y9863783D01*
X13286124Y9856600D01*
X13313876D01*
X13340683Y9863783D01*
X13364717Y9877659D01*
X13384341Y9897283D01*
X13398216Y9921317D01*
X13405400Y9948124D01*
Y9975876D01*
X13398216Y10002683D01*
X13384341Y10026717D01*
X13364717Y10046341D01*
X13340683Y10060217D01*
X13313876Y10067400D01*
X13286124D01*
X13259317Y10060217D01*
X13235283Y10046341D01*
X13215659Y10026717D01*
X13210907Y10018485D01*
X12035397D01*
X11841659Y10212224D01*
X11839941Y10214794D01*
X11839941Y10214794D01*
X11804794Y10249941D01*
X11786469Y10262185D01*
X11764853Y10266485D01*
X11764852Y10266485D01*
X9960147D01*
X9951616Y10272185D01*
X9930000Y10276485D01*
D02*
G37*
G36*
X7783876Y10081400D02*
X7756124D01*
X7729317Y10074217D01*
X7705283Y10060341D01*
X7685659Y10040717D01*
X7671783Y10016683D01*
X7664600Y9989876D01*
Y9962124D01*
X7671783Y9935317D01*
X7685659Y9911283D01*
X7705283Y9891659D01*
X7729317Y9877783D01*
X7756124Y9870600D01*
X7783876D01*
X7810683Y9877783D01*
X7834717Y9891659D01*
X7854341Y9911283D01*
X7859094Y9919515D01*
X8150603D01*
X8350058Y9720060D01*
X8350059Y9720059D01*
X8368384Y9707814D01*
X8390000Y9703515D01*
X8390001Y9703515D01*
X9474412D01*
X9488602Y9678937D01*
X9508937Y9658602D01*
X9533843Y9644223D01*
X9561621Y9636780D01*
X9590379D01*
X9618157Y9644223D01*
X9643063Y9658602D01*
X9663397Y9678937D01*
X9677777Y9703843D01*
X9685220Y9731621D01*
Y9760379D01*
X9677777Y9788157D01*
X9663397Y9813063D01*
X9643063Y9833398D01*
X9618157Y9847777D01*
X9590379Y9855220D01*
X9561621D01*
X9533843Y9847777D01*
X9508937Y9833398D01*
X9492025Y9816485D01*
X8413397D01*
X8213941Y10015941D01*
X8195616Y10028186D01*
X8174000Y10032486D01*
X8173999Y10032485D01*
X7859094D01*
X7854341Y10040717D01*
X7834717Y10060341D01*
X7810683Y10074217D01*
X7783876Y10081400D01*
D02*
G37*
G36*
X11114379Y10109220D02*
X11085621D01*
X11057843Y10101777D01*
X11032937Y10087398D01*
X11012602Y10067063D01*
X10998223Y10042157D01*
X10990780Y10014379D01*
Y9985621D01*
X10998223Y9957843D01*
X11012602Y9932937D01*
X11032937Y9912602D01*
X11057843Y9898223D01*
X11085621Y9890780D01*
X11114379D01*
X11142157Y9898223D01*
X11167063Y9912602D01*
X11187397Y9932937D01*
X11187731Y9933515D01*
X11676603D01*
X11942058Y9668059D01*
X11942059Y9668059D01*
X11960384Y9655814D01*
X11982000Y9651514D01*
X11982001Y9651515D01*
X13210907D01*
X13215659Y9643283D01*
X13235283Y9623659D01*
X13259317Y9609783D01*
X13286124Y9602600D01*
X13313876D01*
X13340683Y9609783D01*
X13364717Y9623659D01*
X13384341Y9643283D01*
X13398216Y9667317D01*
X13405400Y9694124D01*
Y9721876D01*
X13398216Y9748683D01*
X13384341Y9772717D01*
X13364717Y9792341D01*
X13340683Y9806217D01*
X13313876Y9813400D01*
X13286124D01*
X13259317Y9806217D01*
X13235283Y9792341D01*
X13215659Y9772717D01*
X13210907Y9764485D01*
X12005397D01*
X11739941Y10029941D01*
X11721616Y10042186D01*
X11700000Y10046486D01*
X11699998Y10046485D01*
X11199278D01*
X11187397Y10067063D01*
X11167063Y10087398D01*
X11142157Y10101777D01*
X11114379Y10109220D01*
D02*
G37*
G36*
X7783876Y9827400D02*
X7756124D01*
X7729317Y9820217D01*
X7705283Y9806341D01*
X7685659Y9786717D01*
X7671783Y9762683D01*
X7664600Y9735876D01*
Y9708124D01*
X7671783Y9681317D01*
X7685659Y9657283D01*
X7705283Y9637659D01*
X7729317Y9623783D01*
X7756124Y9616600D01*
X7783876D01*
X7810683Y9623783D01*
X7834717Y9637659D01*
X7854341Y9657283D01*
X7859094Y9665515D01*
X8164603D01*
X8378058Y9452060D01*
X8378059Y9452059D01*
X8396384Y9439814D01*
X8418000Y9435515D01*
X9482495D01*
X9488602Y9424937D01*
X9508937Y9404602D01*
X9533843Y9390223D01*
X9561621Y9382780D01*
X9590379D01*
X9618157Y9390223D01*
X9643063Y9404602D01*
X9663397Y9424937D01*
X9677777Y9449843D01*
X9685220Y9477621D01*
Y9506379D01*
X9677777Y9534157D01*
X9663397Y9559063D01*
X9643063Y9579398D01*
X9618157Y9593777D01*
X9590379Y9601220D01*
X9561621D01*
X9533843Y9593777D01*
X9508937Y9579398D01*
X9488602Y9559063D01*
X9482495Y9548485D01*
X8441397D01*
X8227941Y9761941D01*
X8209616Y9774186D01*
X8188000Y9778486D01*
X8187999Y9778485D01*
X7859094D01*
X7854341Y9786717D01*
X7834717Y9806341D01*
X7810683Y9820217D01*
X7783876Y9827400D01*
D02*
G37*
G36*
X11114379Y9855220D02*
X11085621D01*
X11057843Y9847777D01*
X11032937Y9833398D01*
X11012602Y9813063D01*
X10998223Y9788157D01*
X10990780Y9760379D01*
Y9731621D01*
X10998223Y9703843D01*
X11012602Y9678937D01*
X11032937Y9658602D01*
X11057843Y9644223D01*
X11085621Y9636780D01*
X11114379D01*
X11142157Y9644223D01*
X11167063Y9658602D01*
X11187397Y9678937D01*
X11195814Y9693515D01*
X11654603D01*
X11934058Y9414059D01*
X11934059Y9414059D01*
X11952384Y9401814D01*
X11974000Y9397514D01*
X11974001Y9397515D01*
X13210907D01*
X13215659Y9389283D01*
X13235283Y9369659D01*
X13259317Y9355783D01*
X13286124Y9348600D01*
X13313876D01*
X13340683Y9355783D01*
X13364717Y9369659D01*
X13384341Y9389283D01*
X13398216Y9413317D01*
X13405400Y9440124D01*
Y9467876D01*
X13398216Y9494683D01*
X13384341Y9518717D01*
X13364717Y9538341D01*
X13340683Y9552217D01*
X13313876Y9559400D01*
X13286124D01*
X13259317Y9552217D01*
X13235283Y9538341D01*
X13215659Y9518717D01*
X13210907Y9510485D01*
X11997397D01*
X11717941Y9789941D01*
X11699616Y9802186D01*
X11678000Y9806486D01*
X11677998Y9806485D01*
X11191195D01*
X11187397Y9813063D01*
X11167063Y9833398D01*
X11142157Y9847777D01*
X11114379Y9855220D01*
D02*
G37*
G36*
X7783876Y9573400D02*
X7756124D01*
X7729317Y9566217D01*
X7705283Y9552341D01*
X7685659Y9532717D01*
X7671783Y9508683D01*
X7664600Y9481876D01*
Y9454124D01*
X7671783Y9427317D01*
X7685659Y9403283D01*
X7705283Y9383659D01*
X7729317Y9369783D01*
X7756124Y9362600D01*
X7783876D01*
X7810683Y9369783D01*
X7834717Y9383659D01*
X7854341Y9403283D01*
X7859094Y9411515D01*
X8158603D01*
X8372058Y9198060D01*
X8372059Y9198059D01*
X8390384Y9185814D01*
X8412000Y9181515D01*
X9482495D01*
X9488602Y9170937D01*
X9508937Y9150602D01*
X9533843Y9136223D01*
X9561621Y9128780D01*
X9590379D01*
X9618157Y9136223D01*
X9643063Y9150602D01*
X9663397Y9170937D01*
X9677777Y9195843D01*
X9685220Y9223621D01*
Y9252379D01*
X9677777Y9280157D01*
X9663397Y9305063D01*
X9643063Y9325398D01*
X9618157Y9339777D01*
X9590379Y9347220D01*
X9561621D01*
X9533843Y9339777D01*
X9508937Y9325398D01*
X9488602Y9305063D01*
X9482495Y9294485D01*
X8435397D01*
X8221941Y9507941D01*
X8203616Y9520186D01*
X8182000Y9524486D01*
X8181999Y9524485D01*
X7859094D01*
X7854341Y9532717D01*
X7834717Y9552341D01*
X7810683Y9566217D01*
X7783876Y9573400D01*
D02*
G37*
G36*
X11114379Y9601220D02*
X11085621D01*
X11057843Y9593777D01*
X11032937Y9579398D01*
X11012602Y9559063D01*
X10998223Y9534157D01*
X10990780Y9506379D01*
Y9477621D01*
X10998223Y9449843D01*
X11012602Y9424937D01*
X11032937Y9404602D01*
X11057843Y9390223D01*
X11085621Y9382780D01*
X11114379D01*
X11142157Y9390223D01*
X11167063Y9404602D01*
X11187397Y9424937D01*
X11193504Y9435515D01*
X11664603D01*
X11940058Y9160059D01*
X11940059Y9160059D01*
X11958384Y9147814D01*
X11980000Y9143514D01*
X11980001Y9143515D01*
X13210907D01*
X13215659Y9135283D01*
X13235283Y9115659D01*
X13259317Y9101783D01*
X13286124Y9094600D01*
X13313876D01*
X13340683Y9101783D01*
X13364717Y9115659D01*
X13384341Y9135283D01*
X13398216Y9159317D01*
X13405400Y9186124D01*
Y9213876D01*
X13398216Y9240683D01*
X13384341Y9264717D01*
X13364717Y9284341D01*
X13340683Y9298217D01*
X13313876Y9305400D01*
X13286124D01*
X13259317Y9298217D01*
X13235283Y9284341D01*
X13215659Y9264717D01*
X13210907Y9256485D01*
X12003397D01*
X11727941Y9531941D01*
X11709616Y9544186D01*
X11688000Y9548486D01*
X11687998Y9548485D01*
X11193504D01*
X11187397Y9559063D01*
X11167063Y9579398D01*
X11142157Y9593777D01*
X11114379Y9601220D01*
D02*
G37*
G36*
X7783876Y9319400D02*
X7756124D01*
X7729317Y9312217D01*
X7705283Y9298341D01*
X7685659Y9278717D01*
X7671783Y9254683D01*
X7664600Y9227876D01*
Y9200124D01*
X7671783Y9173317D01*
X7685659Y9149283D01*
X7705283Y9129659D01*
X7729317Y9115783D01*
X7756124Y9108600D01*
X7783876D01*
X7810683Y9115783D01*
X7834717Y9129659D01*
X7848573Y9143515D01*
X8146603D01*
X8330058Y8960060D01*
X8330059Y8960059D01*
X8348384Y8947814D01*
X8370000Y8943514D01*
X8370001Y8943515D01*
X9473775D01*
X9474223Y8941843D01*
X9488602Y8916937D01*
X9508937Y8896602D01*
X9533843Y8882223D01*
X9561621Y8874780D01*
X9590379D01*
X9618157Y8882223D01*
X9643063Y8896602D01*
X9663397Y8916937D01*
X9677777Y8941843D01*
X9685220Y8969621D01*
Y8998379D01*
X9677777Y9026157D01*
X9663397Y9051063D01*
X9643063Y9071398D01*
X9618157Y9085777D01*
X9590379Y9093220D01*
X9561621D01*
X9533843Y9085777D01*
X9508937Y9071398D01*
X9494025Y9056485D01*
X8393397D01*
X8209941Y9239941D01*
X8191616Y9252185D01*
X8170000Y9256485D01*
X8169999Y9256485D01*
X7867177D01*
X7854341Y9278717D01*
X7834717Y9298341D01*
X7810683Y9312217D01*
X7783876Y9319400D01*
D02*
G37*
G36*
X11114379Y9347220D02*
X11085621D01*
X11057843Y9339777D01*
X11032937Y9325398D01*
X11012602Y9305063D01*
X10998223Y9280157D01*
X10990780Y9252379D01*
Y9223621D01*
X10998223Y9195843D01*
X11012602Y9170937D01*
X11032937Y9150602D01*
X11057843Y9136223D01*
X11085621Y9128780D01*
X11114379D01*
X11142157Y9136223D01*
X11167063Y9150602D01*
X11187397Y9170937D01*
X11200433Y9193515D01*
X11626603D01*
X11914058Y8906059D01*
X11914059Y8906059D01*
X11932384Y8893814D01*
X11954000Y8889514D01*
X11954001Y8889515D01*
X13210907D01*
X13215659Y8881283D01*
X13235283Y8861659D01*
X13259317Y8847783D01*
X13286124Y8840600D01*
X13313876D01*
X13340683Y8847783D01*
X13364717Y8861659D01*
X13384341Y8881283D01*
X13398216Y8905317D01*
X13405400Y8932124D01*
Y8959876D01*
X13398216Y8986683D01*
X13384341Y9010717D01*
X13364717Y9030341D01*
X13340683Y9044217D01*
X13313876Y9051400D01*
X13286124D01*
X13259317Y9044217D01*
X13235283Y9030341D01*
X13215659Y9010717D01*
X13210907Y9002485D01*
X11977397D01*
X11689941Y9289941D01*
X11671616Y9302186D01*
X11650000Y9306486D01*
X11649999Y9306485D01*
X11185975D01*
X11167063Y9325398D01*
X11142157Y9339777D01*
X11114379Y9347220D01*
D02*
G37*
G36*
X7783876Y9065400D02*
X7756124D01*
X7729317Y9058217D01*
X7705283Y9044341D01*
X7685659Y9024717D01*
X7671783Y9000683D01*
X7664600Y8973876D01*
Y8946124D01*
X7671783Y8919317D01*
X7685659Y8895283D01*
X7705283Y8875659D01*
X7729317Y8861783D01*
X7756124Y8854600D01*
X7783876D01*
X7810683Y8861783D01*
X7834717Y8875659D01*
X7854341Y8895283D01*
X7859094Y8903515D01*
X8126603D01*
X8340058Y8690060D01*
X8340059Y8690059D01*
X8358384Y8677814D01*
X8380000Y8673515D01*
X9482495D01*
X9488602Y8662937D01*
X9508937Y8642602D01*
X9533843Y8628223D01*
X9561621Y8620780D01*
X9590379D01*
X9618157Y8628223D01*
X9643063Y8642602D01*
X9663397Y8662937D01*
X9677777Y8687843D01*
X9685220Y8715621D01*
Y8744379D01*
X9677777Y8772157D01*
X9663397Y8797063D01*
X9643063Y8817398D01*
X9618157Y8831777D01*
X9590379Y8839220D01*
X9561621D01*
X9533843Y8831777D01*
X9508937Y8817398D01*
X9488602Y8797063D01*
X9482495Y8786485D01*
X8403397D01*
X8189941Y8999941D01*
X8171616Y9012186D01*
X8150000Y9016486D01*
X8149999Y9016485D01*
X7859094D01*
X7854341Y9024717D01*
X7834717Y9044341D01*
X7810683Y9058217D01*
X7783876Y9065400D01*
D02*
G37*
G36*
X11114379Y9093220D02*
X11085621D01*
X11057843Y9085777D01*
X11032937Y9071398D01*
X11012602Y9051063D01*
X10998223Y9026157D01*
X10990780Y8998379D01*
Y8969621D01*
X10998223Y8941843D01*
X11012602Y8916937D01*
X11032937Y8896602D01*
X11057843Y8882223D01*
X11085621Y8874780D01*
X11114379D01*
X11142157Y8882223D01*
X11167063Y8896602D01*
X11187397Y8916937D01*
X11193504Y8927515D01*
X11642603D01*
X11918058Y8652059D01*
X11918059Y8652059D01*
X11936384Y8639814D01*
X11958000Y8635514D01*
X11958001Y8635515D01*
X13210907D01*
X13215659Y8627283D01*
X13235283Y8607659D01*
X13259317Y8593783D01*
X13286124Y8586600D01*
X13313876D01*
X13340683Y8593783D01*
X13364717Y8607659D01*
X13384341Y8627283D01*
X13398216Y8651317D01*
X13405400Y8678124D01*
Y8705876D01*
X13398216Y8732683D01*
X13384341Y8756717D01*
X13364717Y8776341D01*
X13340683Y8790217D01*
X13313876Y8797400D01*
X13286124D01*
X13259317Y8790217D01*
X13235283Y8776341D01*
X13215659Y8756717D01*
X13210907Y8748485D01*
X11981397D01*
X11705941Y9023941D01*
X11687616Y9036186D01*
X11666000Y9040486D01*
X11665999Y9040485D01*
X11193504D01*
X11187397Y9051063D01*
X11167063Y9071398D01*
X11142157Y9085777D01*
X11114379Y9093220D01*
D02*
G37*
G36*
X7783876Y8811400D02*
X7756124D01*
X7729317Y8804217D01*
X7705283Y8790341D01*
X7685659Y8770717D01*
X7671783Y8746683D01*
X7664600Y8719876D01*
Y8692124D01*
X7671783Y8665317D01*
X7685659Y8641283D01*
X7705283Y8621659D01*
X7729317Y8607783D01*
X7756124Y8600600D01*
X7783876D01*
X7810683Y8607783D01*
X7834717Y8621659D01*
X7854341Y8641283D01*
X7859094Y8649515D01*
X8120603D01*
X8334058Y8436060D01*
X8334059Y8436059D01*
X8352384Y8423814D01*
X8374000Y8419515D01*
X9482495D01*
X9488602Y8408937D01*
X9508937Y8388602D01*
X9533843Y8374223D01*
X9561621Y8366780D01*
X9590379D01*
X9618157Y8374223D01*
X9643063Y8388602D01*
X9663397Y8408937D01*
X9677777Y8433843D01*
X9685220Y8461621D01*
Y8490379D01*
X9677777Y8518157D01*
X9663397Y8543063D01*
X9643063Y8563398D01*
X9618157Y8577777D01*
X9590379Y8585220D01*
X9561621D01*
X9533843Y8577777D01*
X9508937Y8563398D01*
X9488602Y8543063D01*
X9482495Y8532485D01*
X8397397D01*
X8183941Y8745941D01*
X8165616Y8758186D01*
X8144000Y8762486D01*
X8143999Y8762485D01*
X7859094D01*
X7854341Y8770717D01*
X7834717Y8790341D01*
X7810683Y8804217D01*
X7783876Y8811400D01*
D02*
G37*
G36*
X11114379Y8839220D02*
X11085621D01*
X11057843Y8831777D01*
X11032937Y8817398D01*
X11012602Y8797063D01*
X10998223Y8772157D01*
X10990780Y8744379D01*
Y8715621D01*
X10998223Y8687843D01*
X11012602Y8662937D01*
X11032937Y8642602D01*
X11057843Y8628223D01*
X11085621Y8620780D01*
X11114379D01*
X11142157Y8628223D01*
X11167063Y8642602D01*
X11187397Y8662937D01*
X11187731Y8663515D01*
X11616603D01*
X11882059Y8398059D01*
X11882059Y8398059D01*
X11900384Y8385814D01*
X11922000Y8381514D01*
X11922002Y8381515D01*
X13210907D01*
X13215659Y8373283D01*
X13235283Y8353659D01*
X13259317Y8339783D01*
X13286124Y8332600D01*
X13313876D01*
X13340683Y8339783D01*
X13364717Y8353659D01*
X13384341Y8373283D01*
X13398216Y8397317D01*
X13405400Y8424124D01*
Y8451876D01*
X13398216Y8478683D01*
X13384341Y8502717D01*
X13364717Y8522341D01*
X13340683Y8536217D01*
X13313876Y8543400D01*
X13286124D01*
X13259317Y8536217D01*
X13235283Y8522341D01*
X13215659Y8502717D01*
X13210907Y8494485D01*
X11945397D01*
X11679941Y8759941D01*
X11661616Y8772186D01*
X11640000Y8776486D01*
X11639999Y8776485D01*
X11199278D01*
X11187397Y8797063D01*
X11167063Y8817398D01*
X11142157Y8831777D01*
X11114379Y8839220D01*
D02*
G37*
G36*
X7783876Y8557400D02*
X7756124D01*
X7729317Y8550217D01*
X7705283Y8536341D01*
X7685659Y8516717D01*
X7671783Y8492683D01*
X7664600Y8465876D01*
Y8438124D01*
X7671783Y8411317D01*
X7685659Y8387283D01*
X7705283Y8367659D01*
X7729317Y8353783D01*
X7756124Y8346600D01*
X7783876D01*
X7810683Y8353783D01*
X7834717Y8367659D01*
X7854341Y8387283D01*
X7859094Y8395515D01*
X8114603D01*
X8328058Y8182060D01*
X8328059Y8182059D01*
X8346384Y8169814D01*
X8368000Y8165515D01*
X9482495D01*
X9488602Y8154937D01*
X9508937Y8134602D01*
X9533843Y8120223D01*
X9561621Y8112780D01*
X9590379D01*
X9618157Y8120223D01*
X9643063Y8134602D01*
X9663397Y8154937D01*
X9677777Y8179843D01*
X9685220Y8207621D01*
Y8236379D01*
X9677777Y8264157D01*
X9663397Y8289063D01*
X9643063Y8309398D01*
X9618157Y8323777D01*
X9590379Y8331220D01*
X9561621D01*
X9533843Y8323777D01*
X9508937Y8309398D01*
X9488602Y8289063D01*
X9482495Y8278485D01*
X8391397D01*
X8177941Y8491941D01*
X8159616Y8504186D01*
X8138000Y8508486D01*
X8137999Y8508485D01*
X7859094D01*
X7854341Y8516717D01*
X7834717Y8536341D01*
X7810683Y8550217D01*
X7783876Y8557400D01*
D02*
G37*
G36*
X11114379Y8585220D02*
X11085621D01*
X11057843Y8577777D01*
X11032937Y8563398D01*
X11012602Y8543063D01*
X10998223Y8518157D01*
X10990780Y8490379D01*
Y8461621D01*
X10998223Y8433843D01*
X11012602Y8408937D01*
X11032937Y8388602D01*
X11057843Y8374223D01*
X11085621Y8366780D01*
X11114379D01*
X11142157Y8374223D01*
X11167063Y8388602D01*
X11187397Y8408937D01*
X11193504Y8419515D01*
X11608603D01*
X11884058Y8144059D01*
X11884059Y8144059D01*
X11902384Y8131814D01*
X11924000Y8127514D01*
X11924001Y8127515D01*
X13210907D01*
X13215659Y8119283D01*
X13235283Y8099659D01*
X13259317Y8085783D01*
X13286124Y8078600D01*
X13313876D01*
X13340683Y8085783D01*
X13364717Y8099659D01*
X13384341Y8119283D01*
X13398216Y8143317D01*
X13405400Y8170124D01*
Y8197876D01*
X13398216Y8224683D01*
X13384341Y8248717D01*
X13364717Y8268341D01*
X13340683Y8282217D01*
X13313876Y8289400D01*
X13286124D01*
X13259317Y8282217D01*
X13235283Y8268341D01*
X13215659Y8248717D01*
X13210907Y8240485D01*
X11947397D01*
X11671941Y8515941D01*
X11653616Y8528186D01*
X11632000Y8532486D01*
X11631999Y8532485D01*
X11193504D01*
X11187397Y8543063D01*
X11167063Y8563398D01*
X11142157Y8577777D01*
X11114379Y8585220D01*
D02*
G37*
G36*
X7783876Y8303400D02*
X7756124D01*
X7729317Y8296217D01*
X7705283Y8282341D01*
X7685659Y8262717D01*
X7671783Y8238683D01*
X7664600Y8211876D01*
Y8184124D01*
X7671783Y8157317D01*
X7685659Y8133283D01*
X7705283Y8113659D01*
X7729317Y8099783D01*
X7756124Y8092600D01*
X7783876D01*
X7810683Y8099783D01*
X7834717Y8113659D01*
X7854341Y8133283D01*
X7859094Y8141515D01*
X8104603D01*
X8318058Y7928060D01*
X8318059Y7928059D01*
X8336384Y7915814D01*
X8358000Y7911515D01*
X9482495D01*
X9488602Y7900937D01*
X9508937Y7880602D01*
X9533843Y7866223D01*
X9561621Y7858780D01*
X9590379D01*
X9618157Y7866223D01*
X9643063Y7880602D01*
X9663397Y7900937D01*
X9677777Y7925843D01*
X9685220Y7953621D01*
Y7982379D01*
X9677777Y8010157D01*
X9663397Y8035063D01*
X9643063Y8055398D01*
X9618157Y8069777D01*
X9590379Y8077220D01*
X9561621D01*
X9533843Y8069777D01*
X9508937Y8055398D01*
X9488602Y8035063D01*
X9482495Y8024485D01*
X8381397D01*
X8167941Y8237941D01*
X8149616Y8250186D01*
X8128000Y8254486D01*
X8127999Y8254485D01*
X7859094D01*
X7854341Y8262717D01*
X7834717Y8282341D01*
X7810683Y8296217D01*
X7783876Y8303400D01*
D02*
G37*
G36*
X11114379Y7823220D02*
X11112700D01*
Y7726701D01*
X11209220D01*
Y7728379D01*
X11201777Y7756157D01*
X11187397Y7781063D01*
X11167063Y7801398D01*
X11142157Y7815777D01*
X11114379Y7823220D01*
D02*
G37*
G36*
X11087300D02*
X11085621D01*
X11057843Y7815777D01*
X11032937Y7801398D01*
X11012602Y7781063D01*
X10998223Y7756157D01*
X10990780Y7728379D01*
Y7726701D01*
X11087300D01*
Y7823220D01*
D02*
G37*
G36*
X11209220Y7701301D02*
X11112700D01*
Y7604780D01*
X11114379D01*
X11142157Y7612223D01*
X11167063Y7626602D01*
X11187397Y7646937D01*
X11201777Y7671843D01*
X11209220Y7699621D01*
Y7701301D01*
D02*
G37*
G36*
X11087300D02*
X10990780D01*
Y7699621D01*
X10998223Y7671843D01*
X11012602Y7646937D01*
X11032937Y7626602D01*
X11057843Y7612223D01*
X11085621Y7604780D01*
X11087300D01*
Y7701301D01*
D02*
G37*
G36*
X9590379Y7569220D02*
X9588700D01*
Y7472701D01*
X9685220D01*
Y7474379D01*
X9677777Y7502157D01*
X9663397Y7527063D01*
X9643063Y7547398D01*
X9618157Y7561777D01*
X9590379Y7569220D01*
D02*
G37*
G36*
X9563300D02*
X9561621D01*
X9533843Y7561777D01*
X9508937Y7547398D01*
X9488602Y7527063D01*
X9474223Y7502157D01*
X9466780Y7474379D01*
Y7472701D01*
X9563300D01*
Y7569220D01*
D02*
G37*
G36*
X9685220Y7447301D02*
X9588700D01*
Y7350780D01*
X9590379D01*
X9618157Y7358223D01*
X9643063Y7372602D01*
X9663397Y7392937D01*
X9677777Y7417843D01*
X9685220Y7445621D01*
Y7447301D01*
D02*
G37*
G36*
X9563300D02*
X9466780D01*
Y7445621D01*
X9474223Y7417843D01*
X9488602Y7392937D01*
X9508937Y7372602D01*
X9533843Y7358223D01*
X9561621Y7350780D01*
X9563300D01*
Y7447301D01*
D02*
G37*
G36*
X15317302Y7412909D02*
Y7340600D01*
X15389612D01*
X15384183Y7360863D01*
X15372939Y7380337D01*
X15357039Y7396237D01*
X15337566Y7407480D01*
X15317302Y7412909D01*
D02*
G37*
G36*
X15291902D02*
X15271638Y7407480D01*
X15252167Y7396237D01*
X15236266Y7380337D01*
X15225021Y7360863D01*
X15219592Y7340600D01*
X15291902D01*
Y7412909D01*
D02*
G37*
G36*
X15389612Y7315200D02*
X15317302D01*
Y7242891D01*
X15337566Y7248320D01*
X15357039Y7259563D01*
X15372939Y7275463D01*
X15384183Y7294937D01*
X15389612Y7315200D01*
D02*
G37*
G36*
X15291902D02*
X15219592D01*
X15225021Y7294937D01*
X15236266Y7275463D01*
X15252167Y7259563D01*
X15271638Y7248320D01*
X15291902Y7242891D01*
Y7315200D01*
D02*
G37*
G36*
X11114379Y8331220D02*
X11085621D01*
X11057843Y8323777D01*
X11032937Y8309398D01*
X11012602Y8289063D01*
X10998223Y8264157D01*
X10990780Y8236379D01*
Y8207621D01*
X10998223Y8179843D01*
X11012602Y8154937D01*
X11032937Y8134602D01*
X11057843Y8120223D01*
X11085621Y8112780D01*
X11114379D01*
X11142157Y8120223D01*
X11167063Y8134602D01*
X11187397Y8154937D01*
X11201777Y8179843D01*
X11202761Y8183515D01*
X11556603D01*
X12460159Y7279959D01*
X12460160Y7279958D01*
X12478485Y7267713D01*
X12500101Y7263413D01*
X12500103Y7263414D01*
X13283412D01*
X13295264Y7251562D01*
X13314737Y7240319D01*
X13336456Y7234499D01*
X13358943D01*
X13380663Y7240319D01*
X13400137Y7251562D01*
X13410989Y7262415D01*
X14229315D01*
X14242165Y7249566D01*
X14261639Y7238323D01*
X14283359Y7232503D01*
X14305846D01*
X14327565Y7238323D01*
X14347038Y7249566D01*
X14362939Y7265466D01*
X14374182Y7284939D01*
X14380002Y7306660D01*
Y7329146D01*
X14374182Y7350866D01*
X14362939Y7370339D01*
X14347038Y7386239D01*
X14327565Y7397483D01*
X14305846Y7403302D01*
X14283359D01*
X14261639Y7397483D01*
X14242165Y7386239D01*
X14231313Y7375386D01*
X13412987D01*
X13400137Y7388236D01*
X13380663Y7399479D01*
X13358943Y7405299D01*
X13336456D01*
X13314737Y7399479D01*
X13295264Y7388236D01*
X13283412Y7376384D01*
X12523498D01*
X11619941Y8279941D01*
X11601616Y8292186D01*
X11580000Y8296486D01*
X11579999Y8296485D01*
X11179975D01*
X11167063Y8309398D01*
X11142157Y8323777D01*
X11114379Y8331220D01*
D02*
G37*
G36*
X9590379Y7061220D02*
X9561621D01*
X9533843Y7053777D01*
X9508937Y7039398D01*
X9488602Y7019063D01*
X9482495Y7008485D01*
X8922001D01*
X8922000Y7008486D01*
X8900384Y7004186D01*
X8882059Y6991941D01*
X8036403Y6146285D01*
X7770194D01*
X7765441Y6154517D01*
X7745817Y6174141D01*
X7721783Y6188017D01*
X7694976Y6195200D01*
X7667224D01*
X7640417Y6188017D01*
X7616383Y6174141D01*
X7596759Y6154517D01*
X7582883Y6130483D01*
X7575700Y6103676D01*
Y6075924D01*
X7582883Y6049117D01*
X7596759Y6025083D01*
X7616383Y6005459D01*
X7640417Y5991583D01*
X7667224Y5984400D01*
X7694976D01*
X7721783Y5991583D01*
X7745817Y6005459D01*
X7765441Y6025083D01*
X7770194Y6033315D01*
X8059799D01*
X8059800Y6033315D01*
X8081416Y6037615D01*
X8099741Y6049859D01*
X8945397Y6895515D01*
X9482495D01*
X9488602Y6884937D01*
X9508937Y6864602D01*
X9533843Y6850223D01*
X9561621Y6842780D01*
X9590379D01*
X9618157Y6850223D01*
X9643063Y6864602D01*
X9663397Y6884937D01*
X9677777Y6909843D01*
X9685220Y6937621D01*
Y6966379D01*
X9677777Y6994157D01*
X9663397Y7019063D01*
X9643063Y7039398D01*
X9618157Y7053777D01*
X9590379Y7061220D01*
D02*
G37*
G36*
X15298598Y6787912D02*
Y6715603D01*
X15370908D01*
X15365479Y6735866D01*
X15354234Y6755339D01*
X15338335Y6771239D01*
X15318861Y6782482D01*
X15298598Y6787912D01*
D02*
G37*
G36*
X15273198D02*
X15252934Y6782482D01*
X15233461Y6771239D01*
X15217561Y6755339D01*
X15206319Y6735866D01*
X15200888Y6715603D01*
X15273198D01*
Y6787912D01*
D02*
G37*
G36*
X7744600Y6707112D02*
Y6634803D01*
X7816909D01*
X7811480Y6655066D01*
X7800237Y6674540D01*
X7784337Y6690440D01*
X7764863Y6701683D01*
X7744600Y6707112D01*
D02*
G37*
G36*
X7719200Y6707113D02*
X7698937Y6701683D01*
X7679463Y6690440D01*
X7663563Y6674540D01*
X7652320Y6655066D01*
X7646890Y6634803D01*
X7719200D01*
Y6707113D01*
D02*
G37*
G36*
X15370908Y6690203D02*
X15298598D01*
Y6617893D01*
X15318861Y6623323D01*
X15338335Y6634566D01*
X15354234Y6650466D01*
X15365479Y6669939D01*
X15370908Y6690203D01*
D02*
G37*
G36*
X15273198D02*
X15200888D01*
X15206319Y6669939D01*
X15217561Y6650466D01*
X15233461Y6634566D01*
X15252934Y6623323D01*
X15273198Y6617893D01*
Y6690203D01*
D02*
G37*
G36*
X11114379Y8077220D02*
X11085621D01*
X11057843Y8069777D01*
X11032937Y8055398D01*
X11012602Y8035063D01*
X10998223Y8010157D01*
X10990780Y7982379D01*
Y7953621D01*
X10998223Y7925843D01*
X11012602Y7900937D01*
X11032937Y7880602D01*
X11057843Y7866223D01*
X11085621Y7858780D01*
X11114379D01*
X11142157Y7866223D01*
X11167063Y7880602D01*
X11187397Y7900937D01*
X11193504Y7911515D01*
X11508603D01*
X12640159Y6779959D01*
X12658484Y6767714D01*
X12680100Y6763414D01*
X12680102Y6763415D01*
X13283412D01*
X13295264Y6751563D01*
X13314737Y6740320D01*
X13336456Y6734500D01*
X13358943D01*
X13380663Y6740320D01*
X13400137Y6751563D01*
X13412088Y6763515D01*
X13776604D01*
X13887160Y6652959D01*
X13905484Y6640714D01*
X13927100Y6636414D01*
X13927101Y6636415D01*
X14211613D01*
X14223466Y6624563D01*
X14242940Y6613320D01*
X14264659Y6607500D01*
X14287144D01*
X14308865Y6613320D01*
X14328339Y6624563D01*
X14344238Y6640463D01*
X14355482Y6659937D01*
X14361302Y6681657D01*
Y6704143D01*
X14355482Y6725863D01*
X14344238Y6745337D01*
X14328339Y6761237D01*
X14308865Y6772480D01*
X14287144Y6778300D01*
X14264659D01*
X14242940Y6772480D01*
X14223466Y6761237D01*
X14211613Y6749385D01*
X13950497D01*
X13839941Y6859941D01*
X13821616Y6872186D01*
X13800000Y6876486D01*
X13799998Y6876485D01*
X13411888D01*
X13400137Y6888237D01*
X13380663Y6899480D01*
X13358943Y6905300D01*
X13336456D01*
X13314737Y6899480D01*
X13295264Y6888237D01*
X13283412Y6876385D01*
X12703498D01*
X11571942Y8007941D01*
X11553616Y8020186D01*
X11532000Y8024486D01*
X11531999Y8024485D01*
X11193504D01*
X11187397Y8035063D01*
X11167063Y8055398D01*
X11142157Y8069777D01*
X11114379Y8077220D01*
D02*
G37*
G36*
X9590379Y6807220D02*
X9561621D01*
X9533843Y6799777D01*
X9508937Y6785398D01*
X9488602Y6765063D01*
X9483650Y6756485D01*
X8950000D01*
X8928384Y6752186D01*
X8910059Y6739941D01*
X8910058Y6739941D01*
X8062403Y5892285D01*
X7770194D01*
X7765441Y5900517D01*
X7745817Y5920141D01*
X7721783Y5934017D01*
X7694976Y5941200D01*
X7667224D01*
X7640417Y5934017D01*
X7616383Y5920141D01*
X7596759Y5900517D01*
X7582883Y5876483D01*
X7575700Y5849676D01*
Y5821924D01*
X7582883Y5795117D01*
X7596759Y5771083D01*
X7616383Y5751459D01*
X7640417Y5737583D01*
X7667224Y5730400D01*
X7694976D01*
X7721783Y5737583D01*
X7745817Y5751459D01*
X7765441Y5771083D01*
X7770194Y5779315D01*
X8085799D01*
X8085800Y5779315D01*
X8107416Y5783615D01*
X8125741Y5795859D01*
X8973397Y6643515D01*
X9481341D01*
X9488602Y6630937D01*
X9508937Y6610602D01*
X9533843Y6596223D01*
X9561621Y6588780D01*
X9590379D01*
X9618157Y6596223D01*
X9643063Y6610602D01*
X9663397Y6630937D01*
X9677777Y6655843D01*
X9685220Y6683621D01*
Y6712379D01*
X9677777Y6740157D01*
X9663397Y6765063D01*
X9643063Y6785398D01*
X9618157Y6799777D01*
X9590379Y6807220D01*
D02*
G37*
G36*
X7816909Y6609403D02*
X7744600D01*
Y6537094D01*
X7764863Y6542523D01*
X7784337Y6553766D01*
X7800237Y6569666D01*
X7811480Y6589140D01*
X7816909Y6609403D01*
D02*
G37*
G36*
X7719200D02*
X7646890D01*
X7652320Y6589140D01*
X7663563Y6569666D01*
X7679463Y6553766D01*
X7698937Y6542523D01*
X7719200Y6537093D01*
Y6609403D01*
D02*
G37*
G36*
X9590379Y6553220D02*
X9561621D01*
X9533843Y6545777D01*
X9508937Y6531398D01*
X9488602Y6511063D01*
X9480186Y6496485D01*
X8980001D01*
X8980000Y6496486D01*
X8958384Y6492186D01*
X8940059Y6479941D01*
X8940058Y6479941D01*
X8098403Y5638285D01*
X7770194D01*
X7765441Y5646517D01*
X7745817Y5666141D01*
X7721783Y5680017D01*
X7694976Y5687200D01*
X7667224D01*
X7640417Y5680017D01*
X7616383Y5666141D01*
X7596759Y5646517D01*
X7582883Y5622483D01*
X7575700Y5595676D01*
Y5567924D01*
X7582883Y5541117D01*
X7596759Y5517083D01*
X7616383Y5497459D01*
X7640417Y5483583D01*
X7667224Y5476400D01*
X7694976D01*
X7721783Y5483583D01*
X7745817Y5497459D01*
X7765441Y5517083D01*
X7770194Y5525315D01*
X8121799D01*
X8121800Y5525315D01*
X8143416Y5529615D01*
X8161741Y5541859D01*
X9003397Y6383515D01*
X9484805D01*
X9488602Y6376937D01*
X9508937Y6356602D01*
X9533843Y6342223D01*
X9561621Y6334780D01*
X9590379D01*
X9618157Y6342223D01*
X9643063Y6356602D01*
X9663397Y6376937D01*
X9677777Y6401843D01*
X9685220Y6429621D01*
Y6458379D01*
X9677777Y6486157D01*
X9663397Y6511063D01*
X9643063Y6531398D01*
X9618157Y6545777D01*
X9590379Y6553220D01*
D02*
G37*
G36*
Y6299220D02*
X9561621D01*
X9533843Y6291777D01*
X9508937Y6277398D01*
X9488602Y6257063D01*
X9482495Y6246485D01*
X9020001D01*
X9020000Y6246486D01*
X8998384Y6242186D01*
X8980059Y6229941D01*
X8134403Y5384285D01*
X7770194D01*
X7765441Y5392517D01*
X7745817Y5412141D01*
X7721783Y5426017D01*
X7694976Y5433200D01*
X7667224D01*
X7640417Y5426017D01*
X7616383Y5412141D01*
X7596759Y5392517D01*
X7582883Y5368483D01*
X7575700Y5341676D01*
Y5313924D01*
X7582883Y5287117D01*
X7596759Y5263083D01*
X7616383Y5243459D01*
X7640417Y5229583D01*
X7667224Y5222400D01*
X7694976D01*
X7721783Y5229583D01*
X7745817Y5243459D01*
X7765441Y5263083D01*
X7770194Y5271315D01*
X8157799D01*
X8157800Y5271315D01*
X8179416Y5275615D01*
X8197741Y5287859D01*
X9043397Y6133515D01*
X9482495D01*
X9488602Y6122937D01*
X9508937Y6102602D01*
X9533843Y6088223D01*
X9561621Y6080780D01*
X9590379D01*
X9618157Y6088223D01*
X9643063Y6102602D01*
X9663397Y6122937D01*
X9677777Y6147843D01*
X9685220Y6175621D01*
Y6204379D01*
X9677777Y6232157D01*
X9663397Y6257063D01*
X9643063Y6277398D01*
X9618157Y6291777D01*
X9590379Y6299220D01*
D02*
G37*
G36*
Y6045220D02*
X9561621D01*
X9533843Y6037777D01*
X9508937Y6023398D01*
X9488602Y6003063D01*
X9479031Y5986485D01*
X9010000D01*
X8988384Y5982186D01*
X8970059Y5969941D01*
X8970058Y5969941D01*
X8130403Y5130285D01*
X7770194D01*
X7765441Y5138517D01*
X7745817Y5158141D01*
X7721783Y5172017D01*
X7694976Y5179200D01*
X7667224D01*
X7640417Y5172017D01*
X7616383Y5158141D01*
X7596759Y5138517D01*
X7582883Y5114483D01*
X7575700Y5087676D01*
Y5059924D01*
X7582883Y5033117D01*
X7596759Y5009083D01*
X7616383Y4989459D01*
X7640417Y4975583D01*
X7667224Y4968400D01*
X7694976D01*
X7721783Y4975583D01*
X7745817Y4989459D01*
X7765441Y5009083D01*
X7770194Y5017315D01*
X8153799D01*
X8153800Y5017315D01*
X8175416Y5021615D01*
X8193741Y5033859D01*
X9033397Y5873515D01*
X9485959D01*
X9488602Y5868937D01*
X9508937Y5848602D01*
X9533843Y5834223D01*
X9561621Y5826780D01*
X9590379D01*
X9618157Y5834223D01*
X9643063Y5848602D01*
X9663397Y5868937D01*
X9677777Y5893843D01*
X9685220Y5921621D01*
Y5950379D01*
X9677777Y5978157D01*
X9663397Y6003063D01*
X9643063Y6023398D01*
X9618157Y6037777D01*
X9590379Y6045220D01*
D02*
G37*
G36*
Y5791220D02*
X9561621D01*
X9533843Y5783777D01*
X9508937Y5769398D01*
X9488602Y5749063D01*
X9481341Y5736485D01*
X9010000D01*
X8988384Y5732186D01*
X8970059Y5719941D01*
X8970058Y5719941D01*
X8126403Y4876285D01*
X7770194D01*
X7765441Y4884517D01*
X7745817Y4904141D01*
X7721783Y4918017D01*
X7694976Y4925200D01*
X7667224D01*
X7640417Y4918017D01*
X7616383Y4904141D01*
X7596759Y4884517D01*
X7582883Y4860483D01*
X7575700Y4833676D01*
Y4805924D01*
X7582883Y4779117D01*
X7596759Y4755083D01*
X7616383Y4735459D01*
X7640417Y4721583D01*
X7667224Y4714400D01*
X7694976D01*
X7721783Y4721583D01*
X7745817Y4735459D01*
X7765441Y4755083D01*
X7770194Y4763315D01*
X8149799D01*
X8149800Y4763315D01*
X8171416Y4767615D01*
X8189741Y4779859D01*
X9033397Y5623515D01*
X9483650D01*
X9488602Y5614937D01*
X9508937Y5594602D01*
X9533843Y5580223D01*
X9561621Y5572780D01*
X9590379D01*
X9618157Y5580223D01*
X9643063Y5594602D01*
X9663397Y5614937D01*
X9677777Y5639843D01*
X9685220Y5667621D01*
Y5696379D01*
X9677777Y5724157D01*
X9663397Y5749063D01*
X9643063Y5769398D01*
X9618157Y5783777D01*
X9590379Y5791220D01*
D02*
G37*
G36*
X15021753Y5694800D02*
X14994000D01*
X14967194Y5687617D01*
X14943159Y5673741D01*
X14923535Y5654117D01*
X14909659Y5630083D01*
X14902477Y5603276D01*
Y5575524D01*
X14909659Y5548717D01*
X14923535Y5524683D01*
X14943159Y5505059D01*
X14967194Y5491183D01*
X14994000Y5484000D01*
X15021753D01*
X15048560Y5491183D01*
X15072594Y5505059D01*
X15092216Y5524683D01*
X15103090Y5543515D01*
X15415710D01*
X15427563Y5531663D01*
X15447037Y5520420D01*
X15468758Y5514600D01*
X15491243D01*
X15512962Y5520420D01*
X15532437Y5531663D01*
X15548337Y5547563D01*
X15559579Y5567037D01*
X15565401Y5588757D01*
Y5611243D01*
X15559579Y5632963D01*
X15548337Y5652437D01*
X15532437Y5668337D01*
X15512962Y5679580D01*
X15491243Y5685400D01*
X15468758D01*
X15447037Y5679580D01*
X15427563Y5668337D01*
X15415710Y5656485D01*
X15089848D01*
X15072594Y5673741D01*
X15048560Y5687617D01*
X15021753Y5694800D01*
D02*
G37*
G36*
Y5440800D02*
X15020576D01*
Y5348100D01*
X15113277D01*
Y5349276D01*
X15106093Y5376083D01*
X15092216Y5400117D01*
X15072594Y5419741D01*
X15048560Y5433617D01*
X15021753Y5440800D01*
D02*
G37*
G36*
X14767754D02*
X14766576D01*
Y5348100D01*
X14859276D01*
Y5349276D01*
X14852094Y5376083D01*
X14838217Y5400117D01*
X14818593Y5419741D01*
X14794559Y5433617D01*
X14767754Y5440800D01*
D02*
G37*
G36*
X14995177D02*
X14994000D01*
X14967194Y5433617D01*
X14943159Y5419741D01*
X14923535Y5400117D01*
X14909659Y5376083D01*
X14902477Y5349276D01*
Y5348100D01*
X14995177D01*
Y5440800D01*
D02*
G37*
G36*
X14741176D02*
X14739999D01*
X14713193Y5433617D01*
X14689159Y5419741D01*
X14669534Y5400117D01*
X14655659Y5376083D01*
X14648476Y5349276D01*
Y5348100D01*
X14741176D01*
Y5440800D01*
D02*
G37*
G36*
X9590379Y5537220D02*
X9561621D01*
X9533843Y5529777D01*
X9508937Y5515398D01*
X9488602Y5495063D01*
X9483650Y5486485D01*
X9010000D01*
X8988384Y5482186D01*
X8970059Y5469941D01*
X8970058Y5469941D01*
X8122403Y4622285D01*
X7770194D01*
X7765441Y4630517D01*
X7745817Y4650141D01*
X7721783Y4664017D01*
X7694976Y4671200D01*
X7667224D01*
X7640417Y4664017D01*
X7616383Y4650141D01*
X7596759Y4630517D01*
X7582883Y4606483D01*
X7575700Y4579676D01*
Y4551924D01*
X7582883Y4525117D01*
X7596759Y4501083D01*
X7616383Y4481459D01*
X7640417Y4467583D01*
X7667224Y4460400D01*
X7694976D01*
X7721783Y4467583D01*
X7745817Y4481459D01*
X7765441Y4501083D01*
X7770194Y4509315D01*
X8145799D01*
X8145800Y4509315D01*
X8167416Y4513615D01*
X8185741Y4525859D01*
X9033397Y5373515D01*
X9481341D01*
X9488602Y5360937D01*
X9508937Y5340602D01*
X9533843Y5326223D01*
X9561621Y5318780D01*
X9590379D01*
X9618157Y5326223D01*
X9643063Y5340602D01*
X9663397Y5360937D01*
X9677777Y5385843D01*
X9685220Y5413621D01*
Y5442379D01*
X9677777Y5470157D01*
X9663397Y5495063D01*
X9643063Y5515398D01*
X9618157Y5529777D01*
X9590379Y5537220D01*
D02*
G37*
G36*
Y5283220D02*
X9561621D01*
X9533843Y5275777D01*
X9508937Y5261398D01*
X9488602Y5241063D01*
X9485959Y5236485D01*
X9030001D01*
X9030000Y5236486D01*
X9008384Y5232186D01*
X8990059Y5219941D01*
X8990058Y5219941D01*
X8138403Y4368285D01*
X7770194D01*
X7765441Y4376517D01*
X7745817Y4396141D01*
X7721783Y4410017D01*
X7694976Y4417200D01*
X7667224D01*
X7640417Y4410017D01*
X7616383Y4396141D01*
X7596759Y4376517D01*
X7582883Y4352483D01*
X7575700Y4325676D01*
Y4297924D01*
X7582883Y4271117D01*
X7596759Y4247083D01*
X7616383Y4227459D01*
X7640417Y4213583D01*
X7667224Y4206400D01*
X7694976D01*
X7721783Y4213583D01*
X7745817Y4227459D01*
X7765441Y4247083D01*
X7770194Y4255315D01*
X8161799D01*
X8161800Y4255315D01*
X8183416Y4259615D01*
X8201741Y4271859D01*
X9053397Y5123515D01*
X9479031D01*
X9488602Y5106937D01*
X9508937Y5086602D01*
X9533843Y5072223D01*
X9561621Y5064780D01*
X9590379D01*
X9618157Y5072223D01*
X9643063Y5086602D01*
X9663397Y5106937D01*
X9677777Y5131843D01*
X9685220Y5159621D01*
Y5188379D01*
X9677777Y5216157D01*
X9663397Y5241063D01*
X9643063Y5261398D01*
X9618157Y5275777D01*
X9590379Y5283220D01*
D02*
G37*
G36*
X15113277Y5322700D02*
X15020576D01*
Y5230000D01*
X15021753D01*
X15048560Y5237183D01*
X15072594Y5251059D01*
X15092216Y5270683D01*
X15106093Y5294717D01*
X15113277Y5321524D01*
Y5322700D01*
D02*
G37*
G36*
X14995177D02*
X14902477D01*
Y5321524D01*
X14909659Y5294717D01*
X14923535Y5270683D01*
X14943159Y5251059D01*
X14967194Y5237183D01*
X14994000Y5230000D01*
X14995177D01*
Y5322700D01*
D02*
G37*
G36*
X14859276D02*
X14766576D01*
Y5230000D01*
X14767754D01*
X14794559Y5237183D01*
X14818593Y5251059D01*
X14838217Y5270683D01*
X14852094Y5294717D01*
X14859276Y5321524D01*
Y5322700D01*
D02*
G37*
G36*
X14741176D02*
X14648476D01*
Y5321524D01*
X14655659Y5294717D01*
X14669534Y5270683D01*
X14689159Y5251059D01*
X14713193Y5237183D01*
X14739999Y5230000D01*
X14741176D01*
Y5322700D01*
D02*
G37*
G36*
X11114379Y6299220D02*
X11085621D01*
X11057843Y6291777D01*
X11032937Y6277398D01*
X11012602Y6257063D01*
X10998223Y6232157D01*
X10990780Y6204379D01*
Y6175621D01*
X10998223Y6147843D01*
X11012602Y6122937D01*
X11032937Y6102602D01*
X11057843Y6088223D01*
X11085621Y6080780D01*
X11114379D01*
X11142157Y6088223D01*
X11167063Y6102602D01*
X11187397Y6122937D01*
X11193504Y6133515D01*
X11706603D01*
X12614058Y5226059D01*
X12614059Y5226059D01*
X12632384Y5213814D01*
X12654000Y5209515D01*
X13230907D01*
X13235658Y5201283D01*
X13255283Y5181659D01*
X13279317Y5167783D01*
X13306123Y5160600D01*
X13333876D01*
X13360683Y5167783D01*
X13384717Y5181659D01*
X13404341Y5201283D01*
X13418217Y5225317D01*
X13425400Y5252124D01*
Y5279876D01*
X13418217Y5306683D01*
X13404341Y5330717D01*
X13384717Y5350341D01*
X13360683Y5364217D01*
X13333876Y5371400D01*
X13306123D01*
X13279317Y5364217D01*
X13255283Y5350341D01*
X13235658Y5330717D01*
X13230907Y5322485D01*
X12677397D01*
X11769941Y6229941D01*
X11751616Y6242186D01*
X11730000Y6246486D01*
X11729999Y6246485D01*
X11193504D01*
X11187397Y6257063D01*
X11167063Y6277398D01*
X11142157Y6291777D01*
X11114379Y6299220D01*
D02*
G37*
G36*
X15021753Y5186800D02*
X15020576D01*
Y5094100D01*
X15113277D01*
Y5095276D01*
X15106093Y5122083D01*
X15092216Y5146117D01*
X15072594Y5165741D01*
X15048560Y5179617D01*
X15021753Y5186800D01*
D02*
G37*
G36*
X14995177D02*
X14994000D01*
X14967194Y5179617D01*
X14943159Y5165741D01*
X14923535Y5146117D01*
X14909659Y5122083D01*
X14902477Y5095276D01*
Y5094100D01*
X14995177D01*
Y5186800D01*
D02*
G37*
G36*
X15113277Y5068700D02*
X15020576D01*
Y4976000D01*
X15021753D01*
X15048560Y4983183D01*
X15072594Y4997059D01*
X15092216Y5016683D01*
X15106093Y5040717D01*
X15113277Y5067524D01*
Y5068700D01*
D02*
G37*
G36*
X14995177D02*
X14902477D01*
Y5067524D01*
X14909659Y5040717D01*
X14923535Y5016683D01*
X14943159Y4997059D01*
X14967194Y4983183D01*
X14994000Y4976000D01*
X14995177D01*
Y5068700D01*
D02*
G37*
G36*
X11114379Y6045220D02*
X11085621D01*
X11057843Y6037777D01*
X11032937Y6023398D01*
X11012602Y6003063D01*
X10998223Y5978157D01*
X10990780Y5950379D01*
Y5921621D01*
X10998223Y5893843D01*
X11012602Y5868937D01*
X11032937Y5848602D01*
X11057843Y5834223D01*
X11085621Y5826780D01*
X11114379D01*
X11142157Y5834223D01*
X11167063Y5848602D01*
X11187397Y5868937D01*
X11190040Y5873515D01*
X11706603D01*
X12608058Y4972059D01*
X12608059Y4972059D01*
X12626384Y4959814D01*
X12648000Y4955514D01*
X12648001Y4955515D01*
X13230907D01*
X13235658Y4947283D01*
X13255283Y4927659D01*
X13279317Y4913783D01*
X13306123Y4906600D01*
X13333876D01*
X13360683Y4913783D01*
X13384717Y4927659D01*
X13404341Y4947283D01*
X13418217Y4971317D01*
X13425400Y4998124D01*
Y5025876D01*
X13418217Y5052683D01*
X13404341Y5076717D01*
X13384717Y5096341D01*
X13360683Y5110217D01*
X13333876Y5117400D01*
X13306123D01*
X13279317Y5110217D01*
X13255283Y5096341D01*
X13235658Y5076717D01*
X13230907Y5068485D01*
X12671397D01*
X11769941Y5969941D01*
X11751616Y5982186D01*
X11730000Y5986486D01*
X11729999Y5986485D01*
X11196968D01*
X11187397Y6003063D01*
X11167063Y6023398D01*
X11142157Y6037777D01*
X11114379Y6045220D01*
D02*
G37*
G36*
X15021753Y4932800D02*
X15020576D01*
Y4840100D01*
X15113277D01*
Y4841276D01*
X15106093Y4868083D01*
X15092216Y4892117D01*
X15072594Y4911741D01*
X15048560Y4925617D01*
X15021753Y4932800D01*
D02*
G37*
G36*
X14995177D02*
X14994000D01*
X14967194Y4925617D01*
X14943159Y4911741D01*
X14923535Y4892117D01*
X14909659Y4868083D01*
X14902477Y4841276D01*
Y4840100D01*
X14995177D01*
Y4932800D01*
D02*
G37*
G36*
X15113277Y4814700D02*
X15020576D01*
Y4722000D01*
X15021753D01*
X15048560Y4729183D01*
X15072594Y4743059D01*
X15092216Y4762683D01*
X15106093Y4786717D01*
X15113277Y4813524D01*
Y4814700D01*
D02*
G37*
G36*
X14995177D02*
X14902477D01*
Y4813524D01*
X14909659Y4786717D01*
X14923535Y4762683D01*
X14943159Y4743059D01*
X14967194Y4729183D01*
X14994000Y4722000D01*
X14995177D01*
Y4814700D01*
D02*
G37*
G36*
X11114379Y7061220D02*
X11085621D01*
X11057843Y7053777D01*
X11032937Y7039398D01*
X11012602Y7019063D01*
X10998223Y6994157D01*
X10990780Y6966379D01*
Y6937621D01*
X10998223Y6909843D01*
X11012602Y6884937D01*
X11032937Y6864602D01*
X11057843Y6850223D01*
X11085621Y6842780D01*
X11114379D01*
X11142157Y6850223D01*
X11167063Y6864602D01*
X11185975Y6883515D01*
X11776603D01*
X12672058Y5988059D01*
X12672059Y5988059D01*
X12690384Y5975814D01*
X12712000Y5971515D01*
X13230907D01*
X13235658Y5963283D01*
X13255283Y5943659D01*
X13279317Y5929783D01*
X13306123Y5922600D01*
X13333876D01*
X13360683Y5929783D01*
X13384717Y5943659D01*
X13404341Y5963283D01*
X13410248Y5973515D01*
X13941455D01*
X13943515Y5971456D01*
Y5230001D01*
X13943513Y5230000D01*
X13947813Y5208384D01*
X13960059Y5190059D01*
X14362659Y4787459D01*
X14362659Y4787459D01*
X14380984Y4775214D01*
X14402600Y4770914D01*
X14402602Y4770915D01*
X14664783D01*
X14669534Y4762683D01*
X14689159Y4743059D01*
X14713193Y4729183D01*
X14739999Y4722000D01*
X14767754D01*
X14794559Y4729183D01*
X14818593Y4743059D01*
X14838217Y4762683D01*
X14852094Y4786717D01*
X14859276Y4813524D01*
Y4841276D01*
X14852094Y4868083D01*
X14838217Y4892117D01*
X14818593Y4911741D01*
X14794559Y4925617D01*
X14767754Y4932800D01*
X14739999D01*
X14713193Y4925617D01*
X14689159Y4911741D01*
X14669534Y4892117D01*
X14664783Y4883885D01*
X14425996D01*
X14056485Y5253397D01*
Y5994851D01*
X14056485Y5994853D01*
X14052187Y6016469D01*
X14039941Y6034794D01*
X14039940Y6034794D01*
X14004794Y6069941D01*
X13986469Y6082185D01*
X13964853Y6086485D01*
X13964851Y6086485D01*
X13407939D01*
X13404341Y6092717D01*
X13384717Y6112341D01*
X13360683Y6126217D01*
X13333876Y6133400D01*
X13306123D01*
X13279317Y6126217D01*
X13255283Y6112341D01*
X13235658Y6092717D01*
X13230907Y6084485D01*
X12735397D01*
X11839941Y6979941D01*
X11821616Y6992186D01*
X11800000Y6996486D01*
X11799999Y6996485D01*
X11200433D01*
X11187397Y7019063D01*
X11167063Y7039398D01*
X11142157Y7053777D01*
X11114379Y7061220D01*
D02*
G37*
G36*
Y5791220D02*
X11085621D01*
X11057843Y5783777D01*
X11032937Y5769398D01*
X11012602Y5749063D01*
X10998223Y5724157D01*
X10990780Y5696379D01*
Y5667621D01*
X10998223Y5639843D01*
X11012602Y5614937D01*
X11032937Y5594602D01*
X11057843Y5580223D01*
X11085621Y5572780D01*
X11114379D01*
X11142157Y5580223D01*
X11167063Y5594602D01*
X11187397Y5614937D01*
X11198123Y5633515D01*
X11706603D01*
X12622059Y4718059D01*
X12622059Y4718059D01*
X12640384Y4705814D01*
X12662000Y4701514D01*
X12662002Y4701515D01*
X13230907D01*
X13235658Y4693283D01*
X13255283Y4673659D01*
X13279317Y4659783D01*
X13306123Y4652600D01*
X13333876D01*
X13360683Y4659783D01*
X13384717Y4673659D01*
X13404341Y4693283D01*
X13418217Y4717317D01*
X13425400Y4744124D01*
Y4771876D01*
X13418217Y4798683D01*
X13404341Y4822717D01*
X13384717Y4842341D01*
X13360683Y4856217D01*
X13333876Y4863400D01*
X13306123D01*
X13279317Y4856217D01*
X13255283Y4842341D01*
X13235658Y4822717D01*
X13230907Y4814485D01*
X12685397D01*
X11769941Y5729941D01*
X11751616Y5742186D01*
X11730000Y5746486D01*
X11729999Y5746485D01*
X11188885D01*
X11187397Y5749063D01*
X11167063Y5769398D01*
X11142157Y5783777D01*
X11114379Y5791220D01*
D02*
G37*
G36*
X15021753Y4678800D02*
X15020576D01*
Y4586100D01*
X15113277D01*
Y4587276D01*
X15106093Y4614083D01*
X15092216Y4638117D01*
X15072594Y4657741D01*
X15048560Y4671617D01*
X15021753Y4678800D01*
D02*
G37*
G36*
X14995177D02*
X14994000D01*
X14967194Y4671617D01*
X14943159Y4657741D01*
X14923535Y4638117D01*
X14909659Y4614083D01*
X14902477Y4587276D01*
Y4586100D01*
X14995177D01*
Y4678800D01*
D02*
G37*
G36*
X15113277Y4560700D02*
X15020576D01*
Y4468000D01*
X15021753D01*
X15048560Y4475183D01*
X15072594Y4489059D01*
X15092216Y4508683D01*
X15106093Y4532717D01*
X15113277Y4559524D01*
Y4560700D01*
D02*
G37*
G36*
X14995177D02*
X14902477D01*
Y4559524D01*
X14909659Y4532717D01*
X14923535Y4508683D01*
X14943159Y4489059D01*
X14967194Y4475183D01*
X14994000Y4468000D01*
X14995177D01*
Y4560700D01*
D02*
G37*
G36*
X11114379Y6807220D02*
X11085621D01*
X11057843Y6799777D01*
X11032937Y6785398D01*
X11012602Y6765063D01*
X10998223Y6740157D01*
X10990780Y6712379D01*
Y6683621D01*
X10998223Y6655843D01*
X11012602Y6630937D01*
X11032937Y6610602D01*
X11057843Y6596223D01*
X11085621Y6588780D01*
X11114379D01*
X11142157Y6596223D01*
X11167063Y6610602D01*
X11187397Y6630937D01*
X11194659Y6643515D01*
X11716603D01*
X12626059Y5734059D01*
X12626059Y5734059D01*
X12644384Y5721814D01*
X12666000Y5717514D01*
X12666002Y5717515D01*
X13230907D01*
X13235658Y5709283D01*
X13255283Y5689659D01*
X13279317Y5675783D01*
X13306123Y5668600D01*
X13333876D01*
X13360683Y5675783D01*
X13384717Y5689659D01*
X13404341Y5709283D01*
X13409094Y5717515D01*
X13742603D01*
X13753516Y5706603D01*
Y5170001D01*
X13753516Y5170000D01*
X13757814Y5148384D01*
X13770059Y5130059D01*
X14366658Y4533459D01*
X14366660Y4533459D01*
X14384984Y4521214D01*
X14406599Y4516914D01*
X14406601Y4516915D01*
X14664783D01*
X14669534Y4508683D01*
X14689159Y4489059D01*
X14713193Y4475183D01*
X14739999Y4468000D01*
X14767754D01*
X14794559Y4475183D01*
X14818593Y4489059D01*
X14838217Y4508683D01*
X14852094Y4532717D01*
X14859276Y4559524D01*
Y4587276D01*
X14852094Y4614083D01*
X14838217Y4638117D01*
X14818593Y4657741D01*
X14794559Y4671617D01*
X14767754Y4678800D01*
X14739999D01*
X14713193Y4671617D01*
X14689159Y4657741D01*
X14669534Y4638117D01*
X14664783Y4629885D01*
X14429997D01*
X13866486Y5193397D01*
Y5730000D01*
X13862186Y5751616D01*
X13849940Y5769941D01*
X13849940Y5769942D01*
X13805940Y5813941D01*
X13787616Y5826185D01*
X13766000Y5830485D01*
X13765999Y5830485D01*
X13409094D01*
X13404341Y5838717D01*
X13384717Y5858341D01*
X13360683Y5872217D01*
X13333876Y5879400D01*
X13306123D01*
X13279317Y5872217D01*
X13255283Y5858341D01*
X13235658Y5838717D01*
X13230907Y5830485D01*
X12689397D01*
X11779941Y6739941D01*
X11761616Y6752186D01*
X11740000Y6756486D01*
X11739999Y6756485D01*
X11192350D01*
X11187397Y6765063D01*
X11167063Y6785398D01*
X11142157Y6799777D01*
X11114379Y6807220D01*
D02*
G37*
G36*
Y5537220D02*
X11085621D01*
X11057843Y5529777D01*
X11032937Y5515398D01*
X11012602Y5495063D01*
X10998223Y5470157D01*
X10990780Y5442379D01*
Y5413621D01*
X10998223Y5385843D01*
X11012602Y5360937D01*
X11032937Y5340602D01*
X11057843Y5326223D01*
X11085621Y5318780D01*
X11114379D01*
X11142157Y5326223D01*
X11167063Y5340602D01*
X11187397Y5360937D01*
X11188885Y5363515D01*
X11706603D01*
X12606059Y4464059D01*
X12606059Y4464059D01*
X12624384Y4451814D01*
X12646000Y4447515D01*
X13230907D01*
X13235658Y4439283D01*
X13255283Y4419659D01*
X13279317Y4405783D01*
X13306123Y4398600D01*
X13333876D01*
X13360683Y4405783D01*
X13384717Y4419659D01*
X13404341Y4439283D01*
X13418217Y4463317D01*
X13425400Y4490124D01*
Y4517876D01*
X13418217Y4544683D01*
X13404341Y4568717D01*
X13384717Y4588341D01*
X13360683Y4602217D01*
X13333876Y4609400D01*
X13306123D01*
X13279317Y4602217D01*
X13255283Y4588341D01*
X13235658Y4568717D01*
X13230907Y4560485D01*
X12669397D01*
X11769941Y5459941D01*
X11751616Y5472186D01*
X11730000Y5476486D01*
X11729999Y5476485D01*
X11198123D01*
X11187397Y5495063D01*
X11167063Y5515398D01*
X11142157Y5529777D01*
X11114379Y5537220D01*
D02*
G37*
G36*
Y6553220D02*
X11085621D01*
X11057843Y6545777D01*
X11032937Y6531398D01*
X11012602Y6511063D01*
X10998223Y6486157D01*
X10990780Y6458379D01*
Y6429621D01*
X10998223Y6401843D01*
X11012602Y6376937D01*
X11032937Y6356602D01*
X11057843Y6342223D01*
X11085621Y6334780D01*
X11114379D01*
X11142157Y6342223D01*
X11167063Y6356602D01*
X11187397Y6376937D01*
X11196968Y6393515D01*
X11706603D01*
X12620059Y5480059D01*
X12638384Y5467814D01*
X12660000Y5463514D01*
X12660001Y5463515D01*
X13230907D01*
X13235658Y5455283D01*
X13255283Y5435659D01*
X13279317Y5421783D01*
X13306123Y5414600D01*
X13333876D01*
X13360683Y5421783D01*
X13384717Y5435659D01*
X13404341Y5455283D01*
X13409094Y5463515D01*
X13571455D01*
X13573515Y5461456D01*
Y5060001D01*
X13573514Y5060000D01*
X13577814Y5038384D01*
X13590059Y5020059D01*
X14360059Y4250060D01*
X14360059Y4250059D01*
X14378384Y4237814D01*
X14400000Y4233515D01*
X14400002Y4233515D01*
X15684853D01*
X15684853Y4233515D01*
X15706470Y4237814D01*
X15724794Y4250059D01*
X15759941Y4285206D01*
X15759941Y4285206D01*
X15772186Y4303531D01*
X15776486Y4325147D01*
X15776485Y4325149D01*
Y5814851D01*
X15776486Y5814853D01*
X15772186Y5836469D01*
X15759941Y5854794D01*
X15759941Y5854794D01*
X15724794Y5889941D01*
X15706470Y5902186D01*
X15684853Y5906486D01*
X15684853Y5906485D01*
X14789024D01*
X14789024Y5906486D01*
X14767409Y5902186D01*
X14749081Y5889941D01*
X14749081Y5889940D01*
X14713934Y5854794D01*
X14701691Y5836469D01*
X14697391Y5814853D01*
X14697391Y5814851D01*
Y5678493D01*
X14689159Y5673741D01*
X14669534Y5654117D01*
X14655659Y5630083D01*
X14648476Y5603276D01*
Y5575524D01*
X14655659Y5548717D01*
X14669534Y5524683D01*
X14689159Y5505059D01*
X14713193Y5491183D01*
X14739999Y5484000D01*
X14767754D01*
X14794559Y5491183D01*
X14818593Y5505059D01*
X14838217Y5524683D01*
X14852094Y5548717D01*
X14859276Y5575524D01*
Y5603276D01*
X14852094Y5630083D01*
X14838217Y5654117D01*
X14818593Y5673741D01*
X14810362Y5678493D01*
Y5791456D01*
X14812421Y5793515D01*
X15661456D01*
X15663515Y5791456D01*
Y4348544D01*
X15661456Y4346485D01*
X14423396D01*
X13686485Y5083397D01*
Y5484851D01*
X13686485Y5484853D01*
X13682185Y5506469D01*
X13669942Y5524794D01*
X13669940Y5524794D01*
X13634795Y5559941D01*
X13616469Y5572185D01*
X13594853Y5576485D01*
X13594852Y5576485D01*
X13409094D01*
X13404341Y5584717D01*
X13384717Y5604341D01*
X13360683Y5618217D01*
X13333876Y5625400D01*
X13306123D01*
X13279317Y5618217D01*
X13255283Y5604341D01*
X13235658Y5584717D01*
X13230907Y5576485D01*
X12683397D01*
X11769941Y6489941D01*
X11751616Y6502186D01*
X11730000Y6506486D01*
X11729999Y6506485D01*
X11190040D01*
X11187397Y6511063D01*
X11167063Y6531398D01*
X11142157Y6545777D01*
X11114379Y6553220D01*
D02*
G37*
G36*
X11209220Y5283220D02*
X10990780D01*
Y5064780D01*
X11209220D01*
Y5113515D01*
X11706603D01*
X12610058Y4210059D01*
X12610059Y4210059D01*
X12628384Y4197814D01*
X12650000Y4193515D01*
X13230907D01*
X13235658Y4185283D01*
X13255283Y4165659D01*
X13279317Y4151783D01*
X13306123Y4144600D01*
X13333876D01*
X13360683Y4151783D01*
X13384717Y4165659D01*
X13404341Y4185283D01*
X13418217Y4209317D01*
X13425400Y4236124D01*
Y4263876D01*
X13418217Y4290683D01*
X13404341Y4314717D01*
X13384717Y4334341D01*
X13360683Y4348217D01*
X13333876Y4355400D01*
X13306123D01*
X13279317Y4348217D01*
X13255283Y4334341D01*
X13235658Y4314717D01*
X13230907Y4306485D01*
X12673397D01*
X11769941Y5209941D01*
X11751616Y5222186D01*
X11730000Y5226486D01*
X11729999Y5226485D01*
X11209220D01*
Y5283220D01*
D02*
G37*
G36*
X11114379Y7315220D02*
X11085621D01*
X11057843Y7307777D01*
X11032937Y7293398D01*
X11012602Y7273063D01*
X10998223Y7248157D01*
X10990780Y7220379D01*
Y7191621D01*
X10998223Y7163843D01*
X11012602Y7138937D01*
X11032937Y7118602D01*
X11057843Y7104223D01*
X11085621Y7096780D01*
X11114379D01*
X11142157Y7104223D01*
X11167063Y7118602D01*
X11187397Y7138937D01*
X11193504Y7149515D01*
X11850603D01*
X12750058Y6250060D01*
X12750059Y6250059D01*
X12768384Y6237815D01*
X12790000Y6233515D01*
X12790001Y6233515D01*
X14433514D01*
Y5116548D01*
X14433514Y5116547D01*
X14437814Y5094931D01*
X14450060Y5076606D01*
X14485205Y5041459D01*
X14485207Y5041459D01*
X14503531Y5029214D01*
X14525146Y5024914D01*
X14525148Y5024915D01*
X14664783D01*
X14669534Y5016683D01*
X14689159Y4997059D01*
X14713193Y4983183D01*
X14739999Y4976000D01*
X14767754D01*
X14794559Y4983183D01*
X14818593Y4997059D01*
X14838217Y5016683D01*
X14852094Y5040717D01*
X14859276Y5067524D01*
Y5095276D01*
X14852094Y5122083D01*
X14838217Y5146117D01*
X14818593Y5165741D01*
X14794559Y5179617D01*
X14767754Y5186800D01*
X14739999D01*
X14713193Y5179617D01*
X14689159Y5165741D01*
X14669534Y5146117D01*
X14664783Y5137885D01*
X14548544D01*
X14546484Y5139944D01*
Y6233515D01*
X15871455D01*
X15873515Y6231456D01*
Y4058544D01*
X15871455Y4056485D01*
X12345149D01*
X12345147Y4056485D01*
X12323531Y4052185D01*
X12305206Y4039941D01*
X12305206Y4039940D01*
X12270059Y4004794D01*
X12257814Y3986469D01*
X12253514Y3964853D01*
X12253515Y3964851D01*
Y3274288D01*
X12245712Y3266485D01*
X11764288D01*
X11752436Y3278337D01*
X11732963Y3289580D01*
X11711243Y3295400D01*
X11688757D01*
X11667037Y3289580D01*
X11647563Y3278337D01*
X11631663Y3262437D01*
X11620420Y3242963D01*
X11614600Y3221243D01*
Y3198757D01*
X11620420Y3177037D01*
X11631663Y3157563D01*
X11647563Y3141663D01*
X11667037Y3130420D01*
X11688757Y3124600D01*
X11711243D01*
X11732963Y3130420D01*
X11752436Y3141663D01*
X11764288Y3153515D01*
X12245712D01*
X12257563Y3141663D01*
X12277037Y3130420D01*
X12298757Y3124600D01*
X12321243D01*
X12342963Y3130420D01*
X12362437Y3141663D01*
X12378337Y3157563D01*
X12389580Y3177037D01*
X12395400Y3198757D01*
Y3221243D01*
X12389580Y3242963D01*
X12378337Y3262437D01*
X12366485Y3274288D01*
Y3941455D01*
X12368544Y3943515D01*
X15894852D01*
X15894853Y3943514D01*
X15916469Y3947814D01*
X15934795Y3960059D01*
X15969940Y3995205D01*
X15969942Y3995206D01*
X15982185Y4013531D01*
X15986485Y4035147D01*
X15986485Y4035148D01*
Y6254852D01*
X15986485Y6254853D01*
X15982185Y6276469D01*
X15969942Y6294794D01*
X15969940Y6294795D01*
X15934795Y6329941D01*
X15916469Y6342186D01*
X15894853Y6346486D01*
X15894852Y6346485D01*
X12813397D01*
X11913941Y7245941D01*
X11895616Y7258186D01*
X11874000Y7262486D01*
X11873999Y7262485D01*
X11193504D01*
X11187397Y7273063D01*
X11167063Y7293398D01*
X11142157Y7307777D01*
X11114379Y7315220D01*
D02*
G37*
G36*
X10463205Y3660300D02*
X10462700D01*
Y3572700D01*
X10550300D01*
Y3573205D01*
X10543465Y3598714D01*
X10530260Y3621586D01*
X10511586Y3640260D01*
X10488714Y3653465D01*
X10463205Y3660300D01*
D02*
G37*
G36*
X10437300D02*
X10436795D01*
X10411286Y3653465D01*
X10388414Y3640260D01*
X10369740Y3621586D01*
X10356535Y3598714D01*
X10349700Y3573205D01*
Y3572700D01*
X10437300D01*
Y3660300D01*
D02*
G37*
G36*
X10550300Y3547300D02*
X10462700D01*
Y3459700D01*
X10463205D01*
X10488714Y3466535D01*
X10511586Y3479740D01*
X10530260Y3498414D01*
X10543465Y3521286D01*
X10550300Y3546795D01*
Y3547300D01*
D02*
G37*
G36*
X10437300D02*
X10349700D01*
Y3546795D01*
X10356535Y3521286D01*
X10369740Y3498414D01*
X10388414Y3479740D01*
X10411286Y3466535D01*
X10436795Y3459700D01*
X10437300D01*
Y3547300D01*
D02*
G37*
G36*
X10112700Y3335010D02*
Y3262700D01*
X10185009D01*
X10179580Y3282963D01*
X10168337Y3302437D01*
X10152436Y3318337D01*
X10132963Y3329580D01*
X10112700Y3335010D01*
D02*
G37*
G36*
X10087300D02*
X10067037Y3329580D01*
X10047563Y3318337D01*
X10031663Y3302437D01*
X10020420Y3282963D01*
X10014990Y3262700D01*
X10087300D01*
Y3335010D01*
D02*
G37*
G36*
X10185009Y3237300D02*
X10112700D01*
Y3164991D01*
X10132963Y3170420D01*
X10152436Y3181663D01*
X10168337Y3197563D01*
X10179580Y3217037D01*
X10185009Y3237300D01*
D02*
G37*
G36*
X10087300D02*
X10014990D01*
X10020420Y3217037D01*
X10031663Y3197563D01*
X10047563Y3181663D01*
X10067037Y3170420D01*
X10087300Y3164991D01*
Y3237300D01*
D02*
G37*
G36*
X8216150Y3363150D02*
X7983850D01*
Y3130850D01*
X8216150D01*
Y3200515D01*
X8519959D01*
X8521663Y3197563D01*
X8537563Y3181663D01*
X8557037Y3170420D01*
X8578757Y3164600D01*
X8601243D01*
X8622963Y3170420D01*
X8642437Y3181663D01*
X8658337Y3197563D01*
X8669580Y3217037D01*
X8675400Y3238757D01*
Y3261243D01*
X8669580Y3282963D01*
X8658337Y3302437D01*
X8642437Y3318337D01*
X8622963Y3329580D01*
X8601243Y3335400D01*
X8578757D01*
X8557037Y3329580D01*
X8537563Y3318337D01*
X8532712Y3313485D01*
X8216150D01*
Y3363150D01*
D02*
G37*
G36*
X11000302Y3660300D02*
X10799702D01*
Y3459700D01*
X10920419D01*
X11200060Y3180059D01*
X11200061Y3180059D01*
X11218386Y3167814D01*
X11240002Y3163514D01*
X11240003Y3163515D01*
X11428227D01*
X11431663Y3157563D01*
X11447563Y3141663D01*
X11467037Y3130420D01*
X11488757Y3124600D01*
X11511243D01*
X11532963Y3130420D01*
X11552437Y3141663D01*
X11568337Y3157563D01*
X11579580Y3177037D01*
X11585400Y3198757D01*
Y3221243D01*
X11579580Y3242963D01*
X11568337Y3262437D01*
X11552437Y3278337D01*
X11532963Y3289580D01*
X11511243Y3295400D01*
X11488757D01*
X11467037Y3289580D01*
X11447563Y3278337D01*
X11445712Y3276485D01*
X11263399D01*
X11000302Y3539583D01*
Y3660300D01*
D02*
G37*
G36*
X10913206Y3010299D02*
X10886797D01*
X10861287Y3003463D01*
X10838416Y2990259D01*
X10819742Y2971584D01*
X10806537Y2948713D01*
X10799702Y2923203D01*
Y2896794D01*
X10806537Y2871284D01*
X10819742Y2848413D01*
X10838416Y2829739D01*
X10861287Y2816534D01*
X10886797Y2809699D01*
X10913206D01*
X10938716Y2816534D01*
X10961587Y2829739D01*
X10980262Y2848413D01*
X10993466Y2871284D01*
X11000302Y2896794D01*
Y2923203D01*
X10993466Y2948713D01*
X10980262Y2971584D01*
X10961587Y2990259D01*
X10938716Y3003463D01*
X10913206Y3010299D01*
D02*
G37*
G36*
X10463205D02*
X10436795D01*
X10411286Y3003463D01*
X10388414Y2990259D01*
X10369740Y2971584D01*
X10356535Y2948713D01*
X10349700Y2923203D01*
Y2896794D01*
X10356535Y2871284D01*
X10369740Y2848413D01*
X10388414Y2829739D01*
X10411286Y2816534D01*
X10436795Y2809699D01*
X10463205D01*
X10488714Y2816534D01*
X10511586Y2829739D01*
X10530260Y2848413D01*
X10543465Y2871284D01*
X10550300Y2896794D01*
Y2923203D01*
X10543465Y2948713D01*
X10530260Y2971584D01*
X10511586Y2990259D01*
X10488714Y3003463D01*
X10463205Y3010299D01*
D02*
G37*
%LPD*%
D10*
X16300000Y5600000D02*
X16339999Y5560000D01*
X16180000Y5600000D02*
X16300000D01*
X16339999Y3245147D02*
Y5560000D01*
X15007877Y5589400D02*
X15018475Y5600000D01*
X15480000D01*
X7235147Y7714136D02*
X7725864D01*
X13820000Y3210000D02*
X16304852D01*
X16339999Y3245147D01*
X15684853Y4290000D02*
X15720000Y4325147D01*
X15684853Y5850000D02*
X15720000Y5814853D01*
X14789024Y5850000D02*
X15684853D01*
X14400000Y4290000D02*
X15684853D01*
X15720000Y4325147D02*
Y5814853D01*
X12345147Y4000000D02*
X15894853D01*
X15930000Y4035147D01*
X14489999Y6290000D02*
X15894853D01*
X15930000Y4035147D02*
Y6254853D01*
X15894853Y6290000D02*
X15930000Y6254853D01*
X11580000Y8240000D02*
X12500101Y7319899D01*
X13347701D01*
X11118000Y8240000D02*
X11580000D01*
X11100000Y7968000D02*
X11532000D01*
X12680100Y6819900D01*
X13347701D01*
X11100000Y8222000D02*
X11118000Y8240000D01*
X11632000Y8476000D02*
X11924000Y8184000D01*
X13300000D01*
X11100000Y8476000D02*
X11632000D01*
X12790000Y6290000D02*
X14489999D01*
Y5116547D02*
Y6290000D01*
X11874000Y7206000D02*
X12790000Y6290000D01*
X11100000Y7206000D02*
X11874000D01*
X11740000Y6700000D02*
X12666000Y5774000D01*
X11102000Y6700000D02*
X11740000D01*
X12666000Y5774000D02*
X13320000D01*
X12712000Y6028000D02*
X13320000D01*
X11112000Y6940000D02*
X11800000D01*
X12712000Y6028000D01*
X11106000Y6450000D02*
X11730000D01*
X12660000Y5520000D01*
X13320000D01*
X12654000Y5266000D02*
X13320000D01*
X11100000Y6190000D02*
X11730000D01*
X12654000Y5266000D01*
X11106000Y5930000D02*
X11730000D01*
X12648000Y5012000D02*
X13320000D01*
X11730000Y5930000D02*
X12648000Y5012000D01*
X12662000Y4758000D02*
X13320000D01*
X11108000Y5690000D02*
X11730000D01*
X12662000Y4758000D01*
X12646000Y4504000D02*
X13320000D01*
X11108000Y5420000D02*
X11730000D01*
X12646000Y4504000D01*
X11730000Y5170000D02*
X12650000Y4250000D01*
X11104000Y5170000D02*
X11730000D01*
X12650000Y4250000D02*
X13320000D01*
X13766000Y5774000D02*
X13810001Y5730000D01*
X13320000Y5774000D02*
X13766000D01*
X13810001Y5170000D02*
Y5730000D01*
X13320000Y5520000D02*
X13594853D01*
X13630000Y5060000D02*
X14400000Y4290000D01*
X13594853Y5520000D02*
X13630000Y5484853D01*
Y5060000D02*
Y5484853D01*
X13810001Y5170000D02*
X14406599Y4573400D01*
X14000000Y5230000D02*
X14402600Y4827400D01*
X13322000Y6030000D02*
X13964853D01*
X14000000Y5994853D01*
Y5230000D02*
Y5994853D01*
X13320000Y6028000D02*
X13322000Y6030000D01*
X8100000Y2709999D02*
Y2993000D01*
X7200000Y2709999D02*
X8100000D01*
Y3257000D02*
X8590000D01*
X10900002Y3560000D02*
X10944902Y3515100D01*
X10944902D01*
X11240002Y3220000D01*
X11490000D02*
X11500000Y3210000D01*
X11240002Y3220000D02*
X11490000D01*
X11700000Y3210000D02*
X12310000D01*
X8100000Y2993000D02*
Y3013697D01*
X13784853Y2710000D02*
X13820000Y2745147D01*
X9920000Y2710000D02*
X13784853D01*
X13820000Y2745147D02*
Y3210000D01*
X12310000Y3220000D02*
Y3964853D01*
X12345147Y4000000D01*
X8100000Y2709999D02*
X9320000D01*
X9920000Y2710000D01*
X14753876Y5548792D02*
Y5814853D01*
X14789024Y5850000D01*
X14525146Y5081400D02*
X14753876D01*
X14489999Y5116547D02*
X14525146Y5081400D01*
X14402600Y4827400D02*
X14753876D01*
X14406599Y4573400D02*
X14753876D01*
X7200000Y2709999D02*
Y3248247D01*
X7200000Y3220000D02*
X7200000Y7678989D01*
X11670000Y11090001D02*
X11670999Y11091000D01*
X9576000Y7206000D02*
X10066000D01*
X10320000Y7460000D01*
X11100000D01*
X10066000Y7714000D02*
X10320000Y7460000D01*
X9576000Y7714000D02*
X10066000D01*
X10096199Y11383801D02*
X10389999Y11090001D01*
X11670000D01*
X7235147Y12290000D02*
X8830000D01*
X9310000Y11810000D01*
X7200000Y12254853D02*
X7235147Y12290000D01*
X7200000Y7678989D02*
Y12254853D01*
X7716000Y10694000D02*
Y10948000D01*
Y11202000D01*
Y11456000D01*
Y11710000D01*
Y12250853D01*
X7725864Y7714136D02*
X9575863D01*
X7725864Y7636059D02*
Y7714136D01*
X7200000Y7678989D02*
X7235147Y7714136D01*
X7721903Y7632098D02*
X7725864Y7636059D01*
X11100000Y5174000D02*
X11104000Y5170000D01*
X11100000Y5428000D02*
X11108000Y5420000D01*
X11100000Y5682000D02*
X11108000Y5690000D01*
X11100000Y5936000D02*
X11106000Y5930000D01*
X11100000Y6444000D02*
X11106000Y6450000D01*
X11100000Y6698000D02*
X11102000Y6700000D01*
X11100000Y6952000D02*
X11112000Y6940000D01*
X9030000Y5180000D02*
X9570000D01*
X9576000Y5174000D01*
X7681100Y4311800D02*
X8161800D01*
X9030000Y5180000D01*
X9574000Y5430000D02*
X9576000Y5428000D01*
X9010000Y5430000D02*
X9574000D01*
X8145800Y4565800D02*
X9010000Y5430000D01*
X7681100Y4565800D02*
X8145800D01*
X9574000Y5680000D02*
X9576000Y5682000D01*
X9010000Y5680000D02*
X9574000D01*
X7681100Y4819800D02*
X8149800D01*
X9010000Y5680000D01*
Y5930000D02*
X9570000D01*
X9576000Y5936000D01*
X8153800Y5073800D02*
X9010000Y5930000D01*
X7681100Y5073800D02*
X8153800D01*
X9020000Y6190000D02*
X9576000D01*
X8157800Y5327800D02*
X9020000Y6190000D01*
X7681100Y5327800D02*
X8157800D01*
X9572000Y6440000D02*
X9576000Y6444000D01*
X8980000Y6440000D02*
X9572000D01*
X8121800Y5581800D02*
X8980000Y6440000D01*
X7681100Y5581800D02*
X8121800D01*
X8950000Y6700000D02*
X9574000D01*
X9576000Y6698000D01*
X8085800Y5835800D02*
X8950000Y6700000D01*
X7681100Y5835800D02*
X8085800D01*
X8059800Y6089800D02*
X8922000Y6952000D01*
X9576000D01*
X7681100Y6089800D02*
X8059800D01*
X8128000Y8198000D02*
X8358000Y7968000D01*
X9576000D01*
X7770000Y8198000D02*
X8128000D01*
X8138000Y8452000D02*
X8368000Y8222000D01*
X9576000D01*
X7770000Y8452000D02*
X8138000D01*
X8374000Y8476000D02*
X9576000D01*
X8144000Y8706000D02*
X8374000Y8476000D01*
X7770000Y8706000D02*
X8144000D01*
X8150000Y8960000D02*
X8380000Y8730000D01*
X9576000D01*
X7770000Y8960000D02*
X8150000D01*
X9560000Y9000000D02*
X9576000Y8984000D01*
X8370000Y9000000D02*
X9560000D01*
X8170000Y9200000D02*
X8370000Y9000000D01*
X7770000Y9214000D02*
X7784000Y9200000D01*
X8170000D01*
X8182000Y9468000D02*
X8412000Y9238000D01*
X7770000Y9468000D02*
X8182000D01*
X8412000Y9238000D02*
X9576000D01*
X8188000Y9722000D02*
X8418000Y9492000D01*
X9576000D01*
X7770000Y9722000D02*
X8188000D01*
X8390000Y9760000D02*
X9562000D01*
X9576000Y9746000D01*
X8174000Y9976000D02*
X8390000Y9760000D01*
X7770000Y9976000D02*
X8174000D01*
X10061052Y11810000D02*
X10096199Y11774852D01*
X9310000Y11810000D02*
X10061052D01*
X10096199Y11592298D02*
Y11774852D01*
Y11383801D02*
Y11592298D01*
X15285898Y6702903D02*
X15295250Y6712255D01*
Y7318548D02*
X15304602Y7327900D01*
X13347701Y6819900D02*
X13347800Y6820000D01*
X13800000D01*
X13927100Y6692900D01*
X14275902D01*
X14293604Y7318901D02*
X14294601Y7317903D01*
X13348698Y7318901D02*
X14293604D01*
X13347701Y7319899D02*
X13348698Y7318901D01*
X9576000Y10000000D02*
X9796000Y10220000D01*
X9930000D01*
X9940000Y10210000D01*
X11800000Y10174000D02*
Y10174853D01*
X11764853Y10210000D02*
X11800000Y10174853D01*
X9940000Y10210000D02*
X11764853D01*
X11800000Y10174000D02*
X12012000Y9962000D01*
X13300000D01*
X11110000Y9990000D02*
X11700000D01*
X11982000Y9708000D02*
X13300000D01*
X11700000Y9990000D02*
X11982000Y9708000D01*
X11104000Y9750000D02*
X11678000D01*
X11974000Y9454000D02*
X13300000D01*
X11678000Y9750000D02*
X11974000Y9454000D01*
X11110000Y8720000D02*
X11640000D01*
X11100000Y8730000D02*
X11110000Y8720000D01*
X11922000Y8438000D02*
X13300000D01*
X11640000Y8720000D02*
X11922000Y8438000D01*
X11100000Y8984000D02*
X11666000D01*
X11958000Y8692000D02*
X13300000D01*
X11666000Y8984000D02*
X11958000Y8692000D01*
X11100000Y9238000D02*
X11112000Y9250000D01*
X11650000D01*
X11954000Y8946000D01*
X13300000D01*
X11100000Y9492000D02*
X11688000D01*
X11980000Y9200000D01*
X13300000D01*
X11100000Y9746000D02*
X11104000Y9750000D01*
X11100000Y10000000D02*
X11110000Y9990000D01*
D11*
X15480000Y5600000D02*
D03*
X16180000D02*
D03*
X12310000Y3210000D02*
D03*
X13820000D02*
D03*
X7731900Y6622103D02*
D03*
X7721903Y7632098D02*
D03*
X15304602Y7327900D02*
D03*
X14294601Y7317903D02*
D03*
X15285898Y6702903D02*
D03*
X14275902Y6692900D02*
D03*
X11700000Y3210000D02*
D03*
X11500000D02*
D03*
X8590000Y3250000D02*
D03*
X10100000D02*
D03*
X13347701Y6819900D02*
D03*
Y7319899D02*
D03*
D12*
X15007877Y4827400D02*
D03*
Y4573400D02*
D03*
Y5081400D02*
D03*
Y5335400D02*
D03*
Y5589400D02*
D03*
X14753876Y4573400D02*
D03*
Y4827400D02*
D03*
Y5081400D02*
D03*
Y5335400D02*
D03*
Y5589400D02*
D03*
X13320000Y5774000D02*
D03*
Y5520000D02*
D03*
Y5266000D02*
D03*
Y5012000D02*
D03*
Y4758000D02*
D03*
Y4504000D02*
D03*
Y4250000D02*
D03*
Y6028000D02*
D03*
X7681100Y5835800D02*
D03*
Y5581800D02*
D03*
Y5327800D02*
D03*
Y5073800D02*
D03*
Y4819800D02*
D03*
Y4565800D02*
D03*
Y4311800D02*
D03*
Y6089800D02*
D03*
X13300000Y9708000D02*
D03*
Y9454000D02*
D03*
Y9200000D02*
D03*
Y8946000D02*
D03*
Y8692000D02*
D03*
Y8438000D02*
D03*
Y8184000D02*
D03*
Y9962000D02*
D03*
X7770000Y8452000D02*
D03*
Y8706000D02*
D03*
Y8960000D02*
D03*
Y9214000D02*
D03*
Y9468000D02*
D03*
Y9722000D02*
D03*
Y9976000D02*
D03*
Y8198000D02*
D03*
D13*
X11670000Y11690000D02*
D03*
Y11090001D02*
D03*
D14*
X11190001Y11339998D02*
D03*
D15*
X9576000Y5174000D02*
D03*
Y5428000D02*
D03*
Y5682000D02*
D03*
Y5936000D02*
D03*
Y6190000D02*
D03*
Y6444000D02*
D03*
Y6698000D02*
D03*
Y6952000D02*
D03*
Y7206000D02*
D03*
Y7460000D02*
D03*
Y7714000D02*
D03*
Y7968000D02*
D03*
Y8222000D02*
D03*
Y8476000D02*
D03*
Y8730000D02*
D03*
Y8984000D02*
D03*
Y9238000D02*
D03*
Y9492000D02*
D03*
Y9746000D02*
D03*
Y10000000D02*
D03*
X11100000D02*
D03*
Y9746000D02*
D03*
Y9492000D02*
D03*
Y9238000D02*
D03*
Y8984000D02*
D03*
Y8730000D02*
D03*
Y8476000D02*
D03*
Y8222000D02*
D03*
Y7968000D02*
D03*
Y7714000D02*
D03*
Y7460000D02*
D03*
Y7206000D02*
D03*
Y6952000D02*
D03*
Y6698000D02*
D03*
Y6444000D02*
D03*
Y6190000D02*
D03*
Y5936000D02*
D03*
Y5682000D02*
D03*
Y5428000D02*
D03*
D16*
Y5174000D02*
D03*
D17*
X9896200Y12042300D02*
D03*
X9696200D02*
D03*
D18*
X10096199D02*
D03*
D19*
Y11592298D02*
D03*
X9896200D02*
D03*
X9696200D02*
D03*
D20*
X7970000Y10694000D02*
D03*
X7716000D02*
D03*
X7970000Y10948000D02*
D03*
X7716000D02*
D03*
X7970000Y11202000D02*
D03*
X7716000D02*
D03*
Y11456000D02*
D03*
X7970000Y11710000D02*
D03*
X7716000D02*
D03*
X7970000Y11456000D02*
D03*
D21*
X10900002Y2909999D02*
D03*
X10450000D02*
D03*
Y3560000D02*
D03*
D22*
X10900002D02*
D03*
D23*
X8100000Y2993000D02*
D03*
D24*
Y3247000D02*
D03*
%TF.MD5,8655fcbbbfeed871c3a2863af25d103e*%
M02*
