%TF.GenerationSoftware,Altium Limited,Altium Designer,22.8.2 (66)*%
G04 Layer_Color=16711935*
%FSLAX45Y45*%
%MOMM*%
%TF.SameCoordinates,FB7AEFDD-F9D1-43F8-8D2B-1616BFC5D0C0*%
%TF.FilePolarity,Negative*%
%TF.FileFunction,Soldermask,Bot*%
%TF.Part,Single*%
G01*
G75*
%TA.AperFunction,ComponentPad*%
%ADD25C,1.40320*%
%ADD26C,1.80320*%
%ADD27O,4.20320X2.20320*%
%ADD28O,2.20320X3.70320*%
%ADD29C,1.87960*%
%ADD30R,1.87960X1.87960*%
%ADD31C,1.72720*%
%ADD32R,1.60320X1.60320*%
%ADD33C,1.60320*%
%ADD34C,1.85320*%
%ADD35C,1.70120*%
%ADD36R,1.70120X1.70120*%
%ADD37C,2.01820*%
%ADD38R,2.01820X2.01820*%
D25*
X15480000Y5600000D02*
D03*
X16180000D02*
D03*
X12310000Y3210000D02*
D03*
X13820000D02*
D03*
X7731900Y6622103D02*
D03*
X7721903Y7632098D02*
D03*
X15304602Y7327900D02*
D03*
X14294601Y7317903D02*
D03*
X15285898Y6702903D02*
D03*
X14275902Y6692900D02*
D03*
X11700000Y3210000D02*
D03*
X11500000D02*
D03*
X8590000Y3250000D02*
D03*
X10100000D02*
D03*
X13347701Y6819900D02*
D03*
Y7319899D02*
D03*
D26*
X15007877Y4827400D02*
D03*
Y4573400D02*
D03*
Y5081400D02*
D03*
Y5335400D02*
D03*
Y5589400D02*
D03*
X14753876Y4573400D02*
D03*
Y4827400D02*
D03*
Y5081400D02*
D03*
Y5335400D02*
D03*
Y5589400D02*
D03*
X13320000Y5774000D02*
D03*
Y5520000D02*
D03*
Y5266000D02*
D03*
Y5012000D02*
D03*
Y4758000D02*
D03*
Y4504000D02*
D03*
Y4250000D02*
D03*
Y6028000D02*
D03*
X7681100Y5835800D02*
D03*
Y5581800D02*
D03*
Y5327800D02*
D03*
Y5073800D02*
D03*
Y4819800D02*
D03*
Y4565800D02*
D03*
Y4311800D02*
D03*
Y6089800D02*
D03*
X13300000Y9708000D02*
D03*
Y9454000D02*
D03*
Y9200000D02*
D03*
Y8946000D02*
D03*
Y8692000D02*
D03*
Y8438000D02*
D03*
Y8184000D02*
D03*
Y9962000D02*
D03*
X7770000Y8452000D02*
D03*
Y8706000D02*
D03*
Y8960000D02*
D03*
Y9214000D02*
D03*
Y9468000D02*
D03*
Y9722000D02*
D03*
Y9976000D02*
D03*
Y8198000D02*
D03*
D27*
X11670000Y11690000D02*
D03*
Y11090001D02*
D03*
D28*
X11190001Y11339998D02*
D03*
D29*
X9576000Y5174000D02*
D03*
Y5428000D02*
D03*
Y5682000D02*
D03*
Y5936000D02*
D03*
Y6190000D02*
D03*
Y6444000D02*
D03*
Y6698000D02*
D03*
Y6952000D02*
D03*
Y7206000D02*
D03*
Y7460000D02*
D03*
Y7714000D02*
D03*
Y7968000D02*
D03*
Y8222000D02*
D03*
Y8476000D02*
D03*
Y8730000D02*
D03*
Y8984000D02*
D03*
Y9238000D02*
D03*
Y9492000D02*
D03*
Y9746000D02*
D03*
Y10000000D02*
D03*
X11100000D02*
D03*
Y9746000D02*
D03*
Y9492000D02*
D03*
Y9238000D02*
D03*
Y8984000D02*
D03*
Y8730000D02*
D03*
Y8476000D02*
D03*
Y8222000D02*
D03*
Y7968000D02*
D03*
Y7714000D02*
D03*
Y7460000D02*
D03*
Y7206000D02*
D03*
Y6952000D02*
D03*
Y6698000D02*
D03*
Y6444000D02*
D03*
Y6190000D02*
D03*
Y5936000D02*
D03*
Y5682000D02*
D03*
Y5428000D02*
D03*
D30*
Y5174000D02*
D03*
D31*
X9896200Y12042300D02*
D03*
X9696200D02*
D03*
D32*
X10096199D02*
D03*
D33*
Y11592298D02*
D03*
X9896200D02*
D03*
X9696200D02*
D03*
D34*
X7970000Y10694000D02*
D03*
X7716000D02*
D03*
X7970000Y10948000D02*
D03*
X7716000D02*
D03*
X7970000Y11202000D02*
D03*
X7716000D02*
D03*
Y11456000D02*
D03*
X7970000Y11710000D02*
D03*
X7716000D02*
D03*
X7970000Y11456000D02*
D03*
D35*
X10900002Y2909999D02*
D03*
X10450000D02*
D03*
Y3560000D02*
D03*
D36*
X10900002D02*
D03*
D37*
X8100000Y2993000D02*
D03*
D38*
Y3247000D02*
D03*
%TF.MD5,8fd28018f1098b36011d88a2334f2747*%
M02*
