%TF.GenerationSoftware,Altium Limited,Altium Designer,22.8.2 (66)*%
G04 Layer_Color=32768*
%FSLAX45Y45*%
%MOMM*%
%TF.SameCoordinates,FB7AEFDD-F9D1-43F8-8D2B-1616BFC5D0C0*%
%TF.FilePolarity,Positive*%
%TF.FileFunction,Other,Mechanical_15*%
%TF.Part,Single*%
G01*
G75*
%TA.AperFunction,NonConductor*%
%ADD44C,0.05000*%
G36*
X7564000Y10542000D02*
Y11862000D01*
X8122000D01*
Y10542000D01*
X7564000D01*
D02*
G37*
D44*
X7934799Y3394282D02*
G03*
X8265201Y3394282I165201J-274941D01*
G01*
X13462001Y4098001D02*
Y6179999D01*
X13177998D02*
X13462001D01*
X13177998Y4098001D02*
Y6179999D01*
Y4098001D02*
X13462001D01*
X7823101Y4159801D02*
Y6241799D01*
X7539099D02*
X7823101D01*
X7539099Y4159801D02*
Y6241799D01*
Y4159801D02*
X7823101D01*
X13442001Y8032001D02*
Y10113999D01*
X13157999D02*
X13442001D01*
X13157999Y8032001D02*
Y10113999D01*
Y8032001D02*
X13442001D01*
X7627999Y8046001D02*
Y10127999D01*
Y8046001D02*
X7912001D01*
Y10127999D01*
X7627999D02*
X7912001D01*
X11000001Y2809999D02*
Y3660000D01*
X10350000Y2809999D02*
X11000001D01*
X10350000D02*
Y3660000D01*
X11000001D01*
X7936002Y3395001D02*
X8263998D01*
%TF.MD5,d4650cd8357d186b46f38db89db461a7*%
M02*
