G04*
G04 #@! TF.GenerationSoftware,Altium Limited,Altium Designer,22.8.2 (66)*
G04*
G04 Layer_Color=2752767*
%FSLAX44Y44*%
%MOMM*%
G71*
G04*
G04 #@! TF.SameCoordinates,239B72BE-1975-44D0-A8EA-8DBFC20476F2*
G04*
G04*
G04 #@! TF.FilePolarity,Positive*
G04*
G01*
G75*
%ADD43C,0.0508*%
%ADD44C,0.0677*%
D43*
X1545968Y557968D02*
X1546984Y560000D01*
X1545968Y562032D01*
X1548000Y561016D01*
X1550032Y562032D01*
X1549016Y560000D01*
X1550032Y557968D01*
X1548000Y558984D01*
X1545968Y557968D01*
X1615968D02*
X1616984Y560000D01*
X1615968Y562032D01*
X1618000Y561016D01*
X1620032Y562032D01*
X1619016Y560000D01*
X1620032Y557968D01*
X1618000Y558984D01*
X1615968Y557968D01*
X1500788Y480708D02*
X1501804Y481724D01*
X1502820D01*
X1501804Y482740D01*
X1502820Y483756D01*
X1501804D01*
X1500788Y484772D01*
X1499772Y483756D01*
X1498756D01*
X1499772Y482740D01*
X1498756Y481724D01*
X1499772D01*
X1500788Y480708D01*
X1164968Y1166968D02*
Y1171032D01*
X1169032D01*
Y1166968D01*
X1164968D01*
X1165984Y1167984D02*
Y1170016D01*
X1168016D01*
Y1167984D01*
X1165984D01*
X1164968Y1106968D02*
Y1111032D01*
X1169032D01*
Y1106968D01*
X1164968D01*
X1165984Y1107984D02*
Y1110016D01*
X1168016D01*
Y1107984D01*
X1165984D01*
X1116968Y1134000D02*
X1119000Y1136032D01*
X1121032Y1134000D01*
X1119000Y1131968D01*
X1116968Y1134000D01*
X957600Y515368D02*
X955568Y519432D01*
X959632D01*
X957600Y515368D01*
Y540768D02*
X955568Y544832D01*
X959632D01*
X957600Y540768D01*
Y566168D02*
X955568Y570232D01*
X959632D01*
X957600Y566168D01*
Y591568D02*
X955568Y595632D01*
X959632D01*
X957600Y591568D01*
Y616968D02*
X955568Y621032D01*
X959632D01*
X957600Y616968D01*
Y642368D02*
X955568Y646432D01*
X959632D01*
X957600Y642368D01*
Y667768D02*
X955568Y671832D01*
X959632D01*
X957600Y667768D01*
Y693168D02*
X955568Y697232D01*
X959632D01*
X957600Y693168D01*
Y718568D02*
X955568Y722632D01*
X959632D01*
X957600Y718568D01*
Y743968D02*
X955568Y748032D01*
X959632D01*
X957600Y743968D01*
Y769368D02*
X955568Y773432D01*
X959632D01*
X957600Y769368D01*
Y794768D02*
X955568Y798832D01*
X959632D01*
X957600Y794768D01*
Y820168D02*
X955568Y824232D01*
X959632D01*
X957600Y820168D01*
Y845568D02*
X955568Y849632D01*
X959632D01*
X957600Y845568D01*
Y870968D02*
X955568Y875032D01*
X959632D01*
X957600Y870968D01*
Y896368D02*
X955568Y900432D01*
X959632D01*
X957600Y896368D01*
Y921768D02*
X955568Y925832D01*
X959632D01*
X957600Y921768D01*
Y947168D02*
X955568Y951232D01*
X959632D01*
X957600Y947168D01*
Y972568D02*
X955568Y976632D01*
X959632D01*
X957600Y972568D01*
Y997968D02*
X955568Y1002032D01*
X959632D01*
X957600Y997968D01*
X1110000D02*
X1107968Y1002032D01*
X1112032D01*
X1110000Y997968D01*
Y972568D02*
X1107968Y976632D01*
X1112032D01*
X1110000Y972568D01*
Y947168D02*
X1107968Y951232D01*
X1112032D01*
X1110000Y947168D01*
Y921768D02*
X1107968Y925832D01*
X1112032D01*
X1110000Y921768D01*
Y896368D02*
X1107968Y900432D01*
X1112032D01*
X1110000Y896368D01*
Y870968D02*
X1107968Y875032D01*
X1112032D01*
X1110000Y870968D01*
Y845568D02*
X1107968Y849632D01*
X1112032D01*
X1110000Y845568D01*
Y820168D02*
X1107968Y824232D01*
X1112032D01*
X1110000Y820168D01*
Y794768D02*
X1107968Y798832D01*
X1112032D01*
X1110000Y794768D01*
Y769368D02*
X1107968Y773432D01*
X1112032D01*
X1110000Y769368D01*
Y743968D02*
X1107968Y748032D01*
X1112032D01*
X1110000Y743968D01*
Y718568D02*
X1107968Y722632D01*
X1112032D01*
X1110000Y718568D01*
Y693168D02*
X1107968Y697232D01*
X1112032D01*
X1110000Y693168D01*
Y667768D02*
X1107968Y671832D01*
X1112032D01*
X1110000Y667768D01*
Y642368D02*
X1107968Y646432D01*
X1112032D01*
X1110000Y642368D01*
Y616968D02*
X1107968Y621032D01*
X1112032D01*
X1110000Y616968D01*
Y591568D02*
X1107968Y595632D01*
X1112032D01*
X1110000Y591568D01*
Y566168D02*
X1107968Y570232D01*
X1112032D01*
X1110000Y566168D01*
Y540768D02*
X1107968Y544832D01*
X1112032D01*
X1110000Y540768D01*
Y515368D02*
X1107968Y519432D01*
X1112032D01*
X1110000Y515368D01*
X1228968Y318968D02*
X1229984Y321000D01*
X1228968Y323032D01*
X1231000Y322016D01*
X1233032Y323032D01*
X1232016Y321000D01*
X1233032Y318968D01*
X1231000Y319984D01*
X1228968Y318968D01*
X1379968D02*
X1380984Y321000D01*
X1379968Y323032D01*
X1382000Y322016D01*
X1384032Y323032D01*
X1383016Y321000D01*
X1384032Y318968D01*
X1382000Y319984D01*
X1379968Y318968D01*
X771158Y660178D02*
Y664242D01*
X775222D01*
Y660178D01*
X771158D01*
X770158Y761178D02*
Y765242D01*
X774222D01*
Y761178D01*
X770158D01*
X1528428Y730758D02*
Y734822D01*
X1532492D01*
Y730758D01*
X1528428D01*
X1427428Y729758D02*
Y733822D01*
X1431492D01*
Y729758D01*
X1427428D01*
X1526558Y668258D02*
Y672322D01*
X1530622D01*
Y668258D01*
X1526558D01*
X1425558Y667258D02*
Y671322D01*
X1429622D01*
Y667258D01*
X1425558D01*
X1167968Y318968D02*
Y323032D01*
X1172032D01*
Y318968D01*
X1167968D01*
X1147968D02*
Y323032D01*
X1152032D01*
Y318968D01*
X1147968D01*
X856968Y322968D02*
X857984Y325000D01*
X856968Y327032D01*
X859000Y326016D01*
X861032Y327032D01*
X860016Y325000D01*
X861032Y322968D01*
X859000Y323984D01*
X856968Y322968D01*
X1007968D02*
X1008984Y325000D01*
X1007968Y327032D01*
X1010000Y326016D01*
X1012032Y327032D01*
X1011016Y325000D01*
X1012032Y322968D01*
X1010000Y323984D01*
X1007968Y322968D01*
X987588Y1202198D02*
Y1206262D01*
X991652D01*
Y1202198D01*
X987588D01*
X967588D02*
Y1206262D01*
X971652D01*
Y1202198D01*
X967588D01*
X1007588D02*
Y1206262D01*
X1011652D01*
Y1202198D01*
X1007588D01*
Y1157198D02*
Y1161262D01*
X1011652D01*
Y1157198D01*
X1007588D01*
X987588D02*
Y1161262D01*
X991652D01*
Y1157198D01*
X987588D01*
X967588D02*
Y1161262D01*
X971652D01*
Y1157198D01*
X967588D01*
X1500788Y455308D02*
X1501804Y456324D01*
X1502820D01*
X1501804Y457340D01*
X1502820Y458356D01*
X1501804D01*
X1500788Y459372D01*
X1499772Y458356D01*
X1498756D01*
X1499772Y457340D01*
X1498756Y456324D01*
X1499772D01*
X1500788Y455308D01*
Y506108D02*
X1501804Y507124D01*
X1502820D01*
X1501804Y508140D01*
X1502820Y509156D01*
X1501804D01*
X1500788Y510172D01*
X1499772Y509156D01*
X1498756D01*
X1499772Y508140D01*
X1498756Y507124D01*
X1499772D01*
X1500788Y506108D01*
Y531508D02*
X1501804Y532524D01*
X1502820D01*
X1501804Y533540D01*
X1502820Y534556D01*
X1501804D01*
X1500788Y535572D01*
X1499772Y534556D01*
X1498756D01*
X1499772Y533540D01*
X1498756Y532524D01*
X1499772D01*
X1500788Y531508D01*
Y556908D02*
X1501804Y557924D01*
X1502820D01*
X1501804Y558940D01*
X1502820Y559956D01*
X1501804D01*
X1500788Y560972D01*
X1499772Y559956D01*
X1498756D01*
X1499772Y558940D01*
X1498756Y557924D01*
X1499772D01*
X1500788Y556908D01*
X1475388Y455308D02*
X1476404Y456324D01*
X1477420D01*
X1476404Y457340D01*
X1477420Y458356D01*
X1476404D01*
X1475388Y459372D01*
X1474372Y458356D01*
X1473356D01*
X1474372Y457340D01*
X1473356Y456324D01*
X1474372D01*
X1475388Y455308D01*
Y480708D02*
X1476404Y481724D01*
X1477420D01*
X1476404Y482740D01*
X1477420Y483756D01*
X1476404D01*
X1475388Y484772D01*
X1474372Y483756D01*
X1473356D01*
X1474372Y482740D01*
X1473356Y481724D01*
X1474372D01*
X1475388Y480708D01*
Y506108D02*
X1476404Y507124D01*
X1477420D01*
X1476404Y508140D01*
X1477420Y509156D01*
X1476404D01*
X1475388Y510172D01*
X1474372Y509156D01*
X1473356D01*
X1474372Y508140D01*
X1473356Y507124D01*
X1474372D01*
X1475388Y506108D01*
Y531508D02*
X1476404Y532524D01*
X1477420D01*
X1476404Y533540D01*
X1477420Y534556D01*
X1476404D01*
X1475388Y535572D01*
X1474372Y534556D01*
X1473356D01*
X1474372Y533540D01*
X1473356Y532524D01*
X1474372D01*
X1475388Y531508D01*
Y556908D02*
X1476404Y557924D01*
X1477420D01*
X1476404Y558940D01*
X1477420Y559956D01*
X1476404D01*
X1475388Y560972D01*
X1474372Y559956D01*
X1473356D01*
X1474372Y558940D01*
X1473356Y557924D01*
X1474372D01*
X1475388Y556908D01*
X1332000Y575368D02*
X1333016Y576384D01*
X1334032D01*
X1333016Y577400D01*
X1334032Y578416D01*
X1333016D01*
X1332000Y579432D01*
X1330984Y578416D01*
X1329968D01*
X1330984Y577400D01*
X1329968Y576384D01*
X1330984D01*
X1332000Y575368D01*
Y549968D02*
X1333016Y550984D01*
X1334032D01*
X1333016Y552000D01*
X1334032Y553016D01*
X1333016D01*
X1332000Y554032D01*
X1330984Y553016D01*
X1329968D01*
X1330984Y552000D01*
X1329968Y550984D01*
X1330984D01*
X1332000Y549968D01*
Y524568D02*
X1333016Y525584D01*
X1334032D01*
X1333016Y526600D01*
X1334032Y527616D01*
X1333016D01*
X1332000Y528632D01*
X1330984Y527616D01*
X1329968D01*
X1330984Y526600D01*
X1329968Y525584D01*
X1330984D01*
X1332000Y524568D01*
Y499168D02*
X1333016Y500184D01*
X1334032D01*
X1333016Y501200D01*
X1334032Y502216D01*
X1333016D01*
X1332000Y503232D01*
X1330984Y502216D01*
X1329968D01*
X1330984Y501200D01*
X1329968Y500184D01*
X1330984D01*
X1332000Y499168D01*
Y473768D02*
X1333016Y474784D01*
X1334032D01*
X1333016Y475800D01*
X1334032Y476816D01*
X1333016D01*
X1332000Y477832D01*
X1330984Y476816D01*
X1329968D01*
X1330984Y475800D01*
X1329968Y474784D01*
X1330984D01*
X1332000Y473768D01*
Y448368D02*
X1333016Y449384D01*
X1334032D01*
X1333016Y450400D01*
X1334032Y451416D01*
X1333016D01*
X1332000Y452432D01*
X1330984Y451416D01*
X1329968D01*
X1330984Y450400D01*
X1329968Y449384D01*
X1330984D01*
X1332000Y448368D01*
Y422968D02*
X1333016Y423984D01*
X1334032D01*
X1333016Y425000D01*
X1334032Y426016D01*
X1333016D01*
X1332000Y427032D01*
X1330984Y426016D01*
X1329968D01*
X1330984Y425000D01*
X1329968Y423984D01*
X1330984D01*
X1332000Y422968D01*
Y600768D02*
X1333016Y601784D01*
X1334032D01*
X1333016Y602800D01*
X1334032Y603816D01*
X1333016D01*
X1332000Y604832D01*
X1330984Y603816D01*
X1329968D01*
X1330984Y602800D01*
X1329968Y601784D01*
X1330984D01*
X1332000Y600768D01*
X768110Y581548D02*
X769126Y582564D01*
X770142D01*
X769126Y583580D01*
X770142Y584596D01*
X769126D01*
X768110Y585612D01*
X767094Y584596D01*
X766078D01*
X767094Y583580D01*
X766078Y582564D01*
X767094D01*
X768110Y581548D01*
Y556148D02*
X769126Y557164D01*
X770142D01*
X769126Y558180D01*
X770142Y559196D01*
X769126D01*
X768110Y560212D01*
X767094Y559196D01*
X766078D01*
X767094Y558180D01*
X766078Y557164D01*
X767094D01*
X768110Y556148D01*
Y530748D02*
X769126Y531764D01*
X770142D01*
X769126Y532780D01*
X770142Y533796D01*
X769126D01*
X768110Y534812D01*
X767094Y533796D01*
X766078D01*
X767094Y532780D01*
X766078Y531764D01*
X767094D01*
X768110Y530748D01*
Y505348D02*
X769126Y506364D01*
X770142D01*
X769126Y507380D01*
X770142Y508396D01*
X769126D01*
X768110Y509412D01*
X767094Y508396D01*
X766078D01*
X767094Y507380D01*
X766078Y506364D01*
X767094D01*
X768110Y505348D01*
Y479948D02*
X769126Y480964D01*
X770142D01*
X769126Y481980D01*
X770142Y482996D01*
X769126D01*
X768110Y484012D01*
X767094Y482996D01*
X766078D01*
X767094Y481980D01*
X766078Y480964D01*
X767094D01*
X768110Y479948D01*
Y454548D02*
X769126Y455564D01*
X770142D01*
X769126Y456580D01*
X770142Y457596D01*
X769126D01*
X768110Y458612D01*
X767094Y457596D01*
X766078D01*
X767094Y456580D01*
X766078Y455564D01*
X767094D01*
X768110Y454548D01*
Y429148D02*
X769126Y430164D01*
X770142D01*
X769126Y431180D01*
X770142Y432196D01*
X769126D01*
X768110Y433212D01*
X767094Y432196D01*
X766078D01*
X767094Y431180D01*
X766078Y430164D01*
X767094D01*
X768110Y429148D01*
Y606948D02*
X769126Y607964D01*
X770142D01*
X769126Y608980D01*
X770142Y609996D01*
X769126D01*
X768110Y611012D01*
X767094Y609996D01*
X766078D01*
X767094Y608980D01*
X766078Y607964D01*
X767094D01*
X768110Y606948D01*
X1332738Y679958D02*
X1333754Y681990D01*
X1332738Y684022D01*
X1334770Y683006D01*
X1336802Y684022D01*
X1335786Y681990D01*
X1336802Y679958D01*
X1334770Y680974D01*
X1332738Y679958D01*
Y729958D02*
X1333754Y731990D01*
X1332738Y734022D01*
X1334770Y733006D01*
X1336802Y734022D01*
X1335786Y731990D01*
X1336802Y729958D01*
X1334770Y730974D01*
X1332738Y729958D01*
X1330000Y968768D02*
X1331016Y969784D01*
X1332032D01*
X1331016Y970800D01*
X1332032Y971816D01*
X1331016D01*
X1330000Y972832D01*
X1328984Y971816D01*
X1327968D01*
X1328984Y970800D01*
X1327968Y969784D01*
X1328984D01*
X1330000Y968768D01*
Y943368D02*
X1331016Y944384D01*
X1332032D01*
X1331016Y945400D01*
X1332032Y946416D01*
X1331016D01*
X1330000Y947432D01*
X1328984Y946416D01*
X1327968D01*
X1328984Y945400D01*
X1327968Y944384D01*
X1328984D01*
X1330000Y943368D01*
Y917968D02*
X1331016Y918984D01*
X1332032D01*
X1331016Y920000D01*
X1332032Y921016D01*
X1331016D01*
X1330000Y922032D01*
X1328984Y921016D01*
X1327968D01*
X1328984Y920000D01*
X1327968Y918984D01*
X1328984D01*
X1330000Y917968D01*
Y892568D02*
X1331016Y893584D01*
X1332032D01*
X1331016Y894600D01*
X1332032Y895616D01*
X1331016D01*
X1330000Y896632D01*
X1328984Y895616D01*
X1327968D01*
X1328984Y894600D01*
X1327968Y893584D01*
X1328984D01*
X1330000Y892568D01*
Y867168D02*
X1331016Y868184D01*
X1332032D01*
X1331016Y869200D01*
X1332032Y870216D01*
X1331016D01*
X1330000Y871232D01*
X1328984Y870216D01*
X1327968D01*
X1328984Y869200D01*
X1327968Y868184D01*
X1328984D01*
X1330000Y867168D01*
Y841768D02*
X1331016Y842784D01*
X1332032D01*
X1331016Y843800D01*
X1332032Y844816D01*
X1331016D01*
X1330000Y845832D01*
X1328984Y844816D01*
X1327968D01*
X1328984Y843800D01*
X1327968Y842784D01*
X1328984D01*
X1330000Y841768D01*
Y816368D02*
X1331016Y817384D01*
X1332032D01*
X1331016Y818400D01*
X1332032Y819416D01*
X1331016D01*
X1330000Y820432D01*
X1328984Y819416D01*
X1327968D01*
X1328984Y818400D01*
X1327968Y817384D01*
X1328984D01*
X1330000Y816368D01*
Y994168D02*
X1331016Y995184D01*
X1332032D01*
X1331016Y996200D01*
X1332032Y997216D01*
X1331016D01*
X1330000Y998232D01*
X1328984Y997216D01*
X1327968D01*
X1328984Y996200D01*
X1327968Y995184D01*
X1328984D01*
X1330000Y994168D01*
X777000Y843168D02*
X778016Y844184D01*
X779032D01*
X778016Y845200D01*
X779032Y846216D01*
X778016D01*
X777000Y847232D01*
X775984Y846216D01*
X774968D01*
X775984Y845200D01*
X774968Y844184D01*
X775984D01*
X777000Y843168D01*
Y868568D02*
X778016Y869584D01*
X779032D01*
X778016Y870600D01*
X779032Y871616D01*
X778016D01*
X777000Y872632D01*
X775984Y871616D01*
X774968D01*
X775984Y870600D01*
X774968Y869584D01*
X775984D01*
X777000Y868568D01*
Y893968D02*
X778016Y894984D01*
X779032D01*
X778016Y896000D01*
X779032Y897016D01*
X778016D01*
X777000Y898032D01*
X775984Y897016D01*
X774968D01*
X775984Y896000D01*
X774968Y894984D01*
X775984D01*
X777000Y893968D01*
Y919368D02*
X778016Y920384D01*
X779032D01*
X778016Y921400D01*
X779032Y922416D01*
X778016D01*
X777000Y923432D01*
X775984Y922416D01*
X774968D01*
X775984Y921400D01*
X774968Y920384D01*
X775984D01*
X777000Y919368D01*
Y944768D02*
X778016Y945784D01*
X779032D01*
X778016Y946800D01*
X779032Y947816D01*
X778016D01*
X777000Y948832D01*
X775984Y947816D01*
X774968D01*
X775984Y946800D01*
X774968Y945784D01*
X775984D01*
X777000Y944768D01*
Y970168D02*
X778016Y971184D01*
X779032D01*
X778016Y972200D01*
X779032Y973216D01*
X778016D01*
X777000Y974232D01*
X775984Y973216D01*
X774968D01*
X775984Y972200D01*
X774968Y971184D01*
X775984D01*
X777000Y970168D01*
Y995568D02*
X778016Y996584D01*
X779032D01*
X778016Y997600D01*
X779032Y998616D01*
X778016D01*
X777000Y999632D01*
X775984Y998616D01*
X774968D01*
X775984Y997600D01*
X774968Y996584D01*
X775984D01*
X777000Y995568D01*
Y817768D02*
X778016Y818784D01*
X779032D01*
X778016Y819800D01*
X779032Y820816D01*
X778016D01*
X777000Y821832D01*
X775984Y820816D01*
X774968D01*
X775984Y819800D01*
X774968Y818784D01*
X775984D01*
X777000Y817768D01*
X1088984Y289984D02*
Y288968D01*
X1091016D01*
Y289984D01*
X1092032D01*
Y292016D01*
X1091016D01*
Y293032D01*
X1088984D01*
Y292016D01*
X1087968D01*
Y289984D01*
X1088984D01*
X1043984D02*
Y288968D01*
X1046016D01*
Y289984D01*
X1047032D01*
Y292016D01*
X1046016D01*
Y293032D01*
X1043984D01*
Y292016D01*
X1042968D01*
Y289984D01*
X1043984D01*
X1088984Y354984D02*
Y353968D01*
X1091016D01*
Y354984D01*
X1092032D01*
Y357016D01*
X1091016D01*
Y358032D01*
X1088984D01*
Y357016D01*
X1087968D01*
Y354984D01*
X1088984D01*
X1043984D02*
Y353968D01*
X1046016D01*
Y354984D01*
X1047032D01*
Y357016D01*
X1046016D01*
Y358032D01*
X1043984D01*
Y357016D01*
X1042968D01*
Y354984D01*
X1043984D01*
X807968Y297268D02*
X808984D01*
X810000Y298284D01*
X811016Y297268D01*
X812032D01*
Y298284D01*
X811016Y299300D01*
X812032Y300316D01*
Y301332D01*
X811016D01*
X810000Y300316D01*
X808984Y301332D01*
X807968D01*
Y300316D01*
X808984Y299300D01*
X807968Y298284D01*
Y297268D01*
Y322668D02*
X808984D01*
X810000Y323684D01*
X811016Y322668D01*
X812032D01*
Y323684D01*
X811016Y324700D01*
X812032Y325716D01*
Y326732D01*
X811016D01*
X810000Y325716D01*
X808984Y326732D01*
X807968D01*
Y325716D01*
X808984Y324700D01*
X807968Y323684D01*
Y322668D01*
D44*
X799032Y1069400D02*
G03*
X799032Y1069400I-2032J0D01*
G01*
X773632D02*
G03*
X773632Y1069400I-2032J0D01*
G01*
X799032Y1094800D02*
G03*
X799032Y1094800I-2032J0D01*
G01*
X773632D02*
G03*
X773632Y1094800I-2032J0D01*
G01*
X799032Y1120200D02*
G03*
X799032Y1120200I-2032J0D01*
G01*
X773632D02*
G03*
X773632Y1120200I-2032J0D01*
G01*
Y1145600D02*
G03*
X773632Y1145600I-2032J0D01*
G01*
X799032Y1171000D02*
G03*
X799032Y1171000I-2032J0D01*
G01*
X773632D02*
G03*
X773632Y1171000I-2032J0D01*
G01*
X799032Y1145600D02*
G03*
X799032Y1145600I-2032J0D01*
G01*
M02*
